<?xml version="1.0" encoding="utf-8"?>
<!-- Generator: Adobe Illustrator 15.0.0, SVG Export Plug-In . SVG Version: 6.00 Build 0)  -->
<!DOCTYPE svg PUBLIC "-//W3C//DTD SVG 1.1//EN" "http://www.w3.org/Graphics/SVG/1.1/DTD/svg11.dtd">
<svg version="1.1" id="Слой_1" xmlns="http://www.w3.org/2000/svg" xmlns:xlink="http://www.w3.org/1999/xlink" x="0px" y="0px"
	 width="6803.15px" height="4535.43px" viewBox="0 0 6803.15 4535.43" enable-background="new 0 0 6803.15 4535.43"
	 xml:space="preserve">
<g>
	<path fill="#666666" d="M6362.724,1811.673h-24.988L3476.541,0c-12.494-6.247-31.236-6.247-43.73,0L577.863,1811.673H440.427
		c-18.741,0-37.483,12.495-37.483,37.483v118.695c0,18.742,18.742,37.483,37.483,37.483h31.235l99.955,212.403
		c6.246,12.494,12.494,18.741,24.988,18.741v1886.639h-62.472c-18.741,0-37.483,18.742-37.483,37.483v93.707h-37.482
		c-18.741,0-37.482,18.741-37.482,37.482v206.156c0,18.742,18.741,37.483,37.482,37.483H6350.23
		c18.741,0,37.482-18.742,37.482-37.483v-206.156c0-18.741-18.742-37.482-37.482-37.482h-43.73v-93.707
		c0-18.742-18.741-37.483-37.482-37.483h-56.226V2242.727c12.494,0,18.742-12.494,24.989-18.741l99.954-212.403h31.235
		c18.742,0,37.483-18.741,37.483-37.482v-118.696C6400.207,1824.168,6387.713,1811.673,6362.724,1811.673z M6325.241,1886.639v43.73
		H6306.5h-599.727h-18.741v-43.73H6325.241L6325.241,1886.639z M5806.728,4123.118h-18.741v-43.729
		c0-18.742-18.742-37.482-37.483-37.482h-99.954v-168.674c0-18.741-18.741-37.482-37.482-37.482H1196.332
		c-18.742,0-37.483,18.741-37.483,37.482v168.673h-93.707c-18.741,0-37.483,18.741-37.483,37.483v43.729h-24.988V2242.727
		c12.494,0,18.741-12.494,24.988-18.741l99.955-212.403h24.988c18.741,0,37.482-18.741,37.482-37.482v-81.213h4416.734v81.213
		c0,18.741,18.742,37.482,37.483,37.482h31.235l99.954,212.403c6.247,12.494,12.494,18.741,24.989,18.741v1880.392H5806.728z
		 M5575.583,4041.905H1233.814v-131.19H5581.83v131.19H5575.583z M1196.332,4116.871h4422.981h93.707v131.19H1102.624v-131.19
		H1196.332z M5075.812,1099.498l-1124.487,712.175h-1599.27L4276.176,593.479L5075.812,1099.498z M5650.549,1811.673H4020.043
		l1087.004-687.187l1087.004,687.187H5650.549z M3457.8,74.966l780.894,493.524L2283.336,1811.673H1152.602H715.301L3457.8,74.966z
		 M477.909,1886.639h112.449h531.007v43.73h-18.741H496.65h-18.741V1886.639z M559.122,2005.335h481.03l-74.965,162.426l0,0h-331.1
		l0,0L559.122,2005.335z M671.571,2242.727h256.133v1880.392H671.571V2242.727z M571.617,4198.084h56.224h337.347h56.224v56.225
		H571.617V4198.084z M6312.747,4460.465H496.65v-131.19h37.483h524.761h4685.361h524.761h43.73V4460.465z M6231.534,4254.309
		h-449.795v-56.225h56.225h331.1h56.224v56.225H6231.534z M5881.693,4123.118V2242.727h256.133v1880.392H5881.693z
		 M6175.31,2167.761L6175.31,2167.761h-331.099l0,0l-74.966-162.426h481.03L6175.31,2167.761z"/>
	<polygon fill="#666666" points="1514.936,2867.441 1377.499,2867.441 1377.499,2286.457 1196.332,2286.457 1196.332,3635.841 
		1377.499,3635.841 1377.499,2961.148 1514.936,2961.148 1514.936,3635.841 1696.104,3635.841 1696.104,2286.457 1514.936,2286.457 
			"/>
	<polygon fill="#666666" points="5313.203,3373.461 5313.203,2292.704 5125.789,2292.704 5125.789,3623.347 5313.203,3623.347 
		5481.876,2542.59 5481.876,3623.347 5669.291,3623.347 5669.291,2292.704 5481.876,2292.704 	"/>
	<path fill="#666666" d="M2177.134,2286.457h-93.707c-124.942,0-231.145,106.201-231.145,231.145v874.601
		c0,124.942,106.202,231.145,231.145,231.145h93.707c124.943,0,231.145-106.202,231.145-231.145v-874.601
		C2408.278,2392.658,2308.324,2286.457,2177.134,2286.457z M2227.111,3454.674c0,43.729-37.482,74.966-74.966,74.966h-31.235
		c-43.73,0-74.967-37.483-74.967-74.966V2455.13c0-43.73,37.483-74.966,74.967-74.966h31.235c43.729,0,74.966,37.482,74.966,74.966
		V3454.674z"/>
	<path fill="#666666" d="M2876.814,2286.457h-99.954c-124.942,0-231.145,106.201-231.145,231.145v874.601
		c0,124.942,106.202,231.145,231.145,231.145h93.707c124.943,0,231.145-106.202,231.145-231.145v-206.156h-181.167v268.628
		c0,43.729-37.482,74.966-74.966,74.966h-31.235c-43.73,0-74.967-37.483-74.967-74.966V2455.13c0-43.73,37.482-74.966,74.967-74.966
		h31.235c43.729,0,74.966,37.482,74.966,74.966v231.145h181.167v-174.92C3101.712,2386.411,3001.758,2286.457,2876.814,2286.457z"/>
	<path fill="#666666" d="M4769.701,2286.457h-93.707c-124.943,0-231.145,106.201-231.145,231.145v874.601
		c0,124.942,106.201,231.145,231.145,231.145h93.707c124.943,0,231.145-106.202,231.145-231.145v-874.601
		C5000.846,2392.658,4900.891,2286.457,4769.701,2286.457z M4819.678,3454.674c0,43.729-37.482,74.966-74.965,74.966h-31.236
		c-43.73,0-74.965-37.483-74.965-74.966V2455.13c0-43.73,37.482-74.966,74.965-74.966h31.236c43.729,0,74.965,37.482,74.965,74.966
		V3454.674z"/>
	<polygon fill="#666666" points="3314.115,2286.457 3151.689,2286.457 3151.689,2380.164 3314.115,2380.164 3314.115,3635.841 
		3495.283,3635.841 3495.283,2380.164 3657.709,2380.164 3657.709,2286.457 3495.283,2286.457 	"/>
	<path fill="#666666" d="M4063.773,2286.457h-74.967h-24.988h-162.426v1336.89h187.414v-499.772h74.967
		c124.942,0,231.145-106.201,231.145-231.145v-381.075C4294.918,2386.411,4188.716,2286.457,4063.773,2286.457z M4107.503,2948.654
		c0,43.73-37.482,74.966-74.966,74.966h-43.73v-649.703h43.73c43.73,0,74.966,37.482,74.966,74.966V2948.654z"/>
	<path fill="#666666" d="M5338.191,2205.244h93.707c99.955,0,181.168-62.472,212.403-149.933h-168.673
		c-6.247,31.236-37.482,56.225-74.966,56.225h-31.235c-37.482,0-62.472-24.988-74.966-56.225h-174.92
		C5150.777,2142.772,5238.237,2205.244,5338.191,2205.244z"/>
</g>
</svg>
