<?xml version="1.0" encoding="utf-8"?>
<!-- Generator: Adobe Illustrator 15.0.0, SVG Export Plug-In . SVG Version: 6.00 Build 0)  -->
<!DOCTYPE svg PUBLIC "-//W3C//DTD SVG 1.1//EN" "http://www.w3.org/Graphics/SVG/1.1/DTD/svg11.dtd">
<svg version="1.1" id="Слой_1" xmlns="http://www.w3.org/2000/svg" xmlns:xlink="http://www.w3.org/1999/xlink" x="0px" y="0px"
	 width="6803.15px" height="4535.43px" viewBox="0 0 6803.15 4535.43" enable-background="new 0 0 6803.15 4535.43"
	 xml:space="preserve">
<g>
	<path fill="#666666" d="M2828.18,2750.575c0-120.715-8.623-232.808-25.867-344.9V43.112l0,0c0,0,0,0,0-8.622c0,0,0,0,0-8.623l0,0
		l0,0l0,0l0,0c0,0,0,0-8.623,0c0,0,0,0-8.622,0l0,0H370.77C258.677,8.623,155.207,0,51.737,0C25.87,0,0.002,25.867,0.002,51.735
		c0,17.245,8.623,34.49,25.868,43.113v2672.972v474.237c-17.245,68.98-25.868,129.338-25.868,189.695l0,0l0,0
		c0,77.603,8.623,155.204,25.868,232.807v793.27l0,0c0,0,0,0,0,8.622c0,0,0,0,0,8.623l0,0l0,0l0,0l0,0h8.623h793.27
		c68.979,17.245,146.582,25.867,224.185,25.867c0,0,0,0,8.622,0c103.471,0,198.317-8.622,301.787-25.867h1405.467h8.622l0,0
		c0,0,8.622,0,8.622-8.623l0,0l0,0c0,0,0,0,0-8.622c0,0,0,0,0-8.622l0,0V3078.229c17.245-103.47,25.867-206.939,25.867-310.409
		C2828.18,2759.197,2828.18,2750.575,2828.18,2750.575z M319.034,2966.137l258.675,155.205
		c-43.112,43.112-60.357,94.848-60.357,155.205c0,51.734,17.245,103.47,51.735,129.337H103.472
		C112.095,3233.435,189.697,3078.229,319.034,2966.137z M2112.513,1077.812L1086.436,2741.952l0,0H862.252
		c-43.113-17.245-94.848-25.867-146.583-25.867l0,0l0,0c-68.979,0-129.337,8.622-189.694,25.867H77.604V103.47
		C896.741,112.092,1629.652,491.482,2112.513,1077.812z M646.689,3198.944c8.622-8.622,17.244-8.622,25.867-8.622l25.867,17.244
		v172.45v8.622c-34.49-8.622-77.603-43.112-77.603-103.47C620.821,3242.057,629.444,3216.189,646.689,3198.944z M758.781,3242.057
		c0,8.622,0,17.245,8.623,25.867l-17.245,25.867v-60.357L758.781,3242.057z M810.517,3293.792c8.622,0,17.245,0,25.867-8.622
		l86.226,51.734c-43.113,25.867-94.848,43.112-163.828,51.734L810.517,3293.792z M862.252,3242.057c0-8.622,0-17.245,0-34.49
		l34.489-51.734h129.337c-8.622,34.49-17.244,94.847-68.979,146.582L862.252,3242.057z M922.609,3104.097l68.979-112.092
		c17.245,34.49,25.867,77.603,34.489,112.092H922.609z M862.252,3104.097h-68.98c-8.623-8.622-25.867-17.245-43.112-17.245v-267.297
		c86.225,8.622,163.827,51.735,215.562,120.715L862.252,3104.097z M957.099,2793.688h94.848l-34.49,51.734
		C1000.211,2828.177,982.967,2810.932,957.099,2793.688z M1008.834,3397.262l25.867,17.245h-51.734
		C991.589,3405.884,1000.211,3397.262,1008.834,3397.262z M1043.324,3354.149c0-8.622,8.622-8.622,8.622-17.245v25.867
		L1043.324,3354.149z M1051.946,2888.534L1051.946,2888.534L1051.946,2888.534
		C1051.946,2897.157,1051.946,2888.534,1051.946,2888.534z M2147.002,1120.924c353.523,448.37,569.085,1008.832,577.707,1629.651
		H1146.793L2147.002,1120.924z M396.637,2793.688c-43.112,25.867-86.225,51.734-120.715,77.603l-129.337-77.603H396.637z
		 M698.424,2819.555v258.675c-25.867,0-51.734,8.622-68.979,17.245L370.77,2931.647
		C456.994,2871.29,569.087,2828.177,698.424,2819.555z M629.444,3466.241c0,0,8.622,0,8.622,8.623l-336.277,551.839
		c-112.092-155.204-189.694-344.899-189.694-560.462H629.444z M689.802,3483.486c8.622,0,25.867,0,34.489,0
		c60.357,0,120.715-8.622,163.828-25.867h163.827v948.475c-293.165-8.623-551.84-137.96-724.29-344.9L689.802,3483.486z
		 M1103.682,4414.716v-957.097l982.963,612.196C1819.348,4276.756,1474.448,4406.093,1103.682,4414.716z M1103.682,3397.262
		v-155.205c17.244-60.357,17.244-112.092,17.244-112.092c0-43.112-8.622-86.225-17.244-129.338v-189.694l8.622-8.622h1612.405
		c-8.621,500.104-241.43,939.851-594.951,1241.638L1103.682,3397.262z M2207.359,1026.076l551.84-888.116v1991.796
		C2655.729,1715.876,2466.035,1345.108,2207.359,1026.076z M2733.332,68.98L2172.87,982.964
		C1793.48,534.595,1267.508,206.94,672.557,68.98H2733.332z M77.604,2819.555l155.205,94.848
		c-60.357,60.357-112.093,129.337-155.205,198.317V2819.555L77.604,2819.555z M241.432,4112.929L77.604,4371.604v-534.595
		C120.717,3940.479,172.452,4035.326,241.432,4112.929z M94.85,4440.583l172.45-284.542
		c112.092,120.715,250.052,224.185,405.257,284.542H94.85z M2181.492,4130.174l508.727,319.032H1595.163
		C1810.726,4371.604,2009.043,4268.133,2181.492,4130.174z M2750.577,4423.338l-525.972-327.654
		c241.43-206.94,431.124-491.482,525.972-801.892V4423.338z"/>
	<polygon fill="#666666" points="3543.846,1060.566 3940.48,1060.566 3940.48,1888.325 4233.646,1888.325 4233.646,25.867 
		3940.48,25.867 3940.48,801.892 3543.846,801.892 3543.846,25.867 3250.682,25.867 3250.682,1888.325 3543.846,1888.325 	"/>
	<path fill="#666666" d="M5026.914,1922.815c388.013,0,543.218-422.502,543.218-965.719C5570.132,422.502,5406.305,0,5026.914,0
		c-388.012,0-543.217,422.502-543.217,957.097C4483.697,1500.313,4638.902,1922.815,5026.914,1922.815z M5026.914,258.675
		c181.072,0,241.431,310.409,241.431,707.044c0,388.013-60.358,707.045-241.431,707.045s-241.43-319.032-241.43-707.045
		C4785.484,569.084,4845.842,258.675,5026.914,258.675z"/>
	<polygon fill="#666666" points="5828.807,25.867 5828.807,1888.325 6113.349,1888.325 6113.349,284.542 6509.983,284.542 
		6509.983,1888.325 6803.148,1888.325 6803.148,25.867 	"/>
	<polygon fill="#666666" points="3423.131,2905.779 3423.131,2560.88 3380.02,2560.88 3380.02,2716.085 3302.416,2716.085 
		3302.416,2560.88 3259.304,2560.88 3259.304,2905.779 3302.416,2905.779 3302.416,2750.575 3380.02,2750.575 3380.02,2905.779 	"/>
	<path fill="#666666" d="M3535.224,2905.779h43.112l17.245-77.603h77.603l17.245,77.603h43.112l-68.979-344.899h-43.112
		L3535.224,2905.779z M3664.561,2793.688h-60.357l34.49-189.695L3664.561,2793.688z"/>
	<polygon fill="#666666" points="4026.705,2974.76 4026.705,2871.29 4000.838,2871.29 4000.838,2560.88 3957.727,2560.88 
		3957.727,2871.29 3871.501,2871.29 3871.501,2560.88 3837.011,2560.88 3837.011,2905.779 3992.216,2905.779 3992.216,2974.76 	"/>
	<polygon fill="#666666" points="4190.533,2560.88 4156.043,2560.88 4156.043,2905.779 4190.533,2905.779 4276.758,2655.728 
		4276.758,2905.779 4319.87,2905.779 4319.87,2560.88 4276.758,2560.88 4190.533,2810.932 	"/>
	<path fill="#666666" d="M4544.055,2914.402c68.98,0,94.848-77.603,94.848-181.072c0-94.848-25.867-181.072-94.848-181.072
		c-68.979,0-94.847,77.602-94.847,181.072C4449.207,2836.8,4475.075,2914.402,4544.055,2914.402z M4544.055,2586.747
		c34.49,0,51.735,68.98,51.735,146.583s-17.245,146.582-51.735,146.582s-51.734-68.979-51.734-146.582
		S4500.943,2586.747,4544.055,2586.747z"/>
	<polygon fill="#666666" points="4802.73,2750.575 4888.955,2750.575 4888.955,2905.779 4932.067,2905.779 4932.067,2560.88 
		4888.955,2560.88 4888.955,2716.085 4802.73,2716.085 4802.73,2560.88 4768.24,2560.88 4768.24,2905.779 4802.73,2905.779 	"/>
	<path fill="#666666" d="M5113.14,2560.88l-68.979,344.899h43.111l17.246-77.603h68.979l17.245,77.603h43.112l-68.979-344.899
		H5113.14z M5104.518,2793.688l34.49-189.695l34.49,189.695H5104.518z"/>
	<path fill="#666666" d="M5509.774,2905.779V2560.88h-129.338l-8.622,189.695c-8.622,112.092-25.867,129.337-51.734,129.337v34.49
		c43.112,0,77.603-17.245,86.225-163.827l8.622-155.205h51.735v310.41L5509.774,2905.779L5509.774,2905.779z"/>
	<path fill="#666666" d="M5725.337,2698.84h-34.49v-137.96h-43.112v344.899h68.979c60.357,0,86.226-51.734,86.226-103.47
		C5802.939,2750.575,5785.693,2698.84,5725.337,2698.84z M5716.714,2871.29h-25.867v-137.96h25.867
		c34.49,0,43.113,25.867,43.113,68.979C5768.449,2845.422,5751.204,2871.29,5716.714,2871.29z"/>
	<polygon fill="#666666" points="6096.104,2905.779 6096.104,2560.88 6052.991,2560.88 6052.991,2716.085 5975.389,2716.085 
		5975.389,2560.88 5932.276,2560.88 5932.276,2905.779 5975.389,2905.779 5975.389,2750.575 6052.991,2750.575 6052.991,2905.779 	
		"/>
	<path fill="#666666" d="M6320.289,2914.402c68.979,0,94.847-77.603,94.847-181.072c0-94.848-25.867-181.072-94.847-181.072
		c-68.98,0-94.848,77.602-94.848,181.072C6234.063,2836.8,6259.931,2914.402,6320.289,2914.402z M6320.289,2586.747
		c34.489,0,51.734,68.98,51.734,146.583s-17.245,146.582-51.734,146.582c-34.49,0-51.735-68.979-51.735-146.582
		C6268.553,2655.728,6285.799,2586.747,6320.289,2586.747z"/>
	<polygon fill="#666666" points="6673.811,2595.37 6673.811,2560.88 6544.474,2560.88 6544.474,2905.779 6673.811,2905.779 
		6673.811,2871.29 6587.586,2871.29 6587.586,2750.575 6673.811,2750.575 6673.811,2716.085 6587.586,2716.085 6587.586,2595.37 	
		"/>
	<path fill="#666666" d="M3336.906,3336.904c-68.979,0-94.848,77.603-94.848,181.072c0,94.848,25.868,181.072,94.848,181.072
		c68.98,0,94.848-77.603,94.848-181.072S3405.887,3336.904,3336.906,3336.904z M3336.906,3655.937
		c-34.49,0-51.734-68.979-51.734-146.582s8.622-146.583,51.734-146.583c34.49,0,51.734,68.98,51.734,146.583
		C3388.641,3595.579,3380.02,3655.937,3336.906,3655.937z"/>
	<path fill="#666666" d="M3750.786,3586.956c0-51.734-25.868-103.47-86.226-103.47h-34.49v-103.47h94.848v-34.49h-137.959v344.899
		h68.979C3724.918,3690.426,3750.786,3638.691,3750.786,3586.956z M3664.561,3655.937h-25.867v-137.96h25.867
		c34.49,0,43.113,25.867,43.113,68.98C3716.296,3621.446,3699.051,3655.937,3664.561,3655.937z"/>
	<path fill="#666666" d="M4018.083,3483.486h-34.49v-137.959h-94.847v34.489h51.734v310.41h68.98
		c60.357,0,86.225-51.735,86.225-103.47C4095.686,3526.6,4069.818,3483.486,4018.083,3483.486z M4009.461,3655.937h-25.867v-137.96
		h25.867c34.49,0,43.112,25.867,43.112,68.98C4061.195,3621.446,4043.951,3655.937,4009.461,3655.937z"/>
	<polygon fill="#666666" points="4388.851,3371.395 4388.851,3336.904 4259.514,3336.904 4259.514,3690.426 4388.851,3690.426 
		4388.851,3655.937 4302.625,3655.937 4302.625,3526.6 4388.851,3526.6 4388.851,3492.109 4302.625,3492.109 4302.625,3371.395 	"/>
	<path fill="#666666" d="M4716.505,3336.904h-129.337l-8.623,181.072c-8.622,120.715-25.867,129.337-51.734,129.337v94.848h43.112
		v-60.357h137.96v60.357h43.111v-94.848h-34.489V3336.904z M4682.016,3655.937h-94.848c17.244-17.245,25.867-60.357,34.49-129.337
		l8.622-155.205h51.735V3655.937z"/>
	<polygon fill="#666666" points="5070.027,3690.426 5070.027,3336.904 5035.537,3336.904 4949.313,3586.956 4949.313,3336.904 
		4906.2,3336.904 4906.2,3690.426 4949.313,3690.426 5035.537,3440.374 5035.537,3690.426 	"/>
	<polygon fill="#666666" points="5371.814,3492.109 5294.212,3492.109 5294.212,3336.904 5251.1,3336.904 5251.1,3690.426 
		5294.212,3690.426 5294.212,3526.6 5371.814,3526.6 5371.814,3690.426 5414.927,3690.426 5414.927,3336.904 5371.814,3336.904 	"/>
	<polygon fill="#666666" points="5725.337,3655.937 5630.489,3655.937 5630.489,3526.6 5716.714,3526.6 5716.714,3492.109 
		5630.489,3492.109 5630.489,3371.395 5725.337,3371.395 5725.337,3336.904 5595.999,3336.904 5595.999,3690.426 5725.337,3690.426 
			"/>
	<polygon fill="#666666" points="6018.502,3492.109 5932.276,3492.109 5932.276,3336.904 5889.164,3336.904 5889.164,3690.426 
		5932.276,3690.426 5932.276,3526.6 6018.502,3526.6 6018.502,3690.426 6052.991,3690.426 6052.991,3336.904 6018.502,3336.904 	"/>
	<polygon fill="#666666" points="6354.778,3690.426 6397.891,3690.426 6397.891,3336.904 6354.778,3336.904 6277.176,3586.956 
		6277.176,3336.904 6234.063,3336.904 6234.063,3690.426 6268.553,3690.426 6354.778,3440.374 	"/>
	<polygon fill="#666666" points="6578.964,3690.426 6708.301,3690.426 6708.301,3655.937 6613.453,3655.937 6613.453,3526.6 
		6699.678,3526.6 6699.678,3492.109 6613.453,3492.109 6613.453,3371.395 6708.301,3371.395 6708.301,3336.904 6578.964,3336.904 	
		"/>
	<polygon fill="#666666" points="3259.304,4466.45 3302.416,4466.45 3302.416,4156.041 3380.02,4156.041 3380.02,4466.45 
		3423.131,4466.45 3423.131,4121.551 3259.304,4121.551 	"/>
	<path fill="#666666" d="M3569.714,4121.551h-68.979v344.899h34.489v-137.96h34.49c60.357,0,86.225-51.734,86.225-103.47
		C3655.938,4164.663,3630.07,4121.551,3569.714,4121.551z M3569.714,4294.001h-34.49v-137.96h25.868
		c34.489,0,43.111,25.867,43.111,68.979C3612.826,4268.133,3595.581,4294.001,3569.714,4294.001z"/>
	<path fill="#666666" d="M3793.898,4112.929c-68.98,0-94.848,77.603-94.848,181.072c0,94.847,25.867,181.072,94.848,181.072
		s94.848-77.603,94.848-181.072C3880.123,4199.153,3862.879,4112.929,3793.898,4112.929z M3793.898,4440.583
		c-34.49,0-51.734-68.979-51.734-146.582s8.622-146.583,51.734-146.583c34.49,0,51.734,68.98,51.734,146.583
		S3828.389,4440.583,3793.898,4440.583z"/>
	<polygon fill="#666666" points="3949.104,4466.45 4078.44,4466.45 4078.44,4431.961 3992.216,4431.961 3992.216,4311.246 
		4078.44,4311.246 4078.44,4268.133 3992.216,4268.133 3992.216,4156.041 4078.44,4156.041 4078.44,4121.551 3949.104,4121.551 	"/>
	<polygon fill="#666666" points="4319.87,4121.551 4276.758,4121.551 4190.533,4302.623 4190.533,4121.551 4147.42,4121.551 
		4147.42,4466.45 4190.533,4466.45 4190.533,4362.98 4207.777,4319.868 4285.381,4466.45 4328.493,4466.45 4233.646,4285.378 	"/>
	<polygon fill="#666666" points="4354.36,4156.041 4406.096,4156.041 4406.096,4466.45 4449.207,4466.45 4449.207,4156.041 
		4500.943,4156.041 4500.943,4121.551 4354.36,4121.551 	"/>
	<polygon fill="#666666" points="4595.79,4362.98 4595.79,4121.551 4561.301,4121.551 4561.301,4466.45 4595.79,4466.45 
		4682.016,4216.398 4682.016,4466.45 4716.505,4466.45 4716.505,4121.551 4682.016,4121.551 	"/>
	<path fill="#666666" d="M4871.71,4121.551h-68.979v344.899h43.111v-137.96h34.49c60.357,0,86.226-51.734,86.226-103.47
		C4949.313,4164.663,4923.445,4121.551,4871.71,4121.551z M4863.088,4294.001h-25.867v-137.96h25.867
		c34.49,0,43.112,25.867,43.112,68.979C4914.822,4268.133,4897.577,4294.001,4863.088,4294.001z"/>
	<path fill="#666666" d="M5095.895,4112.929c-68.98,0-94.848,77.603-94.848,181.072c0,94.847,25.867,181.072,94.848,181.072
		s94.848-77.603,94.848-181.072C5182.119,4199.153,5156.252,4112.929,5095.895,4112.929z M5095.895,4440.583
		c-34.49,0-51.734-68.979-51.734-146.582s8.622-146.583,51.734-146.583c34.49,0,51.734,68.98,51.734,146.583
		C5139.007,4371.604,5130.385,4440.583,5095.895,4440.583z"/>
	<path fill="#666666" d="M5354.569,4285.378c25.867-8.622,43.112-34.489,43.112-77.603c0-51.734-25.867-86.225-77.603-86.225
		h-77.603v344.899h77.603c51.735,0,77.603-34.489,77.603-94.847C5406.305,4328.49,5389.06,4294.001,5354.569,4285.378z
		 M5294.212,4156.041h25.867c34.49,0,43.113,25.867,43.113,60.357s-8.623,60.357-43.113,60.357h-25.867V4156.041z
		 M5320.079,4431.961h-34.489v-120.715h34.489c34.49,0,43.113,25.867,43.113,60.357
		C5363.192,4406.093,5354.569,4431.961,5320.079,4431.961z"/>
	<polygon fill="#666666" points="5733.959,4121.551 5699.469,4121.551 5699.469,4431.961 5621.866,4431.961 5621.866,4121.551 
		5587.377,4121.551 5587.377,4431.961 5509.774,4431.961 5509.774,4121.551 5475.284,4121.551 5475.284,4466.45 5725.337,4466.45 
		5725.337,4535.431 5768.449,4535.431 5768.449,4431.961 5733.959,4431.961 	"/>
	<polygon fill="#666666" points="5863.297,4362.98 5863.297,4121.551 5820.184,4121.551 5820.184,4466.45 5863.297,4466.45 
		5949.521,4216.398 5949.521,4466.45 5984.012,4466.45 5984.012,4121.551 5949.521,4121.551 	"/>
	<polygon fill="#666666" points="6234.063,4121.551 6190.951,4121.551 6104.727,4302.623 6104.727,4121.551 6061.614,4121.551 
		6061.614,4466.45 6104.727,4466.45 6104.727,4362.98 6121.971,4319.868 6199.573,4466.45 6242.687,4466.45 6147.839,4285.378 	"/>
	<path fill="#666666" d="M6363.401,4112.929c-68.98,0-94.848,77.603-94.848,181.072c0,94.847,25.868,181.072,94.848,181.072
		c68.98,0,94.847-77.603,94.847-181.072C6449.626,4199.153,6432.381,4112.929,6363.401,4112.929z M6363.401,4440.583
		c-34.49,0-51.735-68.979-51.735-146.582s8.623-146.583,51.735-146.583c34.49,0,51.734,68.98,51.734,146.583
		S6397.891,4440.583,6363.401,4440.583z"/>
	<path fill="#666666" d="M6622.076,4285.378c25.867-8.622,43.112-34.489,43.112-77.603c0-51.734-25.868-86.225-77.603-86.225
		h-77.603v344.899h77.603c51.734,0,77.603-34.489,77.603-94.847C6673.811,4328.49,6656.565,4294.001,6622.076,4285.378z
		 M6561.718,4156.041h25.868c34.49,0,43.112,25.867,43.112,60.357s-8.622,60.357-43.112,60.357h-25.868V4156.041z
		 M6587.586,4431.961h-34.49v-120.715h34.49c34.49,0,43.112,25.867,43.112,60.357
		C6639.32,4406.093,6622.076,4431.961,6587.586,4431.961z"/>
</g>
</svg>
