<?xml version="1.0" encoding="utf-8"?>
<!-- Generator: Adobe Illustrator 15.0.0, SVG Export Plug-In . SVG Version: 6.00 Build 0)  -->
<!DOCTYPE svg PUBLIC "-//W3C//DTD SVG 1.1//EN" "http://www.w3.org/Graphics/SVG/1.1/DTD/svg11.dtd">
<svg version="1.1" id="Слой_1" xmlns="http://www.w3.org/2000/svg" xmlns:xlink="http://www.w3.org/1999/xlink" x="0px" y="0px"
	 width="6803.15px" height="4535.43px" viewBox="0 0 6803.15 4535.43" enable-background="new 0 0 6803.15 4535.43"
	 xml:space="preserve">
<g>
	<polygon fill="#666666" points="2210.943,4003.377 1925.451,4003.377 1925.451,3724.373 1685.379,3724.373 1685.379,4515.965 
		1925.451,4515.965 1925.451,4211.008 2210.943,4211.008 2210.943,4515.965 2451.017,4515.965 2451.017,3724.373 2210.943,3724.373 
			"/>
	<path fill="#666666" d="M3002.535,3711.396c-246.561,0-434.727,168.699-434.727,408.772c0,246.562,188.166,408.772,434.727,408.772
		c246.562,0,434.727-168.699,434.727-408.772C3437.262,3873.607,3242.607,3711.396,3002.535,3711.396z M3002.535,4321.311
		c-116.792,0-188.165-90.838-188.165-201.142s77.862-201.142,188.165-201.142c116.793,0,188.166,90.838,188.166,201.142
		C3190.7,4230.473,3112.839,4321.311,3002.535,4321.311z"/>
	<polygon fill="#666666" points="3787.639,4146.123 3787.639,3724.373 3547.565,3724.373 3547.565,4515.965 3781.15,4515.965 
		4073.131,4068.262 4073.131,4515.965 4313.203,4515.965 4313.203,3724.373 4066.643,3724.373 	"/>
	<path fill="#666666" d="M4949.072,4107.192c103.814-19.466,175.188-90.839,175.188-175.188
		c0-129.77-123.28-220.607-343.888-220.607c-155.724,0-272.515,51.907-343.888,129.769l110.303,149.234
		c51.908-45.419,136.258-71.373,207.631-71.373c77.861,0,129.77,12.978,129.77,51.908c0,25.954-45.42,38.931-123.281,38.931
		h-162.211v207.63h162.211c110.305,0,136.258,12.977,136.258,45.419c0,25.954-45.42,51.908-129.77,51.908
		c-58.396,0-168.699-19.466-227.096-77.861l-116.792,162.211c64.885,71.373,201.142,123.281,356.865,123.281
		c207.63,0,356.865-97.327,356.865-240.072C5137.237,4185.054,5033.422,4120.169,4949.072,4107.192z"/>
	<path fill="#666666" d="M5299.448,3484.301L5299.448,3484.301c149.235-291.98,227.097-616.403,227.097-947.314
		c0-415.262-123.281-804.568-330.912-1135.48c0-6.488-6.488-12.977-6.488-12.977l0,0
		c-155.723-240.073-363.354-447.703-596.938-609.915c0,0,0-6.488-6.488-6.488c0,0-6.488,0-6.488-6.488
		c-266.027-175.188-570.984-291.98-901.895-330.911c0,0,0,0-6.488,0c-84.351-12.977-168.701-12.977-253.051-12.977
		c-155.723,0-304.957,19.465-454.191,51.907h-6.488c-337.4,77.861-642.357,233.584-901.896,447.703c0,0-6.489,0-6.489,6.488
		c0,0-6.488,6.489-12.977,12.978c-58.396,51.907-110.304,97.326-162.211,155.723c-12.977,12.977-19.465,19.465-19.465,19.465
		s0,0,0,6.489c-266.027,298.469-454.192,668.311-519.077,1077.083l0,0v6.488c-19.466,110.304-25.954,220.607-25.954,330.911
		c0,389.308,103.815,765.638,304.957,1090.061c12.978,19.466,32.443,25.954,51.908,12.978
		c19.465-12.978,25.954-32.442,12.977-51.908c-19.465-25.954-32.441-51.907-45.418-84.35
		c6.488-45.419,25.953-214.119,97.326-447.703c38.931,45.419,90.838,90.838,142.746,136.257
		c233.584,214.119,434.727,330.911,564.496,389.308c0,38.931,0,64.885,12.977,71.373c6.488,6.488,12.977,6.488,19.465,6.488
		c12.977,0,19.466-6.488,32.442-12.978c6.489-6.488,6.489-19.465,6.489-32.442c38.93,19.466,64.884,25.954,71.373,25.954
		c6.488,0,6.488,0,12.977,0c12.977,0,32.441-12.977,32.441-25.954c6.489-19.465-6.488-38.93-25.953-45.419
		c0,0-32.442-6.488-84.35-32.442c25.953-136.257,97.326-428.237,279.004-830.521c356.865,201.142,726.707,304.957,1070.595,337.399
		c-71.373,330.911-149.234,545.03-149.234,545.03c-6.489,19.465,0,38.931,19.466,45.419c6.488,0,6.488,0,12.977,0
		c12.977,0,32.441-6.488,32.441-25.954c0-6.488,77.862-220.607,155.724-564.495c71.373,6.488,136.257,6.488,207.63,6.488
		c220.608,0,415.262-25.954,570.984-71.373c181.678-51.908,324.424-116.792,428.238-188.165
		c97.327,350.376,110.304,609.914,110.304,655.334c-19.466,45.419-45.419,84.35-71.373,129.769
		c-12.977,19.466-6.488,38.931,12.977,51.907c6.488,6.488,12.978,6.488,19.466,6.488c12.977,0,25.954-6.488,32.442-19.465
		C5247.541,3581.627,5273.495,3529.72,5299.448,3484.301z M1393.398,2212.563c58.396-382.819,233.584-733.196,473.657-1012.199
		c-25.954,71.373-45.419,155.723-45.419,246.562c-6.488,220.607,77.861,441.215,253.049,668.311
		c-194.652,272.516-317.934,551.519-395.795,791.592c-136.258-168.7-207.631-317.935-240.073-428.238
		C1386.91,2335.844,1393.398,2238.517,1393.398,2212.563z M2963.604,545.03c45.419,6.488,291.98,58.396,694.265,330.911
		c-233.584-51.907-493.123-90.838-785.104-97.327c-291.98-6.488-512.588,45.42-674.799,110.304
		C2425.063,726.707,2684.602,603.427,2963.604,545.03z M5396.775,2069.817c-84.35-136.258-214.119-324.423-408.772-512.588
		c-181.677-175.188-441.215-363.354-798.08-512.588c38.931,6.488,77.861,6.488,116.792,12.977
		c460.68,77.861,772.126,330.911,817.546,376.331C5247.541,1628.603,5338.379,1842.722,5396.775,2069.817z M1893.01,1446.926
		c6.488-168.7,64.885-298.469,123.28-382.819c142.746-90.838,428.237-220.607,862.964-207.63
		c337.4,6.488,635.869,51.907,895.407,123.28c-622.892,90.838-1135.479,499.61-1479.368,875.941
		c-58.396,64.885-116.791,129.769-168.699,201.142C1964.383,1849.21,1893.01,1648.067,1893.01,1446.926z M2340.713,1901.117
		c454.191-486.634,934.338-772.126,1420.972-849.987c-103.815,97.327-214.119,220.607-330.911,382.818
		c-324.423,441.215-545.03,843.499-694.266,1161.434c-162.211-97.326-317.934-220.607-460.68-369.842
		c-38.931-38.931-71.373-77.861-103.815-116.792C2223.92,2043.863,2275.828,1972.49,2340.713,1901.117z M5403.264,2251.494
		c-12.977,116.792-58.396,279.003-246.562,428.238c-136.257-415.262-389.308-940.826-895.407-1407.995
		c-84.35-77.861-162.211-142.746-233.584-207.631C4923.118,1395.018,5299.448,2024.398,5403.264,2251.494z M4981.514,1239.295
		c-149.234-90.838-376.33-207.631-661.822-253.05c-110.304-19.465-214.119-25.954-324.422-25.954
		c304.957-207.63,499.61-142.746,538.541-123.28C4702.51,947.314,4858.233,1083.572,4981.514,1239.295z M3917.407,921.36
		c-58.396-194.653-129.769-330.911-175.188-402.284c227.096,38.931,441.215,110.304,635.869,214.119
		C4261.295,739.684,4105.572,785.104,3917.407,921.36z M3638.404,506.1c25.953,38.931,116.792,162.211,194.653,395.796
		c-311.446-233.585-545.03-343.889-694.265-395.796c90.838-12.977,175.188-19.466,266.026-19.466
		C3489.17,493.123,3560.543,499.611,3638.404,506.1z M1555.609,3386.974c-123.28-266.026-188.165-558.007-188.165-856.477
		c0-6.488,0-12.977,0-12.977c45.419,129.77,129.77,291.98,285.492,473.657C1601.029,3159.878,1568.587,3296.135,1555.609,3386.974z
		 M2580.785,2978.201c-51.907,136.258-129.769,369.842-155.723,532.053c-123.28-64.884-311.445-175.188-525.564-369.842
		c-64.885-58.396-116.793-110.304-162.211-162.211c77.861-233.584,194.652-525.564,389.307-798.08
		c32.442,32.442,64.885,71.373,97.326,103.815c149.234,155.723,317.936,285.492,486.635,389.307
		C2652.158,2783.548,2613.229,2887.362,2580.785,2978.201z M2801.393,2640.802c149.234-330.911,369.842-726.707,687.777-1154.945
		c142.746-194.653,272.515-330.911,389.307-428.238c19.465,84.35,38.931,175.188,51.908,279.004
		c77.861,629.38,12.977,1226.317-71.373,1641.579C3521.611,2939.271,3151.77,2841.943,2801.393,2640.802z M4670.068,2919.805
		c-188.166,51.908-447.703,84.35-739.684,64.885c84.35-428.238,155.723-1025.176,71.372-1661.045
		c-12.977-77.861-19.466-149.234-38.931-220.607c77.861,64.885,162.211,136.258,253.051,220.607
		c499.61,473.657,752.66,992.734,882.43,1401.507C4988.002,2796.524,4851.745,2867.897,4670.068,2919.805z M5182.656,2757.594
		c149.234-110.304,220.607-233.585,259.538-343.889c0,38.931,6.488,84.351,6.488,123.281c0,272.515-51.907,538.542-155.723,785.104
		C5279.983,3192.32,5254.029,2991.178,5182.656,2757.594z"/>
	<polygon fill="#666666" points="1477.748,3951.47 1399.887,3847.654 1490.725,3782.77 1464.771,3743.839 1263.629,3893.073 
		1283.095,3925.516 1367.444,3867.119 1445.307,3977.423 1360.956,4035.819 1386.91,4068.262 1588.053,3925.516 1568.587,3886.585 	
		"/>
	<path fill="#666666" d="M1406.375,3646.512l-51.907,6.488l-51.907-103.814l32.441-38.932l-25.953-45.419l-175.188,201.143
		l25.954,51.907l266.026-25.954L1406.375,3646.512z M1192.256,3672.466l84.35-97.327l38.932,77.861L1192.256,3672.466z"/>
	<polygon fill="#666666" points="1224.699,3224.763 1270.117,3205.297 1250.652,3166.366 1172.791,3192.32 1179.279,3218.273 
		978.137,3289.646 997.603,3328.577 1192.256,3257.205 1237.676,3380.485 1043.021,3451.858 1055.999,3490.789 1289.583,3406.439 	
		"/>
	<polygon fill="#666666" points="1185.768,3069.039 978.137,2978.201 1153.326,2945.759 1146.837,2900.34 900.275,2952.247 
		913.253,2997.666 1107.906,3088.505 939.207,3120.947 945.695,3166.366 1192.256,3114.459 	"/>
	<path fill="#666666" d="M1010.58,2828.967c77.861-6.488,123.28-64.885,123.28-136.258
		c-6.489-77.861-64.885-123.281-136.258-116.792c-77.861,6.488-123.28,64.885-123.28,136.257
		C874.322,2783.548,932.718,2835.455,1010.58,2828.967z M997.603,2621.336c51.907-6.488,90.839,25.954,97.327,77.861
		c6.488,51.908-32.442,84.351-84.35,90.839c-51.908,6.488-90.839-25.954-97.327-77.861
		C906.764,2660.267,945.695,2621.336,997.603,2621.336z"/>
	<polygon fill="#666666" points="1120.883,2439.659 1010.58,2433.171 1023.557,2303.401 1127.371,2309.89 1133.86,2270.959 
		880.811,2251.494 880.811,2296.913 984.626,2303.401 971.648,2433.171 867.834,2426.683 867.834,2472.102 1120.883,2485.078 	"/>
	<path fill="#666666" d="M1153.326,2154.167l-45.42-25.954l19.465-116.792l51.908-6.488l12.977-51.907l-266.026,45.419
		l-12.977,51.907l227.096,155.724L1153.326,2154.167z M1068.976,2108.748l-110.304-64.885l123.28-19.465L1068.976,2108.748z"/>
	<path fill="#666666" d="M1172.791,1894.629l38.931,12.977c12.978-45.419,12.978-84.35-84.351-129.769l-84.35-38.931l19.466-77.861
		l201.142,71.373l12.977-45.42l-240.072-84.35l-58.396,162.211l116.793,58.396
		C1172.791,1855.698,1179.279,1875.163,1172.791,1894.629z"/>
	<path fill="#666666" d="M1367.444,1505.321c25.954-45.419,6.489-90.838-32.442-110.304c-38.931-19.465-84.35-6.488-103.814,38.931
		l-38.932,58.396l-84.35-38.931l-19.465,38.931l227.096,110.304L1367.444,1505.321z M1231.188,1511.811l25.953-51.908
		c12.977-19.465,32.442-32.442,51.908-19.465c19.465,12.977,25.953,32.441,19.465,58.396l-25.953,51.908L1231.188,1511.811z"/>
	<polygon fill="#666666" points="1464.771,1330.133 1367.444,1271.737 1445.307,1161.434 1536.145,1219.829 1555.609,1187.387 
		1347.979,1044.642 1322.025,1083.572 1412.863,1141.968 1335.002,1245.783 1250.652,1193.876 1231.188,1226.318 1438.817,1369.064 
			"/>
	<path fill="#666666" d="M1691.867,1025.176c51.908-58.396,45.42-129.769-12.977-181.677
		c-58.396-51.907-129.77-45.419-181.677,12.978c-51.907,58.396-45.419,129.769,12.977,181.676
		C1568.587,1090.061,1646.448,1083.572,1691.867,1025.176z M1529.656,882.43c32.441-38.931,84.35-38.931,123.28,0
		c38.931,32.442,45.419,84.351,12.978,123.281c-32.443,38.931-84.351,38.931-123.281,0
		C1503.702,966.779,1497.214,921.36,1529.656,882.43z"/>
	<polygon fill="#666666" points="1964.383,759.149 1938.429,733.195 1841.102,817.545 1795.683,765.638 1886.521,681.288 
		1860.567,655.334 1769.729,733.195 1724.31,687.776 1821.637,603.427 1795.683,570.984 1665.914,687.776 1834.613,875.941 	"/>
	<path fill="#666666" d="M2243.387,570.984c64.884-38.931,84.35-110.304,45.418-175.188
		c-38.93-64.885-110.303-84.351-175.188-45.419c-64.885,38.931-84.35,110.304-45.42,175.188
		C2107.129,590.449,2178.502,609.915,2243.387,570.984z M2133.082,382.818c45.42-25.953,90.838-6.488,116.793,38.932
		c25.953,45.419,19.465,97.326-25.955,123.28c-45.418,25.954-90.838,6.488-116.791-38.931
		C2081.175,460.681,2087.663,408.772,2133.082,382.818z"/>
	<path fill="#666666" d="M2528.878,428.238c45.419-19.466,58.396-64.885,45.419-103.815
		c-19.465-38.931-64.885-64.885-110.303-45.419l-58.396,25.953l-25.954-45.419l116.792-51.907l-12.977-32.442l-155.723,64.884
		l97.326,227.096L2528.878,428.238z M2476.971,317.935c25.953-12.978,45.419,0,51.907,19.465c6.488,19.466,0,45.419-25.954,51.908
		l-58.396,25.954l-32.441-71.373L2476.971,317.935z"/>
	<path fill="#666666" d="M2665.136,149.234l58.396,201.143l103.816-25.954c51.906-12.978,71.373-58.396,58.396-97.327
		s-51.907-64.884-97.327-51.907l-64.885,19.465l-25.953-90.838l-116.793,32.442l12.978,38.931L2665.136,149.234z M2788.416,214.119
		c25.954-6.488,45.42,6.488,51.908,25.954s-6.488,38.931-25.954,51.908l-58.396,19.465l-19.466-77.861L2788.416,214.119z"/>
	<polygon fill="#666666" points="3151.77,266.026 3145.281,227.096 3022,246.562 3009.023,175.188 3132.305,155.723 
		3125.816,116.792 3002.535,136.258 2996.047,71.373 3119.328,51.908 3112.839,12.977 2944.139,38.931 2983.07,291.98 	"/>
	<path fill="#666666" d="M3262.074,298.469V253.05l168.699-6.488v45.419h45.419v-84.35h-25.954L3443.75,0l-168.699,6.488
		l-12.977,129.77c-6.488,71.373-19.466,84.35-45.42,90.838v77.861L3262.074,298.469z M3307.492,136.258l6.488-90.839h84.35
		l6.489,175.188h-129.77C3294.516,201.142,3307.492,175.188,3307.492,136.258z"/>
	<polygon fill="#666666" points="3735.73,97.327 3716.266,272.515 3761.685,279.004 3787.639,32.442 3748.707,25.954 
		3599.473,181.677 3618.938,12.977 3573.52,6.488 3547.565,253.05 3586.496,259.538 	"/>
	<polygon fill="#666666" points="3923.896,201.142 4047.177,233.584 4021.223,337.399 4066.643,350.377 4125.038,103.815 
		4079.619,90.838 4060.153,194.653 3930.385,162.211 3956.338,64.885 3910.919,51.908 3852.523,291.98 3891.453,304.957 	"/>
	<polygon fill="#666666" points="4326.18,402.284 4202.899,356.865 4228.854,291.98 4345.646,337.399 4358.623,298.469 
		4241.83,253.05 4267.784,194.653 4384.576,240.073 4404.041,207.631 4241.83,142.746 4150.992,376.33 4313.203,441.215 	"/>
	<polygon fill="#666666" points="4423.507,493.123 4475.414,395.796 4592.207,460.681 4540.299,558.007 4579.23,577.473 
		4696.021,356.865 4657.092,337.399 4611.672,428.238 4494.88,363.354 4546.787,272.515 4507.857,253.05 4384.576,473.657 	"/>
	<polygon fill="#666666" points="4689.533,648.846 4903.652,583.961 4793.35,726.707 4832.279,752.661 4981.514,551.519 
		4942.584,525.564 4734.953,590.449 4838.768,447.703 4806.326,421.75 4657.092,622.892 	"/>
	<polygon fill="#666666" points="5026.934,927.85 5052.887,901.896 4962.049,817.545 5007.468,765.638 5098.307,849.987 
		5124.26,824.034 5033.422,733.195 5078.841,687.776 5169.68,778.614 5195.633,746.172 5072.353,629.38 4903.652,811.057 	"/>
	<polygon fill="#666666" points="5202.121,1128.991 5422.729,1128.991 5279.983,1232.807 5305.937,1271.737 5507.079,1122.503 
		5481.125,1083.572 5260.518,1083.572 5403.264,979.757 5377.31,947.314 5176.168,1096.549 	"/>
	<path fill="#666666" d="M5520.056,1343.11l-25.953-45.419l-32.442,19.465l25.954,45.419c19.465,32.442,19.465,58.396,0,71.373
		c-19.466,12.978-45.419,0-58.396-32.442c-12.977-25.953-19.466-58.396-6.488-77.861l-38.931-6.488
		c-12.977,25.954-6.488,64.885,12.977,103.815c25.954,51.907,77.861,71.373,110.304,51.907
		c32.442-19.465,32.442-58.396,25.954-77.861c19.465,19.466,45.419,38.931,77.861,19.466
		c38.931-19.466,38.931-71.373,12.977-116.792c-19.466-38.932-51.908-58.396-84.351-64.885l-12.977,32.442
		c25.954,6.488,45.419,25.953,58.396,45.419c12.977,25.954,19.466,51.907-6.488,64.885
		C5552.498,1388.529,5533.033,1369.064,5520.056,1343.11z"/>
	<path fill="#666666" d="M5520.056,1680.51c19.466,51.908,64.885,64.885,103.815,45.419c38.931-12.977,64.885-58.396,45.419-103.815
		l-25.954-58.396l84.351-32.442l-12.978-38.931l-240.072,84.35L5520.056,1680.51z M5604.406,1576.694l19.465,58.396
		c6.488,25.954,0,45.419-19.465,51.907c-19.466,6.488-45.42,0-51.908-25.953l-19.466-58.396L5604.406,1576.694z"/>
	
		<rect x="5553.998" y="1727.292" transform="matrix(0.9303 -0.3668 0.3668 0.9303 -245.9683 2205.5769)" fill="#666666" width="253.051" height="45.418"/>
	<path fill="#666666" d="M5714.709,1868.675c-77.861,19.466-110.303,84.351-97.326,155.724
		c12.977,51.907,45.419,71.372,77.861,84.35l12.977-38.931c-25.954-6.488-45.419-25.954-51.908-51.908
		c-12.977-45.419,19.466-90.838,64.885-103.814c51.908-12.978,97.327,12.977,110.304,64.884
		c6.488,25.954-6.488,51.908-19.466,71.373l25.954,32.442c25.954-25.954,45.419-64.885,32.442-110.304
		C5857.456,1894.629,5792.571,1849.21,5714.709,1868.675z"/>
	<polygon fill="#666666" points="5662.802,2238.517 5740.663,2232.028 5773.105,2245.006 5675.778,2342.332 5682.267,2394.24 
		5799.06,2270.959 5928.828,2361.798 5922.34,2309.89 5792.571,2225.54 5915.852,2212.563 5909.363,2167.145 5656.313,2193.098 	"/>
	<path fill="#666666" d="M5682.267,2439.659v51.907l45.42,19.466v116.792l-45.42,19.465v51.908l253.051-97.327v-51.907
		L5682.267,2439.659z M5766.617,2608.359v-90.839l116.792,45.419L5766.617,2608.359z"/>
	<polygon fill="#666666" points="5876.921,2815.989 5669.29,2790.036 5662.802,2835.455 5870.433,2861.408 5863.944,2939.271 
		5902.875,2939.271 5928.828,2744.616 5889.897,2744.616 	"/>
	<polygon fill="#666666" points="5597.917,3153.389 5636.848,3159.878 5669.29,3036.597 5734.175,3056.063 5701.732,3172.854 
		5740.663,3185.831 5773.105,3062.551 5831.502,3075.528 5805.548,3198.809 5844.479,3211.785 5883.409,3043.086 5636.848,2984.689 
			"/>
	<path fill="#666666" d="M5610.895,3231.251l-38.931-12.978c-19.466,45.42-12.978,84.35,84.35,129.77l84.351,45.419l-32.442,84.35
		l-201.143-71.372l-6.488,32.441l233.584,90.839l58.396-162.211l-116.793-58.396
		C5610.895,3270.182,5604.406,3257.205,5610.895,3231.251z"/>
	<polygon fill="#666666" points="5377.31,3672.466 5416.24,3691.932 5474.637,3575.139 5533.033,3607.581 5474.637,3717.885 
		5513.567,3737.35 5571.964,3627.047 5630.359,3659.489 5565.476,3769.792 5604.406,3789.258 5682.267,3633.535 5461.66,3516.743 	
		"/>
	<path fill="#666666" d="M5494.103,3983.912c-12.977,19.465-19.466,51.907-12.977,71.372l19.465-6.488
		c-6.488-19.465-6.488-38.931,6.488-51.907c12.978-19.466,32.442-25.954,45.419-25.954v-25.954
		C5533.033,3951.47,5507.079,3957.958,5494.103,3983.912z"/>
	<polygon fill="#666666" points="5520.056,3925.516 5546.01,3886.585 5338.379,3743.839 5312.426,3776.281 5383.798,3990.4 
		5241.053,3886.585 5215.099,3919.027 5422.729,4061.772 5448.683,4029.33 5377.31,3821.7 	"/>
</g>
</svg>
