<?xml version="1.0" encoding="utf-8"?>
<!-- Generator: Adobe Illustrator 15.0.0, SVG Export Plug-In . SVG Version: 6.00 Build 0)  -->
<!DOCTYPE svg PUBLIC "-//W3C//DTD SVG 1.1//EN" "http://www.w3.org/Graphics/SVG/1.1/DTD/svg11.dtd">
<svg version="1.1" id="Слой_1" xmlns="http://www.w3.org/2000/svg" xmlns:xlink="http://www.w3.org/1999/xlink" x="0px" y="0px"
	 width="83.125px" height="83.124px" viewBox="0 0 83.125 83.124" enable-background="new 0 0 83.125 83.124" xml:space="preserve">
<g>
	<g>
		<path fill="#666666" d="M41.563,83.124C18.645,83.124,0,64.479,0,41.563C0,18.645,18.645,0,41.563,0
			C64.48,0,83.125,18.645,83.125,41.563C83.125,64.479,64.48,83.124,41.563,83.124z M41.563,2C19.748,2,2,19.748,2,41.563
			c0,21.814,17.748,39.562,39.563,39.562c21.814,0,39.563-17.747,39.563-39.562C81.125,19.748,63.377,2,41.563,2z"/>
	</g>
	<g>
		<path fill="#666666" d="M41.563,72.882c-17.271,0-31.321-14.05-31.321-31.318c0-17.271,14.051-31.321,31.321-31.321
			s31.321,14.051,31.321,31.321C72.884,58.832,58.833,72.882,41.563,72.882z M41.563,12.242c-16.168,0-29.321,13.153-29.321,29.321
			c0,16.166,13.153,29.318,29.321,29.318s29.321-13.152,29.321-29.318C70.884,25.396,57.73,12.242,41.563,12.242z"/>
	</g>
	<g>
		<g>
			<path fill="#666666" d="M41.563,48.909c-4.051,0-7.346-3.296-7.346-7.347s3.295-7.347,7.346-7.347
				c4.052,0,7.348,3.296,7.348,7.347S45.614,48.909,41.563,48.909z M41.563,35.216c-3.499,0-6.346,2.847-6.346,6.347
				s2.847,6.347,6.346,6.347c3.5,0,6.348-2.847,6.348-6.347S45.063,35.216,41.563,35.216z"/>
		</g>
		<g>
			<path fill="#666666" d="M35.071,44.234c-0.022,0-0.045-0.001-0.067-0.005l-16.188-2.172c-0.249-0.033-0.434-0.245-0.434-0.495
				s0.185-0.462,0.434-0.495l16.188-2.172c0.266-0.049,0.524,0.154,0.562,0.429c0.037,0.273-0.155,0.525-0.429,0.562l-12.494,1.677
				l12.494,1.677c0.273,0.036,0.466,0.288,0.429,0.562C35.532,44.052,35.317,44.234,35.071,44.234z"/>
		</g>
		<g>
			<path fill="#666666" stroke="#28BDB9" stroke-linecap="round" stroke-linejoin="round" stroke-miterlimit="10" d="M35.07,39.391"
				/>
		</g>
		<g>
			<path fill="#666666" stroke="#28BDB9" stroke-linecap="round" stroke-linejoin="round" stroke-miterlimit="10" d="M39.828,34.94"
				/>
		</g>
		<g>
			<path fill="#666666" d="M44.175,35.732c-0.246,0-0.461-0.183-0.494-0.434l-1.698-12.656l-1.659,12.364
				c-0.037,0.273-0.295,0.472-0.562,0.429c-0.273-0.036-0.466-0.288-0.429-0.562l2.154-16.058c0.033-0.248,0.245-0.434,0.495-0.434
				l0,0c0.25,0,0.462,0.185,0.495,0.434l2.193,16.35c0.037,0.273-0.155,0.525-0.429,0.562C44.22,35.731,44.197,35.732,44.175,35.732
				z"/>
		</g>
		<g>
			<path fill="#666666" d="M48.055,44.234c-0.246,0-0.461-0.183-0.494-0.434c-0.037-0.273,0.155-0.525,0.429-0.562l12.493-1.677
				l-12.493-1.677c-0.273-0.036-0.466-0.288-0.429-0.562c0.036-0.274,0.29-0.478,0.562-0.429l16.187,2.172
				c0.248,0.033,0.434,0.245,0.434,0.495s-0.186,0.462-0.434,0.495l-16.187,2.172C48.1,44.233,48.077,44.234,48.055,44.234z"/>
		</g>
		<g>
			<path fill="#666666" d="M41.982,64.742c-0.25,0-0.462-0.186-0.495-0.434L39.333,48.25c-0.037-0.273,0.155-0.525,0.429-0.562
				c0.267-0.05,0.524,0.154,0.562,0.429l1.659,12.364l1.698-12.656c0.036-0.274,0.288-0.479,0.562-0.429
				c0.273,0.036,0.466,0.288,0.429,0.562l-2.193,16.351C42.444,64.557,42.232,64.742,41.982,64.742z"/>
		</g>
		<g>
			<path fill="#666666" d="M36.038,38.027c-0.15,0-0.299-0.067-0.397-0.196l-4.781-6.263c-0.152-0.199-0.133-0.479,0.044-0.657
				c0.177-0.178,0.456-0.197,0.657-0.044l6.263,4.781c0.219,0.168,0.262,0.481,0.094,0.701c-0.169,0.22-0.482,0.261-0.701,0.094
				l-3.3-2.52l2.52,3.3c0.168,0.22,0.125,0.533-0.094,0.701C36.251,37.994,36.145,38.027,36.038,38.027z"/>
		</g>
		<g>
			<path fill="#666666" d="M47.161,38.12c-0.106,0-0.213-0.033-0.304-0.103c-0.219-0.168-0.262-0.481-0.094-0.701l2.446-3.204
				l-3.006,2.295c-0.22,0.167-0.532,0.127-0.701-0.094c-0.168-0.22-0.125-0.533,0.094-0.701l5.968-4.556
				c0.2-0.153,0.48-0.133,0.657,0.044s0.196,0.458,0.044,0.657l-4.707,6.167C47.46,38.053,47.312,38.12,47.161,38.12z"/>
		</g>
		<g>
			<path fill="#666666" d="M51.68,52.188c-0.106,0-0.213-0.034-0.304-0.103l-6.051-4.619c-0.219-0.168-0.262-0.481-0.094-0.701
				c0.168-0.221,0.482-0.261,0.701-0.094l3.089,2.358l-2.358-3.089c-0.168-0.22-0.125-0.533,0.094-0.701
				c0.219-0.167,0.532-0.126,0.701,0.094l4.619,6.051c0.152,0.199,0.133,0.48-0.044,0.657C51.937,52.138,51.809,52.188,51.68,52.188
				z"/>
		</g>
		<g>
			<path fill="#666666" d="M31.447,52.376c-0.129,0-0.257-0.05-0.354-0.146c-0.177-0.177-0.196-0.458-0.044-0.657l4.689-6.143
				c0.168-0.22,0.482-0.261,0.701-0.094c0.219,0.168,0.262,0.481,0.094,0.701l-2.429,3.181l3.214-2.453
				c0.219-0.167,0.533-0.126,0.701,0.094s0.125,0.533-0.094,0.701l-6.176,4.714C31.66,52.342,31.554,52.376,31.447,52.376z"/>
		</g>
	</g>
	<g>
		<g>
			<path fill="#666666" d="M18.863,18.442l-4.576-2.62l-0.029,0.027c0.742,0.71,1.229,1.189,1.465,1.44l2.043,2.18l-0.888,0.833
				l-4.395-4.688l1.353-1.269l4.47,2.545l0.019-0.019l-2.184-4.688l1.353-1.268l4.395,4.687l-0.927,0.869l-2.079-2.219
				c-0.099-0.105-0.21-0.228-0.335-0.367s-0.451-0.517-0.979-1.13l-0.029,0.026l2.232,4.805L18.863,18.442z"/>
		</g>
		<g>
			<path fill="#666666" d="M27.242,12.407L26.069,13.1l-1.261-2.139c-0.312,0.36-0.582,0.641-0.813,0.841
				c-0.23,0.201-0.463,0.37-0.698,0.508c-0.527,0.312-1.009,0.425-1.445,0.34c-0.436-0.085-0.788-0.357-1.06-0.816l-1.348-2.287
				l1.169-0.689l1.152,1.953c0.157,0.268,0.339,0.433,0.541,0.495c0.203,0.062,0.452,0.007,0.748-0.168
				c0.206-0.122,0.401-0.265,0.582-0.427c0.182-0.163,0.392-0.385,0.631-0.666l-1.462-2.479l1.174-0.692L27.242,12.407z"/>
		</g>
		<g>
			<path fill="#666666" d="M29.172,5.872c-0.481,0.178-0.787,0.495-0.918,0.953c-0.131,0.459-0.077,1.012,0.16,1.658
				c0.495,1.344,1.246,1.83,2.256,1.459c0.423-0.155,0.897-0.45,1.421-0.883l0.396,1.072c-0.42,0.388-0.935,0.694-1.545,0.919
				c-0.877,0.323-1.646,0.304-2.307-0.058c-0.66-0.361-1.173-1.039-1.539-2.034c-0.23-0.627-0.319-1.218-0.265-1.773
				c0.056-0.556,0.25-1.038,0.585-1.446c0.335-0.41,0.79-0.72,1.364-0.932c0.586-0.215,1.226-0.29,1.922-0.225l-0.03,1.191
				c-0.265-0.024-0.526-0.034-0.784-0.03C29.631,5.749,29.393,5.791,29.172,5.872z"/>
		</g>
		<g>
			<path fill="#666666" d="M39.713,4.712c0.08,0.687-0.073,1.237-0.461,1.651c-0.387,0.413-0.976,0.666-1.768,0.759l-0.58,0.067
				L37.17,9.46l-1.354,0.157l-0.744-6.382l2.038-0.237c0.774-0.091,1.382,0.008,1.823,0.294C39.376,3.578,39.635,4.051,39.713,4.712
				z M36.775,6.08l0.445-0.052c0.416-0.049,0.718-0.166,0.904-0.355c0.188-0.188,0.264-0.439,0.227-0.754
				c-0.037-0.316-0.15-0.541-0.341-0.672c-0.191-0.131-0.472-0.176-0.841-0.133l-0.616,0.072L36.775,6.08z"/>
		</g>
		<g>
			<path fill="#666666" d="M47.213,6.27c-0.079,1.061-0.402,1.856-0.971,2.387s-1.343,0.76-2.325,0.687
				c-0.981-0.072-1.714-0.414-2.198-1.022c-0.482-0.608-0.686-1.446-0.605-2.513c0.079-1.066,0.402-1.861,0.973-2.385
				c0.568-0.523,1.345-0.748,2.33-0.676c0.984,0.074,1.717,0.413,2.196,1.019S47.291,5.206,47.213,6.27z M42.536,5.922
				c-0.053,0.716,0.044,1.266,0.288,1.647c0.245,0.383,0.637,0.594,1.178,0.635c1.084,0.08,1.68-0.6,1.786-2.041
				c0.107-1.442-0.378-2.204-1.456-2.284c-0.541-0.04-0.962,0.111-1.264,0.455C42.768,4.677,42.59,5.206,42.536,5.922z"/>
		</g>
		<g>
			<path fill="#666666" d="M52.064,5.284c-0.492-0.14-0.928-0.063-1.304,0.23c-0.376,0.293-0.658,0.771-0.847,1.434
				c-0.392,1.378-0.071,2.214,0.963,2.508c0.435,0.124,0.991,0.165,1.67,0.123l-0.313,1.1c-0.568,0.066-1.164,0.012-1.79-0.167
				c-0.899-0.256-1.509-0.724-1.829-1.404c-0.321-0.681-0.337-1.531-0.047-2.552c0.183-0.643,0.46-1.172,0.832-1.588
				c0.371-0.417,0.813-0.692,1.324-0.825c0.511-0.133,1.062-0.116,1.65,0.052c0.6,0.171,1.162,0.487,1.686,0.95l-0.727,0.944
				c-0.199-0.176-0.404-0.337-0.615-0.485S52.29,5.349,52.064,5.284z"/>
		</g>
		<g>
			<path fill="#666666" d="M57.953,7.521c-0.467-0.214-0.907-0.204-1.324,0.028c-0.416,0.233-0.768,0.663-1.055,1.288
				c-0.597,1.303-0.407,2.178,0.57,2.626c0.41,0.188,0.954,0.313,1.631,0.376l-0.477,1.038c-0.57-0.02-1.152-0.165-1.743-0.437
				c-0.849-0.39-1.381-0.945-1.594-1.667c-0.215-0.722-0.101-1.564,0.342-2.528c0.278-0.607,0.633-1.089,1.063-1.443
				c0.431-0.356,0.909-0.561,1.435-0.614c0.526-0.054,1.067,0.047,1.624,0.302c0.566,0.261,1.073,0.659,1.521,1.196l-0.86,0.823
				c-0.172-0.203-0.35-0.396-0.535-0.574S58.166,7.618,57.953,7.521z"/>
		</g>
		<g>
			<path fill="#666666" d="M61.926,8.384l0.994,0.717l-1.814,2.517l-0.501,0.663l-0.589,0.74l0.021,0.016l5.26-2.22l1.322,0.954
				l-3.76,5.21l-0.983-0.71l1.805-2.501c0.242-0.336,0.622-0.816,1.14-1.443l-0.028-0.021l-5.297,2.247l-1.329-0.959L61.926,8.384z"
				/>
		</g>
		<g>
			<path fill="#666666" d="M68.602,13.562l0.816,0.915l-2.317,2.063l-0.632,0.54l-0.734,0.596l0.017,0.019l5.616-1.028l1.084,1.218
				l-4.798,4.272l-0.807-0.905l2.304-2.053c0.309-0.273,0.783-0.662,1.424-1.162l-0.023-0.026l-5.656,1.049l-1.091-1.225
				L68.602,13.562z"/>
		</g>
	</g>
</g>
</svg>
