<?xml version="1.0" encoding="utf-8"?>
<!-- Generator: Adobe Illustrator 15.0.0, SVG Export Plug-In . SVG Version: 6.00 Build 0)  -->
<!DOCTYPE svg PUBLIC "-//W3C//DTD SVG 1.1//EN" "http://www.w3.org/Graphics/SVG/1.1/DTD/svg11.dtd">
<svg version="1.1" id="Слой_1" xmlns="http://www.w3.org/2000/svg" xmlns:xlink="http://www.w3.org/1999/xlink" x="0px" y="0px"
	 width="78.129px" height="77.799px" viewBox="0 0 78.129 77.799" enable-background="new 0 0 78.129 77.799" xml:space="preserve">
<g>
	<g>
		<path fill="#666766" d="M39.065,77.799c-0.132,0-0.264-0.026-0.388-0.078c-0.695-0.292-17.189-7.396-31.202-27.951
			C-2.132,35.679,0.224,9.62,0.329,8.517C0.363,8.16,0.586,7.848,0.914,7.7C1.085,7.623,18.247,0,39.065,0
			c20.815,0,37.98,7.623,38.151,7.7c0.327,0.147,0.551,0.459,0.584,0.817c0.105,1.103,2.461,27.162-7.146,41.253
			C56.642,70.326,40.148,77.429,39.453,77.721C39.329,77.773,39.197,77.799,39.065,77.799z M2.273,9.294
			C1.98,13.26,0.699,36.28,9.127,48.643C21.62,66.968,36.489,74.496,39.065,75.702c2.576-1.206,17.445-8.733,29.938-27.059
			c8.434-12.37,7.148-35.382,6.854-39.349C72.828,8.031,57.395,2,39.065,2C20.733,2,5.302,8.031,2.273,9.294z"/>
	</g>
	<g>
		<path fill="#666766" d="M69.668,28.496c0,0-0.838-0.373-1.543-0.484c-1.047-0.163-1.83-0.051-1.83-0.051s1.379-0.584,2.445-1.755
			c1.072-1.168,1.064-1.762,1.064-1.762s-0.482-0.179-1.26-0.253c-0.961-0.094-1.604,0.104-1.604,0.104s1.164-0.825,1.822-1.794
			c0.662-0.965,0.646-1.875,0.646-1.875s-0.613-0.217-1.686,0.09c-1.066,0.306-1.473,0.563-1.473,0.563s1.102-1.211,1.916-3.244
			c0.811-2.035-0.377-2.857-0.377-2.857s-0.633,0.626-1.771,1.726c-0.928,0.896-1.953,1.629-1.953,1.629s2.369-3.044,2.244-5.467
			c-0.117-2.294-1.27-3.263-1.27-3.263s-1.686,4.581-7.18,11.065c-2.16,2.554-6.234,4.438-6.998,6.166s0.748,2.325,1.559,3.291
			c0.814,0.966-0.363,3.099-3.303,2.799c-2.387-0.245-5.936-7.664-3.201-11.545c1.682-2.385,4.264-3.769,6.422-3.279
			c1.305,0.294,1.912,0.928,1.912,0.928s0.658-0.752,0.094-2.396c-0.486-1.417-2.533-1.253-2.533-1.253s-0.174-0.731-1.068-1.217
			c-2.521-1.375-8.746-0.407-8.746-0.407s0.033,0.517,0.943,1.228c0.918,0.71,1.398,0.858,1.398,0.858s-2.645,2.539-3.863,4.117
			c-1.219,1.575-1.414,4.422-1.414,4.422l0,0c-0.035-0.404-0.289-2.917-1.41-4.367c-1.223-1.576-3.863-4.117-3.863-4.117
			s0.479-0.145,1.395-0.858c0.914-0.711,0.945-1.224,0.945-1.224s-6.225-0.968-8.744,0.405c-0.895,0.486-1.07,1.222-1.07,1.222
			s-2.049-0.166-2.535,1.247c-0.561,1.645,0.092,2.396,0.092,2.396s0.613-0.63,1.918-0.925c2.156-0.488,4.742,0.894,6.422,3.279
			c2.734,3.879-0.814,11.297-3.201,11.54c-2.941,0.301-4.121-1.828-3.303-2.796c0.814-0.964,2.326-1.563,1.563-3.289
			c-0.764-1.729-4.842-3.612-7.008-6.165c-5.488-6.485-7.176-11.065-7.176-11.065s-1.148,0.964-1.268,3.257
			c-0.129,2.424,2.246,5.469,2.246,5.469s-1.027-0.734-1.955-1.625c-1.145-1.105-1.775-1.729-1.775-1.729s-1.188,0.824-0.375,2.859
			c0.814,2.033,1.916,3.244,1.916,3.244s-0.404-0.259-1.475-0.564c-1.063-0.304-1.684-0.088-1.684-0.088s-0.016,0.909,0.646,1.878
			c0.66,0.964,1.828,1.791,1.828,1.791s-0.648-0.2-1.613-0.107C8.807,24.321,8.325,24.5,8.325,24.5s-0.008,0.596,1.059,1.764
			c1.072,1.168,2.451,1.753,2.451,1.753S11.051,27.906,10,28.07c-0.703,0.11-1.535,0.48-1.535,0.48s0.381,0.979,1.559,1.72
			c0.479,0.302,1.904,0.826,1.904,0.826s-0.496,0.037-1.453,0.508c-0.881,0.437-1.574,1.194-1.574,1.194s0.992,0.89,1.752,1.193
			c0.764,0.306,1.848,0.308,1.848,0.308s-0.924,0.366-1.387,0.811c-0.896,0.869-1.045,1.793-1.045,1.793s0.99,0.349,1.998,0.392
			c0.947,0.041,1.793-0.149,1.793-0.149s-0.664,0.686-0.865,1.016c-0.471,0.766-0.457,1.724-0.457,1.724s1.061-0.005,1.797-0.128
			c0.721-0.121,0.992-0.278,1.074-0.337c-0.1,0.085-0.463,0.458-0.822,1.485c-0.15,0.431-0.092,1.508-0.092,1.508
			s0.957,0.161,1.729-0.092c0.787-0.259,1.5-0.856,1.5-0.856s-0.496,1.405,0.262,3.011c0,0,0.693-0.031,1.361-0.407
			c0.52-0.292,1.484-1.309,1.484-1.309s-0.248,0.535-0.074,1.369c0.199,0.987,0.814,1.589,0.814,1.589s1.328-0.474,1.691-0.881
			c0.973-1.104,1.063-1.967,1.063-1.967s0.133,0.711,0.74,1.325c0.611,0.606,1.148,0.778,1.148,0.778s1.104-0.751,1.281-1.456
			c0.449-1.763,0.242-3.171,0.242-3.171s0.256,0.559,1.121,0.255c0.865-0.306,0.563-1.016,0.563-1.016s1.893,2.595,1.268,4.422
			c-1.188,3.493-3.516,1.146-4.879,3.472c-0.982,1.682,0.42,3.812-0.545,4.219c-0.967,0.405-1.637,0.21-1.637,0.21
			s1.449,1.547,2.637,1.506c1.748-0.059,2.252-0.773,2.252-0.773s0.596,1.536-1.438,2.349c-2.033,0.814-3.1,1.373-3.863,0.308
			c-0.766-1.07-0.441-1.867-1.916-1.46c-1.473,0.404-2.863,1.313-2.914,2.047c-0.051,0.731,0.506,1.599,0.506,1.599
			s-0.9,0.432,0.623,1.706c1.527,1.27,2.174,1.191,2.582,0.531c0.406-0.662,1.223-1.324,2.389-2.035
			c5.539-3.387,7.381-1.522,7.887-2.284c0.51-0.763-2.648-4.225-0.869-4.528c1.781-0.306,2.695-2.387,3.711-0.815
			c1.018,1.577,0.916,2.948,0.047,3.814c-0.859,0.865-1.268,1.984-1.268,1.984s-1.221,0.556-2.287,1.422
			c-1.072,0.864-2.516,2.606-2.77,1.385c-0.256-1.221,0.484-1.536,0.484-1.536s-1.598-0.121-1.91,1.389
			c-0.197,0.944,0.736,1.505,0.736,1.505s-1.92,0.754-1.262,2.104c0.736,1.511,0.961,2.561,0.961,2.561s0.379-0.378,0.633-0.987
			c0.252-0.607,0.229-1.028,0.229-1.028s0.141,1.039,1.258,2.056c1.123,1.016,3.146,0,3.146,0s-0.006,1.489,1.723,1.848
			c1.73,0.355,2.516-0.448,2.516-0.448s-0.012,0.296,0.484,0.864c0.727,0.84,1.129,1.01,1.129,1.01s0.404-0.227,1.133-1.063
			c0.494-0.569,0.482-0.866,0.482-0.866s0.787,0.802,2.518,0.445c1.725-0.354,1.721-1.845,1.721-1.845s2.025,1.017,3.146,0
			c1.119-1.019,1.26-2.058,1.26-2.058s-0.029,0.418,0.229,1.028c0.254,0.61,0.627,0.984,0.627,0.984s0.234-1.047,0.965-2.559
			c0.66-1.35-1.266-2.102-1.266-2.102s0.939-0.559,0.744-1.505c-0.314-1.512-1.912-1.391-1.912-1.391s0.74,0.317,0.482,1.537
			c-0.252,1.221-1.701-0.521-2.768-1.384c-1.068-0.864-2.287-1.423-2.287-1.423s-0.408-1.12-1.27-1.984
			c-0.869-0.863-0.969-2.236,0.047-3.812c1.016-1.577,1.932,0.507,3.713,0.813c1.783,0.305-1.379,3.764-0.869,4.527
			s2.344-1.101,7.887,2.284c1.16,0.711,1.979,1.373,2.387,2.033c0.406,0.662,1.057,0.74,2.584-0.529
			c1.521-1.271,0.619-1.708,0.619-1.708s0.561-0.861,0.51-1.597c-0.051-0.732-1.441-1.639-2.914-2.047
			c-1.477-0.405-1.152,0.394-1.916,1.458c-0.764,1.067-1.83,0.511-3.863-0.306c-2.033-0.812-1.438-2.345-1.438-2.345
			s0.502,0.711,2.252,0.77c1.188,0.039,2.635-1.505,2.635-1.505s-0.672,0.196-1.635-0.211c-0.965-0.409,0.436-2.533-0.545-4.216
			c-1.367-2.327-3.691,0.021-4.881-3.475c-0.617-1.826,1.27-4.423,1.27-4.423s-0.299,0.711,0.561,1.018
			c0.867,0.305,1.119-0.253,1.119-0.253s-0.203,1.405,0.246,3.172c0.178,0.7,1.279,1.455,1.279,1.455s0.539-0.174,1.15-0.781
			c0.611-0.61,0.74-1.324,0.74-1.324s0.086,0.866,1.063,1.967c0.367,0.41,1.688,0.884,1.688,0.884s0.619-0.607,0.82-1.589
			c0.168-0.835-0.078-1.369-0.078-1.369s0.967,1.013,1.486,1.307c0.668,0.378,1.357,0.409,1.357,0.409
			c0.756-1.608,0.266-3.011,0.266-3.011s0.713,0.596,1.498,0.854c0.771,0.252,1.73,0.095,1.73,0.095s0.059-1.079-0.094-1.512
			c-0.359-1.029-0.721-1.397-0.822-1.487c0.082,0.061,0.355,0.22,1.076,0.341c0.736,0.121,1.791,0.13,1.791,0.13
			s0.016-0.958-0.451-1.725c-0.203-0.331-0.865-1.017-0.865-1.017s0.846,0.189,1.791,0.147c1.01-0.042,1.996-0.389,1.996-0.389
			s-0.141-0.928-1.041-1.792c-0.465-0.448-1.387-0.811-1.387-0.811s1.078-0.004,1.842-0.31s1.758-1.194,1.758-1.194
			s-0.693-0.755-1.57-1.191c-0.957-0.473-1.457-0.514-1.457-0.514s1.426-0.519,1.908-0.823
			C69.28,29.472,69.668,28.496,69.668,28.496z"/>
	</g>
</g>
</svg>
