<?xml version="1.0" encoding="utf-8"?>
<!-- Generator: Adobe Illustrator 15.0.0, SVG Export Plug-In . SVG Version: 6.00 Build 0)  -->
<!DOCTYPE svg PUBLIC "-//W3C//DTD SVG 1.1//EN" "http://www.w3.org/Graphics/SVG/1.1/DTD/svg11.dtd">
<svg version="1.1" id="Слой_1" xmlns="http://www.w3.org/2000/svg" xmlns:xlink="http://www.w3.org/1999/xlink" x="0px" y="0px"
	 width="99.682px" height="65.112px" viewBox="0 0 99.682 65.112" enable-background="new 0 0 99.682 65.112" xml:space="preserve">
<g>
	<g>
		<path fill="#666766" d="M49.841,65.112C22.358,65.112,0,50.507,0,32.555C0,14.604,22.358,0,49.841,0s49.841,14.604,49.841,32.555
			C99.682,50.507,77.323,65.112,49.841,65.112z M49.841,2C23.461,2,2,15.707,2,32.555c0,16.849,21.461,30.557,47.841,30.557
			c26.38,0,47.841-13.708,47.841-30.557C97.682,15.707,76.221,2,49.841,2z M49.841,58.913c-17.789,0-33.245-7.457-38.46-18.556
			c-0.146-0.31-0.123-0.672,0.061-0.961s0.502-0.464,0.844-0.464h75.109c0.342,0,0.661,0.175,0.844,0.464
			c0.184,0.289,0.207,0.651,0.062,0.961C83.086,51.456,67.63,58.913,49.841,58.913z M13.938,40.932
			c5.49,9.48,19.928,15.98,35.903,15.98s30.412-6.5,35.903-15.98H13.938z M87.396,26.179H12.286c-0.342,0-0.661-0.175-0.844-0.464
			c-0.184-0.289-0.207-0.651-0.061-0.961c5.215-11.099,20.671-18.556,38.46-18.556s33.244,7.457,38.46,18.556
			c0.146,0.31,0.122,0.672-0.062,0.961C88.057,26.004,87.737,26.179,87.396,26.179z M13.938,24.18h71.806
			C80.253,14.699,65.815,8.198,49.841,8.198S19.429,14.699,13.938,24.18z"/>
	</g>
	<g>
		<g>
			<path fill="#666766" d="M44.783,35.817h-1.745v-3.563h-3.271v3.563h-1.751v-8.256h1.751v3.236h3.271v-3.236h1.745V35.817z"/>
		</g>
		<g>
			<path fill="#666766" d="M54.362,31.678c0,1.365-0.339,2.416-1.017,3.15s-1.649,1.102-2.915,1.102
				c-1.265,0-2.236-0.367-2.914-1.102S46.5,33.042,46.5,31.667s0.34-2.424,1.02-3.148s1.654-1.088,2.923-1.088
				s2.239,0.365,2.911,1.096C54.026,29.256,54.362,30.307,54.362,31.678z M48.336,31.678c0,0.922,0.175,1.617,0.525,2.084
				c0.35,0.467,0.873,0.699,1.569,0.699c1.397,0,2.096-0.928,2.096-2.783c0-1.861-0.694-2.791-2.084-2.791
				c-0.696,0-1.222,0.234-1.576,0.703C48.513,30.059,48.336,30.754,48.336,31.678z"/>
		</g>
		<g>
			<path fill="#666766" d="M58.157,28.899c-0.372,0-0.739,0.053-1.099,0.158s-0.714,0.23-1.064,0.379l-0.554-1.412
				c0.874-0.389,1.791-0.582,2.751-0.582c1.224,0,2.17,0.375,2.838,1.127c0.668,0.75,1.003,1.795,1.003,3.131
				c0,1.363-0.344,2.41-1.031,3.139s-1.679,1.092-2.974,1.092c-0.893,0-1.705-0.141-2.439-0.424v-1.469
				c0.915,0.291,1.694,0.436,2.338,0.436c0.719,0,1.268-0.176,1.646-0.525c0.378-0.35,0.585-0.875,0.618-1.576h-3.58v-1.434h3.569
				c-0.022-0.641-0.215-1.141-0.576-1.5S58.76,28.899,58.157,28.899z"/>
		</g>
	</g>
</g>
</svg>
