<?xml version="1.0" encoding="utf-8"?>
<!-- Generator: Adobe Illustrator 18.0.0, SVG Export Plug-In . SVG Version: 6.00 Build 0)  -->
<!DOCTYPE svg PUBLIC "-//W3C//DTD SVG 1.1//EN" "http://www.w3.org/Graphics/SVG/1.1/DTD/svg11.dtd">
<svg version="1.1" id="Слой_2" xmlns="http://www.w3.org/2000/svg" xmlns:xlink="http://www.w3.org/1999/xlink" x="0px" y="0px"
	 viewBox="0 0 136.1 141.5" enable-background="new 0 0 136.1 141.5" xml:space="preserve">
<g>
	<path fill-rule="evenodd" clip-rule="evenodd" fill="#FFFFFF" d="M68.1,2.6c33.6,0,61.1,26.9,62.2,60.3c-0.3,0-0.5-0.1-0.8-0.1
		c-7.1-1.4-11.5,3.5-10,10.2c1,4.3,1.3,7.9,2.3,12.1c0,0,0,0,0,0c-1.7-0.3-2.4-0.5-6.8-1.2c-6,14.7-18.8,26-34.4,30
		c0.5,0.5,1.4,1.6,1.7,2c0.3,0.4,0.8,0.8,1.1,1.1c0.2-0.1,0.4-0.2,0.6-0.3c1.7-0.4,2.3,0.9,2.5,2c0,0.3,0,0.6,0,0.9l0,0
		c0,0.1,0,0.1,0,0.2c0,0,0,0-0.1,0c0,0-0.5,1-0.5,1c-0.3,0.3-0.8,0.6-1.4,0.7c0,0.1,0,0.1,0,0.2c0,0.8-0.3,1.3-0.7,1.8
		c-0.4,0.4-1.1,0.6-1.9,0.7c-0.1,0-0.2,0-0.4,0c0.1,0.6-0.1,1.1-0.5,1.5c-0.4,0.4-1,0.7-1.8,1c0,0.2,0,0.3-0.1,0.5h0
		c-0.1,0.5-0.4,0.9-0.7,1.2c-0.8,0.2-1.5,0.4-2.3,0.5c-0.2,0-0.4,0-0.5-0.1c0,0.1,0,0.1,0,0.2c-2.3,0.4-4.6,0.7-6.9,0.7
		c-2.7,0-5.5-0.3-8.3-0.8v-0.1c-0.1,0-0.1,0-0.2,0c-0.8-0.1-1.6-0.3-2.3-0.5c-0.4-0.3-0.8-0.8-0.9-1.4c0-0.1-0.1-0.3-0.1-0.5
		c-0.1,0-0.2-0.1-0.3-0.1c-1.3-0.5-2.2-0.8-2-2.2c-0.1,0-0.2,0-0.3,0c-0.8-0.1-1.5-0.3-1.9-0.7c-0.4-0.4-0.7-1-0.7-1.8
		c0-0.1,0-0.2,0-0.2c-0.6-0.1-1.1-0.3-1.4-0.6c0,0-0.4-0.9-0.5-0.9c0,0-0.1,0-0.1,0c-0.4-1.5,0.4-3.5,2.3-3.1c0.7,0.2,1,0.5,1.1,1
		c0.2-0.4,0.9-1.2,1.1-1.3c0.3-0.2,0.7-0.7,1-1c0.1-0.1,0.6-0.7,1.2-1.3c-16-3.8-29.2-15.3-35.3-30.3c-4.6,0.9-5,1-7.1,1.4
		C14.1,85.1,14,85,14.3,85c0.6-4.2,1.3-7.8,2.3-12.1c1.4-6.7-2.9-11.6-10-10.2c-0.2,0-0.4,0.1-0.6,0.1C7,29.4,34.5,2.6,68.1,2.6
		L68.1,2.6L68.1,2.6z M122.2,85.1C122.2,85.1,122.2,85.1,122.2,85.1C122.2,85.1,122.2,85.1,122.2,85.1L122.2,85.1z M122.2,85.1
		C122.2,85.2,122.2,85.2,122.2,85.1C122.2,85.2,122.2,85.2,122.2,85.1L122.2,85.1z M86.4,119.9C86.4,119.9,86.4,119.9,86.4,119.9
		C86.4,119.9,86.4,119.9,86.4,119.9L86.4,119.9z M86.4,119.9C86.4,119.9,86.4,119.9,86.4,119.9C86.4,119.9,86.4,119.9,86.4,119.9
		L86.4,119.9z M86.4,119.9C86.4,119.9,86.4,119.9,86.4,119.9C86.4,119.9,86.4,119.9,86.4,119.9L86.4,119.9z M86.4,119.9
		C86.4,119.9,86.4,119.9,86.4,119.9C86.4,119.9,86.4,119.9,86.4,119.9L86.4,119.9z M86.4,119.9C86.4,119.8,86.4,119.8,86.4,119.9
		C86.4,119.8,86.4,119.8,86.4,119.9L86.4,119.9z M86.4,119.8C86.4,119.8,86.4,119.8,86.4,119.8C86.4,119.8,86.4,119.8,86.4,119.8
		L86.4,119.8z M86.4,119.8C86.4,119.8,86.4,119.8,86.4,119.8C86.4,119.8,86.4,119.8,86.4,119.8L86.4,119.8z M86.4,119.8
		C86.4,119.8,86.4,119.8,86.4,119.8L86.4,119.8L86.4,119.8z M49.8,119.8C49.8,119.8,49.9,119.9,49.8,119.8
		C49.9,119.9,49.8,119.8,49.8,119.8L49.8,119.8z M49.9,119.9C49.9,119.9,49.9,119.9,49.9,119.9C49.9,119.9,49.9,119.9,49.9,119.9
		L49.9,119.9z M49.9,119.9C49.9,119.9,49.9,119.9,49.9,119.9C49.9,119.9,49.9,119.9,49.9,119.9L49.9,119.9z M49.9,119.9
		C49.9,119.9,49.9,119.9,49.9,119.9C49.9,119.9,49.9,119.9,49.9,119.9L49.9,119.9z M49.9,119.9C49.9,119.9,49.9,119.9,49.9,119.9
		C49.9,119.9,49.9,119.9,49.9,119.9L49.9,119.9z M49.9,120C49.9,120,49.9,120,49.9,120C49.9,120,49.9,120,49.9,120L49.9,120z
		 M49.9,120C49.9,120,49.9,120,49.9,120C49.9,120,49.9,120,49.9,120L49.9,120z M49.9,120C49.9,120,49.9,120,49.9,120
		C49.9,120,49.9,120,49.9,120L49.9,120z M13.8,85.2C13.8,85.2,13.8,85.2,13.8,85.2C13.8,85.2,13.8,85.2,13.8,85.2L13.8,85.2z
		 M13.9,85.2C13.9,85.2,13.9,85.2,13.9,85.2C13.9,85.2,13.9,85.2,13.9,85.2L13.9,85.2z M13.9,85.2C13.9,85.2,13.9,85.2,13.9,85.2
		C13.9,85.2,13.9,85.2,13.9,85.2L13.9,85.2z"/>
	<polygon fill-rule="evenodd" clip-rule="evenodd" fill="#ECC446" points="89.7,127.4 89.6,127.3 89.4,127.2 89.2,127.2 89,127.1 
		88.8,127.1 88.6,127.1 88.4,127.1 88.2,127.1 88,127.1 87.8,127.1 87.6,127.1 87.4,127.2 87.2,127.2 87,127.3 86.9,127.3 
		86.7,127.4 86.5,127.5 86.3,127.6 86.2,127.7 86,127.8 85.9,127.9 85.7,128 85.6,128.2 85.5,128.3 85.3,128.5 85.2,128.6 
		85.1,128.8 85.1,129 85,129.1 84.9,129.3 84.9,129.7 84.9,130 84.9,130.3 84.9,130.6 85,130.8 85.1,131.1 85.2,131.3 85.4,131.5 
		85.6,131.6 85.8,131.7 86,131.8 86.2,131.9 86.4,132 86.6,132 86.8,132 87,132 87.2,132 87.4,131.9 87.6,131.8 87.8,131.7 
		88,131.6 88.1,131.5 88.3,131.3 88.4,131.1 88.4,130.9 88.5,130.7 88.5,130.5 88.4,130.3 88.3,130 88.3,130 88.3,130 88.4,130.1 
		88.5,130.3 88.6,130.5 88.6,130.6 88.6,130.9 88.7,131.1 88.6,131.3 88.6,131.5 88.5,131.7 88.4,131.9 88.2,132.1 88,132.2 
		87.9,132.4 87.7,132.5 87.5,132.6 87.3,132.7 87.2,132.8 87,132.9 86.9,132.9 86.7,132.9 86.6,133 86.4,133 86.3,133 86.1,132.9 
		86,132.9 85.9,132.9 85.7,132.8 85.6,132.8 85.5,132.7 85.3,132.6 85.2,132.5 85.1,132.4 85,132.3 84.8,132.2 84.7,132.1 
		84.6,131.9 84.5,131.8 84.4,131.6 84.3,131.5 84.2,131.3 84.1,131.2 84.1,131.1 84,130.9 84,130.6 83.9,130.4 83.9,130.2 83.9,130 
		83.9,129.8 84,129.6 84,129.4 84,129.2 84.1,129 84.2,128.8 84.3,128.6 84.4,128.4 84.5,128.2 84.6,128 84.7,127.8 84.8,127.7 
		85,127.5 85.1,127.4 85.3,127.3 85.5,127.1 85.7,127 86,126.9 86.2,126.8 86.4,126.7 86.7,126.5 87,126.5 87.3,126.4 87.6,126.3 
		87.9,126.2 88.2,126.1 88.6,126.1 88.9,126 89.3,126 89.7,125.9 90.1,125.9 90.5,125.8 90.9,125.8 91.3,125.8 91.7,125.8 
		92.2,125.8 92.6,125.8 93.1,125.8 93.6,125.9 94.1,125.9 94.6,125.9 95.1,126 95.6,126 96.6,126.1 97.6,126.1 98.5,126.1 
		99.4,126.1 100.2,126 101,125.9 101.7,125.8 102.3,125.6 103,125.4 103.6,125.2 104.1,125 104.7,124.7 105.1,124.4 105.6,124.1 
		106,123.8 106.4,123.4 106.8,123 107.2,122.7 107.5,122.3 107.8,121.9 108.1,121.5 108.4,121.1 108.6,120.7 108.9,120.3 
		109.1,119.9 109.4,119.5 109.6,119.1 109.9,118.7 110.1,118.4 110.4,118 110.6,117.6 111.7,116.3 110.1,116.6 109.8,116.7 
		109.5,116.7 109.3,116.7 109,116.8 108.8,116.8 108.5,116.8 108.3,116.7 108.1,116.7 108,116.7 107.8,116.6 107.7,116.6 
		107.5,116.5 107.4,116.4 107.3,116.4 107.2,116.3 107.2,116.2 107.1,116.2 107.1,116.1 107,116 107,115.9 107,115.8 107,115.7 
		107,115.6 107,115.4 107,115.3 107,115.2 107.1,115 107.2,114.9 107.2,114.7 107.3,114.6 107.5,114.4 107.6,114.2 107.7,114 
		107.9,113.8 108.1,113.6 108.4,113.3 108.7,113 109.1,112.6 109.4,112.3 109.8,111.9 110.3,111.5 110.7,111.1 111.2,110.6 
		111.7,110.2 112.2,109.7 112.7,109.2 113.2,108.7 113.8,108.2 114.3,107.6 114.9,107.1 115.4,106.5 116,106 116.5,105.4 117,104.9 
		117.5,104.3 118.1,103.7 118.6,103.1 119,102.6 119.5,102 119.9,101.4 120.3,100.9 120.7,100.3 121.1,99.8 121.3,99.4 121.5,99.1 
		121.7,98.8 121.9,98.5 122.1,98.2 122.3,97.9 122.5,97.6 122.7,97.2 122.9,96.9 123.1,96.6 123.2,96.3 123.4,96 123.6,95.6 
		123.8,95.3 123.9,95 124.1,94.6 124.3,94.3 124.4,94 124.6,93.7 124.7,93.3 124.9,93 125,92.7 125.2,92.3 125.3,92 125.5,91.7 
		125.6,91.3 125.8,91 125.9,90.7 126.1,90.3 126.2,90 126.3,89.7 126.5,89.3 126.6,89 126.7,88.6 126.9,88.3 127,88 127.2,87.8 
		127.3,87.5 127.5,87.3 127.6,87.1 127.7,86.9 127.9,86.7 128,86.5 128.1,86.3 128.3,86.2 128.4,86.1 128.6,86 128.7,85.9 
		128.8,85.8 129,85.7 129.1,85.6 129.2,85.6 129.3,85.5 129.5,85.5 129.6,85.4 129.7,85.4 129.9,85.4 130,85.4 130.1,85.4 
		130.3,85.4 130.4,85.4 130.5,85.4 130.7,85.5 131.6,85.7 131.4,84.8 131.3,84.7 131.3,84.6 131.2,84.4 131.2,84.3 131.1,84.2 
		131.1,84 131,83.9 130.9,83.8 130.9,83.6 130.8,83.5 130.7,83.4 130.6,83.3 130.5,83.1 130.4,83 130.2,82.8 130,82.7 129.8,82.5 
		129.6,82.4 129.4,82.3 129.2,82.2 129,82.2 128.8,82.1 128.6,82.1 128.4,82.1 128.1,82.1 127.9,82.1 127.8,82.1 127.9,81.9 
		128,81.6 128.1,81.3 128.2,81 128.2,80.7 128.3,80.4 128.3,80.1 128.3,79.8 128.4,79.5 128.4,79.2 128.4,78.9 128.3,78.7 
		128.3,78.4 128.3,78.1 128.2,77.9 128.2,77.6 128.2,77.4 128.1,77.2 128.1,76.9 128,76.7 128,76.5 128,76.3 127.9,76 127.9,75.8 
		127.9,75.6 127.9,75.4 127.9,75.2 127.9,75 127.9,74.8 127.9,74.6 127.9,74.5 128,74.3 128,74.2 128,74 128.1,73.9 128.1,73.7 
		128.2,73.6 128.3,73.4 128.3,73.3 128.4,73.2 128.5,73 128.6,72.9 128.7,72.8 128.8,72.7 128.9,72.6 129,72.5 129.1,72.4 
		129.2,72.3 129.3,72.3 129.5,72.2 129.6,72.2 129.7,72.1 129.9,72.1 130.1,72 130.2,72 130.4,72 130.6,72 130.8,72 131,72.1 
		131.2,72.1 131.4,72.1 131.6,72.2 131.8,72.3 132,72.4 132.1,72.6 132.2,72.7 132.3,72.9 132.4,73.2 132.4,73.4 132.4,73.6 
		132.3,73.8 132.2,74 132.2,74.1 132.1,74.2 132,74.2 131.9,74.2 131.9,74.2 132,73.9 132,73.7 131.9,73.4 131.9,73.2 131.8,73 
		131.6,72.8 131.5,72.7 131.3,72.6 131.1,72.5 130.9,72.4 130.7,72.4 130.5,72.4 130.3,72.4 130.1,72.4 129.9,72.5 129.7,72.6 
		129.5,72.7 129.3,72.8 129.2,72.9 129,73.1 128.9,73.3 128.8,73.5 128.7,73.8 128.7,74 128.7,74.3 128.7,74.6 128.8,74.8 
		128.9,75.1 129.1,75.4 129.3,75.8 129.4,75.9 129.6,76.1 129.7,76.2 129.9,76.3 130.1,76.4 130.2,76.5 130.4,76.6 130.6,76.7 
		130.8,76.7 130.9,76.8 131.1,76.8 131.3,76.9 131.5,76.9 131.7,76.9 131.9,76.9 132.1,76.9 132.3,76.9 132.5,76.9 132.7,76.9 
		132.9,76.8 133.1,76.7 133.3,76.7 133.5,76.6 133.7,76.5 133.9,76.4 134.1,76.3 134.3,76.2 134.4,76 134.6,75.9 134.8,75.7 
		134.9,75.6 135.1,75.4 135.2,75 135.4,74.7 135.5,74.4 135.7,74.1 135.8,73.8 135.9,73.5 135.9,73.2 136,72.9 136,72.7 136.1,72.4 
		136.1,72.1 136.1,71.8 136,71.5 136,71.3 135.9,71 135.9,70.7 135.8,70.5 135.7,70.2 135.5,70 135.4,69.8 135.2,69.5 135.1,69.3 
		134.9,69.1 134.7,68.9 134.5,68.7 134.3,68.5 134,68.4 133.8,68.2 133.5,68 133.4,68 133.5,67.9 133.7,67.7 133.9,67.6 134,67.4 
		134.2,67.2 134.3,67 134.4,66.9 134.5,66.7 134.7,66.5 134.8,66.3 134.9,66.1 134.9,65.9 135,65.7 135.1,65.4 135.2,65.2 135.2,65 
		135.3,64.8 135.3,64.6 135.4,64.3 135.4,64.1 135.4,63.9 135.4,63.6 135.4,63.4 135.4,63.2 135.4,62.9 135.4,62.7 135.4,62.4 
		135.3,62.2 135.2,61.2 134.4,61.7 134.2,61.8 134,61.9 133.8,62 133.6,62.1 133.5,62.2 133.3,62.3 133.1,62.3 133,62.4 132.8,62.4 
		132.7,62.5 132.5,62.5 132.4,62.5 132.2,62.5 132.1,62.5 131.9,62.5 131.8,62.5 131.7,62.5 131.5,62.5 131.4,62.5 131.2,62.5 
		131.1,62.5 130.9,62.5 130.8,62.5 130.7,62.4 130.5,62.4 130.4,62.4 130.2,62.4 130,62.3 129.9,62.3 129.7,62.3 129.6,62.3 
		128.9,62.1 128.2,62.1 127.6,62 126.9,62 126.3,62 125.7,62.1 125.1,62.2 124.6,62.3 124,62.5 123.5,62.7 123,62.9 122.6,63.2 
		122.1,63.4 121.7,63.7 121.3,64.1 120.9,64.5 120.6,64.8 120.2,65.3 120,65.7 119.7,66.2 119.5,66.6 119.3,67.1 119.1,67.7 
		118.9,68.2 118.8,68.7 118.8,69.3 118.7,69.9 118.7,70.5 118.7,71.1 118.8,71.7 118.9,72.4 119,73 119.1,73.4 119.2,73.8 
		119.2,74.2 119.3,74.6 119.4,75 119.5,75.4 119.5,75.8 119.6,76.1 119.7,76.5 119.7,76.9 119.8,77.3 119.9,77.6 119.9,78 120,78.4 
		120.1,78.7 120.1,79.1 120.2,79.5 120.3,79.8 120.3,80.2 120.4,80.6 120.5,81 120.5,81.3 120.6,81.7 120.7,82.1 120.7,82.4 
		120.8,82.8 120.9,83.2 121,83.6 121,84 121.1,84.3 121.2,84.7 121.3,85.1 121.3,85.1 121.3,85.1 121.3,85.1 121.4,85.5 121.6,85.5 
		121.2,86.5 120.6,88 119.9,89.4 119.2,90.9 118.4,92.3 117.7,93.7 116.8,95 116,96.4 115.1,97.7 114.1,99 113.2,100.2 112.2,101.5 
		111.1,102.7 110.1,103.9 109,105 107.9,106.2 106.7,107.3 105.5,108.3 104.3,109.3 103.1,110.3 101.8,111.3 100.5,112.2 
		99.2,113.1 97.8,114 96.5,114.8 95.1,115.6 93.6,116.3 92.2,117 90.7,117.7 89.3,118.3 87.8,118.9 87.1,119.2 87.1,119.1 
		86.3,119.4 86.3,119.4 86.2,119.4 86.2,119.4 86.2,119.4 86.2,119.4 86,119.4 85.9,119.6 85.9,119.8 85.8,119.9 85.7,120.1 
		85.6,120.3 85.5,120.4 85.5,120.5 85.5,120.5 85.4,120.6 85.4,120.6 85.3,120.7 85.2,120.7 85.2,120.8 85.1,120.8 85,120.8 
		85,120.9 84.9,120.9 84.8,120.9 84.7,121 84.6,121 84.5,121 84.4,121 84,121.1 84,121.6 84,121.6 84,121.6 84,121.6 84,121.7 
		84,121.7 84,121.7 84,121.8 83.9,121.9 83.9,122.1 83.9,122.2 83.9,122.3 83.9,122.4 83.8,122.5 83.8,122.5 83.8,122.6 83.7,122.7 
		83.7,122.8 83.6,122.9 83.6,122.9 83.5,123 83.5,123.1 83.4,123.1 83.3,123.2 83.2,123.2 83.2,123.3 83.1,123.3 83,123.4 
		82.9,123.4 82.8,123.5 82.7,123.5 82.6,123.5 82.5,123.6 82.4,123.6 82.3,123.6 82.2,123.6 82,123.7 81.9,123.7 81.8,123.7 
		81.7,123.7 81.7,123.7 81.6,123.7 81.6,123.7 81.6,123.7 81.5,123.7 81.5,123.7 80.9,123.7 81,124.3 81,124.4 81,124.5 81,124.6 
		81,124.6 81,124.7 80.9,124.8 80.9,124.8 80.9,124.9 80.9,125 80.8,125 80.8,125.1 80.8,125.1 80.7,125.2 80.6,125.3 80.6,125.3 
		80.5,125.4 80.5,125.4 80.4,125.5 80.3,125.5 80.2,125.6 80.1,125.7 80,125.7 79.9,125.8 79.8,125.8 79.7,125.9 79.6,125.9 
		79.5,126 79.4,126 79.2,126.1 79.1,126.1 78.7,126.3 78.7,126.6 78.7,126.7 78.7,126.7 78.7,126.8 78.7,126.8 78.6,126.9 78.6,127 
		78.6,127.1 78.6,127.2 78.5,127.3 78.5,127.4 78.5,127.4 78.4,127.5 78.4,127.6 78.3,127.7 78.3,127.7 78.2,127.8 78.2,127.8 
		78.1,127.9 78.1,127.9 78,128 77.9,128 77.9,128.1 77.8,128.1 77.7,128.1 77.6,128.2 77.6,128.2 77.5,128.2 77.4,128.2 77.3,128.3 
		77.2,128.3 77.1,128.3 77.1,128.3 77,128.3 76.9,128.3 76.8,128.3 76.7,128.3 76.6,128.3 76.5,128.3 76.4,128.3 76.3,128.3 
		76.2,128.3 76.1,128.3 76,128.3 75.9,128.3 75.8,128.3 75.1,128.1 75.1,133.1 75.1,133.3 75.1,133.5 75,133.7 75,133.9 74.9,134 
		74.8,134.1 74.7,134.3 74.6,134.4 74.4,134.5 74.2,134.6 74,134.7 73.8,134.8 73.6,134.9 73.4,135 73.1,135.1 72.8,135.2 
		72.6,135.3 72.3,135.4 72,135.5 71.7,135.6 71.3,135.7 71,135.8 70.7,136 70.4,136.1 70.1,136.3 69.7,136.4 69.4,136.6 69.1,136.8 
		68.7,137 68.4,137.3 68.1,137.5 68,137.7 68,141.5 69,140.8 69.5,140.4 70.1,140.1 70.6,139.7 71.1,139.5 71.6,139.2 72.1,139 
		72.6,138.8 73.1,138.6 73.6,138.4 74.1,138.3 74.6,138.2 75,138.1 75.5,138 75.9,138 76.4,137.9 76.9,137.9 77.3,137.9 77.8,137.9 
		78.2,138 78.7,138 79.1,138 79.6,138.1 80.1,138.2 80.5,138.2 81,138.3 81.5,138.4 82,138.5 82.4,138.6 82.9,138.7 83.4,138.8 
		83.9,138.9 84.2,139 84.5,139.1 84.8,139.2 85.2,139.2 85.5,139.2 85.8,139.2 86.1,139.2 86.4,139.1 86.8,139.1 87.1,139 
		87.4,138.9 87.7,138.8 88,138.7 88.2,138.6 88.5,138.5 88.8,138.3 89.1,138.1 89.3,138 89.6,137.8 89.8,137.6 90,137.4 90.3,137.2 
		90.5,137.1 90.7,136.9 90.8,136.6 91,136.4 91.2,136.2 91.3,136 91.5,135.8 91.6,135.6 91.7,135.4 91.8,135.2 91.8,135 91.9,134.9 
		92,134.7 92,134.5 92.1,134.3 92.1,134.1 92.2,133.9 92.2,133.7 92.3,133.4 92.3,133.2 92.3,133 92.4,132.7 92.4,132.5 92.4,132.2 
		92.4,132 92.4,131.7 92.3,131.4 92.3,131.2 92.2,130.9 92.2,130.7 92.1,130.4 92,130.1 91.9,129.9 91.8,129.6 91.6,129.3 
		91.5,129.1 91.3,128.8 91.1,128.6 90.9,128.3 90.7,128.1 90.4,127.8 90.1,127.6 89.9,127.5 89.7,127.4 	"/>
	<path fill-rule="evenodd" clip-rule="evenodd" fill="#D24A45" d="M84,138.5c3.1,1.2,6.6-1.5,7.3-3.4c0.7-1.6,1.3-4.8-1.5-7
		c-1.6-1.1-4-0.2-4.4,1.5c-0.7,3.3,4.2,2.1,2.1,0.3c1.1-1.1,2.3,1.1,1.3,2.4c-2.2,2.4-4.2,0.9-5.1-1c-0.5-1.4-0.1-2.5,0.7-3.7
		c1.6-1.9,5.7-2.6,11.3-2c11.1,1,11.9-4.8,14.9-8.6c-3.6,0.9-4.9-0.8-3.5-2.9c1-1.7,10.1-8.8,13.6-14.6c2.3-3.3,3.9-6.8,5.3-10.3
		c1.5-3.9,3.2-4.6,4.9-4.1c-0.2-0.6-0.4-1.2-1-1.9c-0.9-0.8-1.9-0.7-2.9-0.5c1.9-3.4,0.1-5.9,0.5-8.1c0.2-1.9,1.6-3.6,4.3-2.8
		c1.7,0.5,1.3,3.7-0.5,2.8c1.3-2.6-3.7-2.1-1.6,1c1.1,1.3,3.7,1.4,5-0.4c1.8-3.1,0.9-5.9-2.2-7c2.1-1.3,2.7-3.5,2.4-6.1
		c-2.3,1.5-3.6,1-5.4,0.7c-7.1-1.4-11.5,3.5-10,10.2c1,4.3,1.3,7.9,2.3,12.1c0,0,0,0,0,0c0.2,0,0.3,0.1,0.5,0.1
		c-6.2,16.2-19.4,29.1-35.9,34.8c0,0,0-0.1,0-0.1c0,0,0,0-0.1,0c0,0-0.5,1-0.5,1c-0.3,0.3-0.8,0.6-1.4,0.7c0,0.1,0,0.1,0,0.2
		c0,0.8-0.3,1.3-0.7,1.8c-0.4,0.4-1.1,0.6-1.9,0.7c-0.1,0-0.2,0-0.4,0c0.1,0.6-0.1,1.1-0.5,1.5c-0.4,0.4-1,0.7-1.8,1
		c0,0.2,0,0.3-0.1,0.5h0c-0.2,0.7-0.5,1.1-1,1.4c-0.5,0.3-1,0.4-1.6,0.3c-0.3,0-0.6,0-0.8-0.1c0,1.5,0,2.9,0,4.4
		c0,3-4.5,2.1-7.5,5.1c0,0.9,0,1.8,0,2.7C74.3,136.1,78.6,137.4,84,138.5L84,138.5L84,138.5z"/>
	<polygon fill-rule="evenodd" clip-rule="evenodd" fill="#ECC446" points="47.7,127.1 47.9,127.1 48.1,127.1 48.3,127.1 48.5,127.1 
		48.7,127.2 48.8,127.2 49,127.3 49.2,127.3 49.4,127.4 49.6,127.5 49.7,127.6 49.9,127.7 50,127.8 50.2,127.9 50.3,128 50.5,128.2 
		50.6,128.3 50.7,128.5 50.8,128.6 50.9,128.8 51,129 51.1,129.1 51.1,129.3 51.2,129.7 51.2,130 51.2,130.3 51.1,130.6 51.1,130.8 
		51,131.1 50.8,131.3 50.7,131.5 50.5,131.6 50.3,131.7 50.1,131.8 49.9,131.9 49.7,132 49.5,132 49.2,132 49,132 48.8,132 
		48.6,131.9 48.4,131.8 48.3,131.7 48.1,131.6 47.9,131.5 47.8,131.3 47.7,131.1 47.6,130.9 47.6,130.7 47.6,130.5 47.7,130.3 
		47.8,130 47.8,130 47.8,130 47.7,130.1 47.6,130.3 47.5,130.5 47.5,130.6 47.4,130.9 47.4,131.1 47.4,131.3 47.5,131.5 47.6,131.7 
		47.7,131.9 47.8,132.1 48,132.2 48.2,132.4 48.4,132.5 48.6,132.6 48.7,132.7 48.9,132.8 49,132.9 49.2,132.9 49.4,132.9 49.5,133 
		49.6,133 49.8,133 49.9,132.9 50.1,132.9 50.2,132.9 50.3,132.8 50.5,132.8 50.6,132.7 50.7,132.6 50.9,132.5 51,132.4 51.1,132.3 
		51.2,132.2 51.3,132.1 51.4,131.9 51.5,131.8 51.6,131.6 51.7,131.5 51.8,131.3 51.9,131.2 52,131.1 52,130.9 52.1,130.6 
		52.1,130.4 52.1,130.2 52.1,130 52.1,129.8 52.1,129.6 52.1,129.4 52,129.2 52,129 51.9,128.8 51.8,128.6 51.7,128.4 51.6,128.2 
		51.5,128 51.4,127.8 51.2,127.7 51.1,127.5 50.9,127.4 50.7,127.3 50.5,127.1 50.3,127 50.1,126.9 49.9,126.8 49.6,126.7 
		49.4,126.5 49.1,126.5 48.8,126.4 48.5,126.3 48.2,126.2 47.8,126.1 47.5,126.1 47.1,126 46.8,126 46.4,125.9 46,125.9 45.6,125.8 
		45.2,125.8 44.8,125.8 44.3,125.8 43.9,125.8 43.4,125.8 43,125.8 42.5,125.9 42,125.9 41.5,125.9 41,126 40.5,126 39.4,126.1 
		38.5,126.1 37.6,126.1 36.7,126.1 35.9,126 35.1,125.9 34.4,125.8 33.7,125.6 33.1,125.4 32.5,125.2 31.9,125 31.4,124.7 
		30.9,124.4 30.5,124.1 30,123.8 29.6,123.4 29.3,123 28.9,122.7 28.6,122.3 28.3,121.9 28,121.5 27.7,121.1 27.4,120.7 27.2,120.3 
		26.9,119.9 26.7,119.5 26.4,119.1 26.2,118.7 25.9,118.4 25.7,118 25.4,117.6 24.4,116.3 26,116.6 26.3,116.7 26.5,116.7 
		26.8,116.7 27.1,116.8 27.3,116.8 27.5,116.8 27.7,116.7 27.9,116.7 28.1,116.7 28.3,116.6 28.4,116.6 28.5,116.5 28.6,116.4 
		28.7,116.4 28.8,116.3 28.9,116.2 29,116.2 29,116.1 29,116 29.1,115.9 29.1,115.8 29.1,115.7 29.1,115.6 29.1,115.4 29.1,115.3 
		29,115.2 29,115 28.9,114.9 28.8,114.7 28.7,114.6 28.6,114.4 28.5,114.2 28.4,114 28.2,113.8 27.9,113.6 27.7,113.3 27.3,113 
		27,112.6 26.6,112.3 26.2,111.9 25.8,111.5 25.3,111.1 24.9,110.6 24.4,110.2 23.9,109.7 23.4,109.2 22.8,108.7 22.3,108.2 
		21.7,107.6 21.2,107.1 20.7,106.5 20.1,106 19.6,105.4 19,104.9 18.5,104.3 18,103.7 17.5,103.1 17,102.6 16.6,102 16.1,101.4 
		15.7,100.9 15.3,100.3 15,99.8 14.8,99.4 14.6,99.1 14.4,98.8 14.2,98.5 14,98.2 13.8,97.9 13.6,97.6 13.4,97.2 13.2,96.9 13,96.6 
		12.8,96.3 12.7,96 12.5,95.6 12.3,95.3 12.1,95 12,94.6 11.8,94.3 11.6,94 11.5,93.7 11.3,93.3 11.2,93 11,92.7 10.9,92.3 10.7,92 
		10.6,91.7 10.4,91.3 10.3,91 10.1,90.7 10,90.3 9.9,90 9.7,89.7 9.6,89.3 9.5,89 9.3,88.6 9.2,88.3 9,88 8.9,87.8 8.8,87.5 
		8.6,87.3 8.5,87.1 8.3,86.9 8.2,86.7 8.1,86.5 7.9,86.3 7.8,86.2 7.6,86.1 7.5,86 7.4,85.9 7.2,85.8 7.1,85.7 7,85.6 6.9,85.6 
		6.7,85.5 6.6,85.5 6.5,85.4 6.3,85.4 6.2,85.4 6.1,85.4 5.9,85.4 5.8,85.4 5.7,85.4 5.5,85.4 5.4,85.5 4.5,85.7 4.7,84.8 4.7,84.7 
		4.8,84.6 4.8,84.4 4.9,84.3 4.9,84.2 5,84 5.1,83.9 5.1,83.8 5.2,83.6 5.3,83.5 5.4,83.4 5.5,83.3 5.6,83.1 5.7,83 5.8,82.8 
		6,82.7 6.2,82.5 6.4,82.4 6.6,82.3 6.8,82.2 7.1,82.2 7.3,82.1 7.5,82.1 7.7,82.1 7.9,82.1 8.1,82.1 8.3,82.1 8.2,81.9 8.1,81.6 
		8,81.3 7.9,81 7.8,80.7 7.8,80.4 7.7,80.1 7.7,79.8 7.7,79.5 7.7,79.2 7.7,78.9 7.7,78.7 7.8,78.4 7.8,78.1 7.8,77.9 7.9,77.6 
		7.9,77.4 7.9,77.2 8,76.9 8,76.7 8.1,76.5 8.1,76.3 8.1,76 8.1,75.8 8.2,75.6 8.2,75.4 8.2,75.2 8.2,75 8.2,74.8 8.1,74.6 
		8.1,74.5 8.1,74.3 8.1,74.2 8,74 8,73.9 7.9,73.7 7.9,73.6 7.8,73.4 7.7,73.3 7.7,73.2 7.6,73 7.5,72.9 7.4,72.8 7.3,72.7 
		7.2,72.6 7.1,72.5 7,72.4 6.9,72.3 6.7,72.3 6.6,72.2 6.5,72.2 6.3,72.1 6.2,72.1 6,72 5.8,72 5.7,72 5.5,72 5.3,72 5.1,72.1 
		4.9,72.1 4.7,72.1 4.4,72.2 4.2,72.3 4.1,72.4 3.9,72.6 3.8,72.7 3.8,72.9 3.7,73.2 3.7,73.4 3.7,73.6 3.8,73.8 3.8,74 3.9,74.1 
		4,74.2 4.1,74.2 4.2,74.2 4.2,74.2 4.1,73.9 4.1,73.7 4.1,73.4 4.2,73.2 4.3,73 4.4,72.8 4.6,72.7 4.8,72.6 5,72.5 5.2,72.4 
		5.4,72.4 5.6,72.4 5.8,72.4 6,72.4 6.2,72.5 6.4,72.6 6.6,72.7 6.7,72.8 6.9,72.9 7.1,73.1 7.2,73.3 7.3,73.5 7.3,73.8 7.4,74 
		7.4,74.3 7.3,74.6 7.2,74.8 7.1,75.1 7,75.4 6.8,75.8 6.6,75.9 6.5,76.1 6.3,76.2 6.2,76.3 6,76.4 5.8,76.5 5.7,76.6 5.5,76.7 
		5.3,76.7 5.1,76.8 4.9,76.8 4.7,76.9 4.5,76.9 4.3,76.9 4.1,76.9 3.9,76.9 3.7,76.9 3.5,76.9 3.3,76.9 3.1,76.8 2.9,76.7 2.7,76.7 
		2.6,76.6 2.4,76.5 2.2,76.4 2,76.3 1.8,76.2 1.6,76 1.5,75.9 1.3,75.7 1.2,75.6 1,75.4 0.8,75 0.7,74.7 0.5,74.4 0.4,74.1 
		0.3,73.8 0.2,73.5 0.1,73.2 0.1,72.9 0,72.7 0,72.4 0,72.1 0,71.8 0,71.5 0.1,71.3 0.1,71 0.2,70.7 0.3,70.5 0.4,70.2 0.5,70 
		0.7,69.8 0.8,69.5 1,69.3 1.2,69.1 1.4,68.9 1.6,68.7 1.8,68.5 2,68.4 2.3,68.2 2.5,68 2.7,68 2.5,67.9 2.4,67.7 2.2,67.6 
		2.1,67.4 1.9,67.2 1.8,67 1.6,66.9 1.5,66.7 1.4,66.5 1.3,66.3 1.2,66.1 1.1,65.9 1,65.7 1,65.4 0.9,65.2 0.8,65 0.8,64.8 
		0.7,64.6 0.7,64.3 0.7,64.1 0.7,63.9 0.7,63.6 0.6,63.4 0.6,63.2 0.7,62.9 0.7,62.7 0.7,62.4 0.7,62.2 0.8,61.2 1.7,61.7 1.9,61.8 
		2.1,61.9 2.2,62 2.4,62.1 2.6,62.2 2.8,62.3 2.9,62.3 3.1,62.4 3.3,62.4 3.4,62.5 3.6,62.5 3.7,62.5 3.8,62.5 4,62.5 4.1,62.5 
		4.3,62.5 4.4,62.5 4.6,62.5 4.7,62.5 4.8,62.5 5,62.5 5.1,62.5 5.3,62.5 5.4,62.4 5.6,62.4 5.7,62.4 5.9,62.4 6,62.3 6.2,62.3 
		6.3,62.3 6.5,62.3 7.2,62.1 7.9,62.1 8.5,62 9.1,62 9.8,62 10.4,62.1 10.9,62.2 11.5,62.3 12,62.5 12.5,62.7 13,62.9 13.5,63.2 
		14,63.4 14.4,63.7 14.8,64.1 15.2,64.5 15.5,64.8 15.8,65.3 16.1,65.7 16.4,66.2 16.6,66.6 16.8,67.1 17,67.7 17.1,68.2 17.2,68.7 
		17.3,69.3 17.4,69.9 17.4,70.5 17.3,71.1 17.3,71.7 17.2,72.4 17.1,73 17,73.4 16.9,73.8 16.7,74.6 16.6,75 16.6,75.4 16.5,75.8 
		16.4,76.1 16.3,76.5 16.2,76.9 16.2,77.3 16.1,77.6 16,78 15.9,78.4 15.8,78.7 15.8,79.1 15.7,79.5 15.6,79.8 15.6,80.2 15.5,80.6 
		15.4,80.9 15.4,81.3 15.3,81.7 15.2,82 15.2,82.4 15.1,82.8 15.1,83.2 15,83.5 14.9,83.9 14.9,84.3 14.8,84.7 14.7,85.3 14.4,85.5 
		14.8,86.6 15.5,88.1 16.1,89.5 16.8,91 17.6,92.4 18.4,93.8 19.2,95.2 20.1,96.5 21,97.9 21.9,99.2 22.9,100.4 23.9,101.7 
		24.9,102.9 26,104.1 27.1,105.2 28.2,106.4 29.4,107.5 30.6,108.5 31.8,109.5 33.1,110.5 34.3,111.5 35.6,112.4 37,113.3 
		38.3,114.2 39.7,115 41.1,115.7 42.6,116.5 44,117.2 45.5,117.8 47,118.5 48.5,119 49.2,119.3 49.1,119.1 50,119.4 50,119.4 
		50,119.4 50,119.4 50,119.4 50.1,119.4 50.1,119.4 50.2,119.5 50.4,119.7 50.4,119.8 50.5,119.9 50.6,120.1 50.6,120.3 50.7,120.4 
		50.7,120.5 50.7,120.5 50.8,120.5 50.8,120.6 50.9,120.6 50.9,120.6 51,120.7 51.1,120.7 51.1,120.7 51.2,120.8 51.3,120.8 
		51.4,120.8 51.4,120.8 51.5,120.9 51.6,120.9 51.7,120.9 52.2,121 52.2,121.4 52.2,121.4 52.2,121.5 52.2,121.5 52.2,121.6 
		52.2,121.6 52.2,121.6 52.2,121.7 52.2,121.9 52.2,122 52.3,122.1 52.3,122.2 52.3,122.3 52.3,122.4 52.4,122.5 52.4,122.6 
		52.5,122.6 52.5,122.7 52.5,122.8 52.6,122.9 52.7,122.9 52.7,123 52.8,123.1 52.8,123.1 52.9,123.2 53,123.2 53.1,123.3 
		53.1,123.3 53.2,123.4 53.3,123.4 53.4,123.5 53.5,123.5 53.6,123.5 53.7,123.6 53.9,123.6 54,123.6 54.1,123.6 54.2,123.6 
		54.4,123.7 54.4,123.7 54.5,123.7 54.5,123.7 54.6,123.7 54.6,123.7 55.2,123.7 55.1,124.4 55.1,124.6 55.1,124.7 55.2,124.8 
		55.2,124.9 55.3,125 55.3,125.1 55.4,125.2 55.5,125.3 55.7,125.4 55.8,125.4 56,125.5 56.2,125.6 56.4,125.7 56.6,125.8 
		56.9,125.9 56.9,125.9 56.9,125.9 57,125.9 57,125.9 57,125.9 57.1,125.9 57.1,126 57.4,126.1 57.4,126.4 57.4,126.5 57.4,126.5 
		57.4,126.6 57.5,126.6 57.5,126.7 57.5,126.7 57.5,126.8 57.5,126.9 57.5,127 57.6,127.1 57.6,127.2 57.7,127.3 57.7,127.3 
		57.8,127.4 57.8,127.5 57.9,127.6 57.9,127.6 58,127.7 58.1,127.8 58.1,127.8 58.2,127.9 58.3,127.9 58.4,128 58.5,128 58.5,128.1 
		58.6,128.1 58.7,128.1 58.8,128.2 58.9,128.2 59,128.2 59.1,128.2 59.2,128.3 59.3,128.3 59.4,128.3 59.5,128.3 59.6,128.3 
		59.7,128.3 59.8,128.3 59.9,128.3 60,128.3 60,128.3 60.1,128.3 60.2,128.3 60.2,128.3 60.3,128.3 60.3,128.3 60.9,128.2 
		60.9,133.1 60.9,133.3 61,133.5 61,133.7 61.1,133.9 61.2,134 61.2,134.2 61.4,134.3 61.5,134.5 61.6,134.6 61.8,134.7 62,134.8 
		62.2,134.9 62.4,135 62.7,135.1 62.9,135.2 63.2,135.3 63.5,135.4 63.7,135.5 64,135.6 64.3,135.7 64.7,135.8 65,135.9 65.3,136.1 
		65.6,136.2 66,136.3 66.3,136.5 66.6,136.7 67,136.9 67.3,137.1 67.6,137.3 67.9,137.5 68,137.7 68,141.5 67.1,140.8 66.5,140.4 
		66,140.1 65.5,139.7 64.9,139.5 64.4,139.2 63.9,139 63.4,138.8 62.9,138.6 62.5,138.4 62,138.3 61.5,138.2 61,138.1 60.6,138 
		60.1,138 59.7,137.9 59.2,137.9 58.7,137.9 58.3,137.9 57.8,138 57.4,138 56.9,138 56.5,138.1 56,138.2 55.5,138.2 55.1,138.3 
		54.6,138.4 54.1,138.5 53.6,138.6 53.1,138.7 52.6,138.8 52.2,138.9 51.9,139 51.6,139.1 51.2,139.2 50.9,139.2 50.6,139.2 
		50.3,139.2 49.9,139.2 49.6,139.1 49.3,139.1 49,139 48.7,138.9 48.4,138.8 48.1,138.7 47.8,138.6 47.5,138.5 47.3,138.3 47,138.1 
		46.7,138 46.5,137.8 46.3,137.6 46,137.4 45.8,137.2 45.6,137.1 45.4,136.9 45.2,136.6 45,136.4 44.9,136.2 44.7,136 44.6,135.8 
		44.5,135.6 44.4,135.4 44.3,135.2 44.2,135 44.2,134.9 44.1,134.7 44,134.5 44,134.3 43.9,134.1 43.9,133.9 43.8,133.7 43.8,133.4 
		43.7,133.2 43.7,133 43.7,132.7 43.7,132.5 43.7,132.2 43.7,132 43.7,131.7 43.7,131.4 43.8,131.2 43.8,130.9 43.9,130.7 44,130.4 
		44.1,130.1 44.2,129.9 44.3,129.6 44.4,129.3 44.6,129.1 44.8,128.8 45,128.6 45.2,128.3 45.4,128.1 45.7,127.8 46,127.6 
		46.1,127.5 46.3,127.4 46.5,127.3 46.7,127.2 46.9,127.2 47.1,127.1 47.3,127.1 47.5,127.1 47.7,127.1 	"/>
	<path fill-rule="evenodd" clip-rule="evenodd" fill="#3A4070" d="M52,138.5c-3.1,1.2-6.6-1.5-7.3-3.4c-0.7-1.6-1.3-4.8,1.5-7
		c1.6-1.1,4-0.2,4.4,1.5c0.7,3.3-4.2,2.1-2.1,0.3c-1.1-1.1-2.3,1.1-1.3,2.4c2.2,2.4,4.2,0.9,5.1-1c0.5-1.4,0.1-2.5-0.7-3.7
		c-1.6-1.9-5.7-2.6-11.3-2c-11.1,1-11.9-4.8-14.9-8.6c3.6,0.9,4.9-0.8,3.5-2.9c-1-1.7-10.1-8.8-13.6-14.6c-2.3-3.3-3.9-6.8-5.3-10.3
		c-1.5-3.9-3.2-4.6-4.9-4.1c0.2-0.6,0.4-1.2,1-1.9C7,82.4,8,82.4,9.1,82.7c-1.9-3.4-0.1-5.9-0.5-8.1c-0.2-1.9-1.6-3.6-4.3-2.8
		c-1.7,0.5-1.3,3.7,0.5,2.8c-1.3-2.6,3.7-2.1,1.6,1c-1.1,1.3-3.7,1.4-5-0.4c-1.8-3.1-0.9-5.9,2.2-7c-2.1-1.3-2.7-3.5-2.4-6.1
		c2.3,1.5,3.6,1,5.4,0.7c7.1-1.4,11.5,3.5,10,10.2c-1,4.3-1.7,7.9-2.3,12.1c-0.3,0-0.2,0.1-0.2,0.1c-0.1,0-0.2,0-0.4,0.1
		c6.1,16.4,19.5,29.3,36.1,34.8c0-0.1,0-0.1-0.1-0.2c0,0,0.1,0,0.1,0c0,0.1,0.4,0.9,0.5,0.9c0.3,0.3,0.7,0.5,1.4,0.6
		c0,0.1,0,0.2,0,0.2c0,0.8,0.3,1.4,0.7,1.8c0.4,0.4,1.1,0.7,1.9,0.7c0.1,0,0.2,0,0.3,0c-0.2,1.4,0.7,1.7,2,2.2
		c0.1,0,0.2,0.1,0.3,0.1c0,0.2,0,0.3,0.1,0.5c0.2,0.7,0.6,1.2,1.1,1.5c0.5,0.3,1.2,0.4,1.8,0.4c0.2,0,0.3,0,0.5,0v4.4
		c0,3.1,4.3,2.3,7.5,5.1c0,0.9,0,1.8,0,2.7C61.7,136.1,57.4,137.4,52,138.5L52,138.5L52,138.5z"/>
	<path fill-rule="evenodd" clip-rule="evenodd" fill="#ECC446" d="M68.1,13.5c3.8,0,6.8,3.1,6.8,6.8c0,3.8-3.1,6.8-6.8,6.8
		c-3.8,0-6.8-3.1-6.8-6.8C61.3,16.6,64.4,13.5,68.1,13.5L68.1,13.5L68.1,13.5z M66.7,12.1c0.5-0.1,0.7-0.4,0.9-1
		c0.1-0.6,0.7-0.9,1.3-1c1-0.1,0.8,1.2,0.1,1c-0.8-0.4-1.4,0.6-0.3,0.9c0,0,0,0,0,0c0.5,0,0.9-0.2,1.3-0.7c0.3-0.5,0.9-0.7,1.5-0.6
		c1,0.2,0.5,1.4-0.1,0.9c-0.7-0.6-1.5,0.3-0.4,0.8c0.5,0.1,0.9,0,1.3-0.4c0.4-0.4,1.1-0.4,1.6-0.2c0.9,0.5,0.1,1.5-0.4,0.9
		c-0.5-0.7-1.5-0.2-0.7,0.6c0,0,0,0,0,0c0.4,0.3,0.9,0.3,1.4,0c0.5-0.3,1.1-0.2,1.6,0.2c0.8,0.7-0.3,1.4-0.6,0.8
		c-0.3-0.9-1.4-0.6-0.8,0.5c0,0,0,0,0,0c0.3,0.4,0.8,0.5,1.4,0.4c0.6-0.2,1.1,0.1,1.5,0.6c0.6,0.9-0.7,1.3-0.8,0.6
		c-0.1-0.9-1.2-0.9-0.9,0.2c0,0,0,0,0,0c0.2,0.5,0.6,0.7,1.2,0.8c0.6,0,1.1,0.4,1.3,1c0.3,1-1,1.1-0.9,0.4c0.2-0.9-1-1.2-1,0
		c0,0,0,0,0,0c0.1,0.5,0.4,0.8,1,1c0.6,0.1,0.9,0.7,1,1.3c0.1,1-1.2,0.8-1,0.1c0.4-0.8-0.7-1.4-0.9-0.2c0,0.5,0.2,0.8,0.7,1.2
		c0.5,0.3,0.7,0.9,0.6,1.5c-0.2,1-1.4,0.5-0.9-0.1c0.6-0.7-0.2-1.5-0.8-0.5c0,0,0,0,0,0c-0.2,0.5-0.1,0.9,0.3,1.4
		c0.4,0.4,0.4,1.1,0.2,1.6c-0.5,0.9-1.5,0.1-0.9-0.4c0.7-0.5,0.2-1.5-0.7-0.7c0,0,0,0,0,0c-0.3,0.4-0.3,0.9,0,1.4
		c0.3,0.5,0.2,1.1-0.2,1.6c-0.7,0.8-1.4-0.3-0.8-0.6c0.9-0.3,0.5-1.4-0.5-0.8c-0.4,0.3-0.5,0.8-0.4,1.4c0.2,0.6-0.1,1.1-0.6,1.5
		c-0.9,0.6-1.3-0.7-0.6-0.8c0.9-0.1,0.9-1.2-0.2-0.9c0,0,0,0,0,0c-0.5,0.2-0.7,0.6-0.7,1.2c0,0.6-0.4,1.1-1,1.3
		c-1,0.3-1.1-1-0.4-0.9c0.9,0.2,1.2-1,0-1c0,0,0,0,0,0c-0.5,0.1-0.8,0.4-1,1c-0.1,0.6-0.7,0.9-1.3,1c-1,0.1-0.8-1.2-0.1-1
		c0.8,0.4,1.4-0.6,0.2-0.9c-0.5,0-0.9,0.2-1.2,0.7c-0.3,0.5-0.9,0.7-1.5,0.6c-1-0.2-0.5-1.4,0.1-0.9c0.7,0.6,1.5-0.2,0.5-0.8
		c0,0,0,0,0,0c-0.5-0.2-0.9-0.1-1.4,0.3c-0.4,0.4-1.1,0.4-1.6,0.2c-0.9-0.5-0.1-1.5,0.4-0.9c0.5,0.7,1.5,0.2,0.7-0.6c0,0,0,0,0,0
		c-0.4-0.3-0.9-0.3-1.5,0c-0.5,0.3-1.1,0.2-1.6-0.2c-0.8-0.7,0.3-1.4,0.6-0.8c0.3,0.8,1.4,0.6,0.8-0.4c0,0,0,0,0,0
		c-0.3-0.4-0.8-0.5-1.4-0.4c-0.6,0.2-1.1-0.1-1.5-0.6c-0.6-0.9,0.7-1.3,0.8-0.6c0.1,0.9,1.2,0.9,0.9-0.2c-0.2-0.5-0.6-0.7-1.2-0.7
		c-0.6,0-1.1-0.4-1.3-1c-0.3-1,1-1.1,0.9-0.4c-0.2,0.9,1,1.2,1,0c0,0,0,0,0,0c-0.1-0.5-0.4-0.8-1-1c-0.6-0.1-0.9-0.7-1-1.3
		c-0.1-1,1.2-0.8,1-0.1c-0.4,0.8,0.6,1.4,0.9,0.3c0,0,0,0,0,0c0-0.5-0.2-0.9-0.7-1.3c-0.5-0.3-0.7-0.9-0.6-1.5
		c0.2-1,1.4-0.5,0.9,0.1c-0.6,0.7,0.2,1.5,0.8,0.5c0,0,0,0,0,0c0.2-0.5,0-0.9-0.4-1.4c-0.4-0.4-0.4-1.1-0.2-1.6
		c0.5-0.9,1.5-0.1,0.9,0.4c-0.8,0.5-0.1,1.6,0.7,0.7c0.3-0.4,0.3-0.9,0-1.4c-0.3-0.5-0.2-1.1,0.2-1.6c0.7-0.8,1.4,0.3,0.8,0.6
		c-0.9,0.3-0.5,1.4,0.5,0.8c0.4-0.3,0.5-0.8,0.4-1.4c-0.2-0.6,0.1-1.1,0.6-1.5c0.9-0.6,1.3,0.7,0.6,0.8c-0.9,0.1-0.9,1.3,0.3,0.9
		c0.5-0.2,0.6-0.6,0.7-1.2c0-0.6,0.4-1.1,1-1.3c1-0.3,1.1,1,0.4,0.9C65.7,11,65.4,12.1,66.7,12.1L66.7,12.1L66.7,12.1z M68.1,12.4
		c4.4,0,7.9,3.6,7.9,7.9c0,4.4-3.6,7.9-7.9,7.9c-4.4,0-7.9-3.6-7.9-7.9C60.2,16,63.8,12.4,68.1,12.4L68.1,12.4z"/>
	<path fill-rule="evenodd" clip-rule="evenodd" fill="#ECC446" d="M81.5,121.1C81.5,121.1,81.5,121.1,81.5,121.1L81.5,121.1
		L81.5,121.1z M54.5,121.1C54.5,121.1,54.5,121.1,54.5,121.1L54.5,121.1L54.5,121.1z M60.5,127.2h15.2c0,0.3,0,0.7,0,1
		c0.3,0.1,0.6,0.1,0.9,0.1c0.5,0,1-0.1,1.4-0.3c0.4-0.2,0.7-0.6,0.8-1.1v0c0-0.2,0.1-0.3,0.1-0.5l0-0.1c-0.2-0.7-0.7-1.6-1.6-1.5
		c-1,0.1-0.7,1.5-0.1,1.4c0.3-0.1,0.4-0.5-0.1-0.5c0.2-0.4,0.8-0.2,0.7,0.3c-0.1,1.3-2.3,0.4-2.9-0.2c-0.7,0.6-1.9,0.6-2.6,0.1
		c-0.8,0.7-1.8,0.7-2.6,0c-0.5,0.3-1,0.5-1.5,0.5c-0.5,0-1-0.1-1.5-0.5c-0.8,0.7-1.8,0.7-2.6,0c-0.8,0.5-1.9,0.5-2.6-0.1
		c-0.6,0.6-2.9,1.5-2.9,0.2c0-0.5,0.5-0.7,0.7-0.3c-0.4,0.1-0.4,0.5-0.1,0.5c0.7,0.1,1-1.3-0.1-1.4c-1-0.1-1.4,0.5-1.5,1.2l0,0
		l0,0.1c0,0.2,0,0.4,0.1,0.5c0.1,0.6,0.5,1,0.9,1.3c0.5,0.3,1,0.4,1.6,0.3c0.2,0,0.4,0,0.5-0.1V127.2L60.5,127.2L60.5,127.2z
		 M75.6,128.7c0,1.5,0,2.9,0,4.4c0,3.1-4.6,2.1-7.6,5.2c-3.1-2.9-7.6-2-7.6-5.2v-4.4c-0.2,0-0.3,0-0.5,0c-0.6,0-1.3-0.1-1.8-0.4
		c-0.5-0.3-0.9-0.8-1.1-1.5c0-0.1-0.1-0.3-0.1-0.5c-0.1,0-0.2-0.1-0.3-0.1c-1.3-0.5-2.2-0.8-2-2.2c-0.1,0-0.2,0-0.3,0
		c-0.8-0.1-1.5-0.3-1.9-0.7c-0.4-0.4-0.7-1-0.7-1.8c0-0.1,0-0.2,0-0.2c-0.6-0.1-1.1-0.3-1.4-0.6c-1.3-1.3-0.5-4.6,1.8-4.1
		c0.7,0.2,1,0.5,1.1,1c0.2-0.4,0.9-1.2,1.1-1.3c0.3-0.2,0.7-0.7,1-1c0.3-0.4,3.2-3.3,3.7-3.8c0.7-0.8,2.7-2.7,3.4-3.9
		c0.8-1.6,0.6-0.4,2.3,0.5c1.3,1.1,0.7,0.8,2-0.7c0.7-0.6,1.1-0.9,1.3-1.1c0.3-0.7,0.6-0.4,1,0.1c0.4,0.4,1,1.1,1.3,1.4
		c0.6,1.1,1.5,0.2,1.5-0.1c0.5-0.8,0.8,0.4,2.6,2.3c0.8,1.1,1.1,0.5,1.5,0.1c0.3-0.5,0.3-0.7,0.5-0.7c0-0.5,0.5,0.4,0.5,0.4
		c0.9,1.3,2.4,2.4,3.5,3.8c0.5,0.4,1.5,1.7,1.9,2.2c0.3,0.4,0.8,0.8,1.1,1.1c0.2-0.1,0.4-0.2,0.6-0.3c1.7-0.4,2.3,0.9,2.5,2
		c0,0.3,0,0.6,0,0.9l0,0c-0.1,0.5-0.3,0.9-0.6,1.2c-0.3,0.3-0.8,0.6-1.4,0.7c0,0.1,0,0.1,0,0.2c0,0.8-0.3,1.3-0.7,1.8
		c-0.4,0.4-1.1,0.6-1.9,0.7c-0.1,0-0.2,0-0.4,0c0.1,0.6-0.1,1.1-0.5,1.5c-0.4,0.4-1,0.7-1.8,1c0,0.2,0,0.3-0.1,0.5h0
		c-0.2,0.7-0.5,1.1-1,1.4c-0.5,0.3-1,0.4-1.6,0.3C76.2,128.8,75.9,128.8,75.6,128.7L75.6,128.7L75.6,128.7z M57,126
		c0-0.8,0.5-1.5,1.9-1.5c0.9,0,1.2,0.9,1,1.6c0.5,0,0.9-0.4,1.4-0.7c0.8,0.7,1.8,0.7,2.7,0c0.9,0.8,1.7,0.8,2.6,0c1,0.8,2,0.8,3,0
		c0.9,0.8,1.7,0.8,2.6,0c0.8,0.6,1.9,0.7,2.7,0c0.4,0.3,0.9,0.7,1.4,0.7c-0.3-0.7,0.1-1.6,1-1.6c1.3,0,1.7,0.8,1.9,1.6
		c0,0.1,0,0.1,0,0.2c0.6-0.3,1.2-0.5,1.6-0.8c0.4-0.3,0.5-0.8,0.4-1.4l-0.1-0.3l0,0c-0.2-0.6-0.7-1.2-1.5-1.1
		c-1,0.1-0.7,1.5-0.1,1.4c0.3-0.1,0.4-0.5-0.1-0.5c0.2-0.4,0.8-0.2,0.7,0.3c-0.1,1.4-2.1,0.4-2.8-0.2c-0.7,0.6-1.6,0.6-2.4,0.1
		c-0.8,0.7-1.8,0.7-2.6,0c-0.8,0.5-1.8,0.6-2.6,0.1c0,0,0,0,0,0c-0.1,0-0.1-0.1-0.2-0.1c-0.5,0.3-0.9,0.5-1.4,0.5
		c-0.5,0-1-0.2-1.4-0.5c-0.8,0.6-1.9,0.6-2.8,0c-0.8,0.7-1.8,0.7-2.6,0c-0.8,0.5-1.6,0.5-2.4-0.1c-0.7,0.6-2.7,1.6-2.8,0.2
		c0-0.5,0.5-0.7,0.7-0.3c-0.4,0.1-0.4,0.5-0.1,0.5c0.7,0.1,1-1.3-0.1-1.4c-0.9-0.1-1.4,0.7-1.6,1.5c-0.1,1.1,0.6,1.4,1.8,1.8
		C56.9,125.9,56.9,126,57,126L57,126L57,126z M54.8,123.7c0.2-0.7,0.7-1.5,1.9-1.5c0.9,0,1.2,0.9,1,1.6c0.5-0.1,0.8-0.5,1.2-0.7
		c0.8,0.7,1.5,0.7,2.3,0c0.9,0.8,1.7,0.8,2.6,0c1,0.7,1.8,0.8,2.8,0c0,0,0,0,0,0c0,0,0,0,0,0c0.4,0.3,0.9,0.6,1.4,0.6c0,0,0,0,0,0
		c0,0,0,0,0,0c0,0,0,0,0,0c0.4,0,0.8-0.1,1.2-0.4c0.1,0,0.1-0.1,0.2-0.2c0,0,0,0,0,0c0,0,0,0,0,0c1,0.8,1.8,0.7,2.8,0
		c0.9,0.8,1.7,0.8,2.6,0c0.8,0.6,1.5,0.7,2.3,0c0.4,0.2,0.8,0.6,1.2,0.7c-0.3-0.7,0.1-1.6,1-1.6c1.4,0,1.7,0.9,1.9,1.5
		c0.2,0,0.3,0,0.4,0c0.7,0,1.3-0.2,1.6-0.6c0.4-0.3,0.6-0.8,0.6-1.4c-0.2-0.8-1-1.7-1.8-1.6c-1,0.1-0.9,1.5-0.1,1.4
		c0.2-0.1,0.4-0.4,0-0.5c0.2-0.4,0.8-0.2,0.8,0.3c0,1.4-2.2,0.7-2.8,0.4c-0.4,0.3-0.7,0.5-1.1,0.5c-0.4,0-0.8-0.1-1.2-0.4
		c-0.4,0.3-0.8,0.5-1.3,0.5c-0.4,0-0.9-0.1-1.3-0.5c-0.5,0.3-1,0.5-1.5,0.5c-0.5,0-0.9-0.2-1.3-0.5c-0.5,0.3-1,0.5-1.5,0.5
		c-0.5,0-1-0.2-1.4-0.5c-1,0.7-2,0.7-2.9,0c-0.5,0.3-0.9,0.5-1.4,0.5c-0.5,0-1-0.2-1.5-0.5c-0.4,0.3-0.9,0.5-1.3,0.5
		c-0.5,0-1-0.1-1.5-0.5c-0.4,0.4-0.9,0.5-1.3,0.5c-0.4,0-0.9-0.2-1.3-0.5c-0.4,0.3-0.8,0.4-1.2,0.4c-0.4,0-0.8-0.2-1.1-0.5
		c-0.6,0.3-2.8,1-2.8-0.4c0-0.5,0.6-0.7,0.8-0.3c-0.3,0.1-0.2,0.4,0,0.5c0.8,0.2,0.8-1.2-0.3-1.4c-0.7-0.1-1.2,0.5-1.5,1.2
		c0,0.1,0,0.2,0,0.3c0,0.7,0.2,1.2,0.6,1.5c0.4,0.4,0.9,0.6,1.6,0.6C54.5,123.7,54.6,123.7,54.8,123.7L54.8,123.7L54.8,123.7z
		 M51.8,121c0.2-0.5,0.7-1.3,1.8-1.2c0.9,0,1.7,1,1,2c0.4-0.1,0.8-0.2,1.2-0.4l0.1-0.1l0.1,0.1c0.3,0.3,0.7,0.4,1,0.5
		c0.3,0,0.7-0.1,1.1-0.4l0.1-0.1l0.1,0.1c0.4,0.3,0.8,0.5,1.2,0.5c0.4,0,0.8-0.1,1.2-0.5l0.1-0.1l0.1,0.1c0.5,0.4,0.9,0.5,1.4,0.5
		c0.4,0,0.8-0.2,1.2-0.5l0.1-0.1l0.1,0.1c0.5,0.3,0.9,0.5,1.3,0.5c0.4,0,0.9-0.2,1.3-0.5l0.1-0.1l0.1,0.1c0.9,0.7,1.8,0.7,2.7,0
		l0.1-0.1l0.1,0.1c0.4,0.3,0.9,0.5,1.3,0.5c0.4,0,0.9-0.2,1.3-0.5l0.1-0.1l0.1,0.1c0.4,0.3,0.8,0.5,1.2,0.5c0.4,0,0.9-0.1,1.4-0.5
		l0.1-0.1l0.1,0.1c0.4,0.4,0.8,0.5,1.2,0.5c0.4,0,0.8-0.2,1.2-0.5l0.1-0.1l0.1,0.1c0.4,0.3,0.7,0.4,1.1,0.4c0.3,0,0.7-0.2,1-0.5
		l0.1-0.1l0.1,0.1c0.4,0.2,0.8,0.3,1.2,0.4c-0.7-0.9,0-1.9,0.9-2c1-0.1,1.6,0.6,2,1.4c0.6-0.1,1.1-0.3,1.3-0.6
		c0.2-0.2,0.4-0.5,0.5-0.8c0.3-1.3-0.2-3.1-2.1-2.6c-1.1,0.3-1.4,2.1,0,2c0.5,0,0.3-0.7-0.2-0.8c0.2-0.4,1-0.1,0.9,0.6
		c-0.1,0.7-0.7,0.8-1.2,0.6c-0.4-0.2-0.9-0.6-1.1-1.1c-9.3,0-18.6,0-27.9,0c2.6-2.3,5.2-4.6,7.9-6.9c0.3-0.3,0.4-0.3,0.4,0
		c-0.1,0.5-0.1,1.1-0.2,1.6c-0.1,0.6,0.2,0.4,0.6,0.2c0.7-1,1.5-2,2.2-3c0.3-0.1,0.4,0,0.3,0.1c-0.7,1.3-1.7,2.7-2.4,4
		c-0.5,0.9,0.1,0.7,0.7,0.3c1.1-1.2,2.5-2.4,3.4-3.5c1.8,1.3,3.6,2.6,5.4,3.9c0.5,0.2,0.7,0.1,0.7-0.2c-0.7-1.1-1.5-2.2-2.2-3.3
		c-0.1-0.2,0-0.3,0.2-0.3c0.4,0.5,0.9,1,1.3,1.5c0.4,0.3,0.5,0.2,0.2-0.3c0-0.1-0.2-0.4-0.3-0.5c-0.3-0.3-0.1-0.4,0.2-0.4
		c1.1,1.3,2.3,2.3,3.5,3.4c0.6,0.2,0.6-0.1,0.4-0.7c-0.3-0.4-0.7-0.9-1-1.3c-0.3-0.4-0.3-0.6-0.1-0.5c2.2,1.8,4.5,3.5,6.7,5.3
		c0.1,0,0.3,0,0.6,0c0-0.2,0.1-0.4,0.3-0.7c-0.4-0.2-1.4-1.2-1.6-1.4c-1.4-1.3-3.1-3.2-4.4-4.4c-0.2-0.3-0.7-0.7-0.8-0.7
		c-0.4,0.7-1.2,1.3-1.2,1.3c-1.1-1.2-1.8-2.4-3.2-3.3c-0.3,0.1-0.5,0.4-0.6,0.4c-0.5,1.1-0.2,0.2-2.2-1.5c-0.3-0.3-0.7-0.5-0.8-0.6
		c-0.9,0.7-0.6,0.7-2,2.3c-0.7,1.1-0.1,0.6-2.3-0.8c-1-0.7-0.7-0.4-2.5,1.5c-0.7,0.9-1.8,1.9-2.8,3c-1.1,1.2-2.7,2.7-4.1,4
		c-0.1,0.1-0.4,0.6-0.6,0.8c0,0.1-0.2,0.3-0.2,0.3c-0.4,0.5-0.7,1-1.1,1.2c-0.5,0.3-1.1,0.1-1.2-0.6c-0.1-0.7,0.5-1,0.9-0.6
		c-0.6,0-0.7,0.8-0.2,0.8c1.3,0.1,1.2-1.6,0-1.9c-1.5-0.4-2.1,1.1-1.9,2.3l0,0c0,0.5,0.2,0.8,0.4,1.1
		C50.9,120.7,51.3,120.9,51.8,121L51.8,121L51.8,121z M55.2,120.7c0.5,0,1,0.1,1.4,0.1c0.9-0.8,1.9-1.1,2.2-1.3
		c0.3-0.1,0.8-0.4,0.8-0.6c0-0.1-0.6,0-0.7,0c-0.5,0-1.4-0.1-1.8,0.1c-0.6,0.3-1.3,0.7-2.1,0.7c0,0-0.5,0.1-0.4,0.4
		C54.9,120.3,55.2,120.6,55.2,120.7L55.2,120.7z M77,119.3c0.3,0.1,1,0.4,1.3,0.7c0.3,0.2,1.7,1.3,2.2,0.6c0.1-0.1,1-0.6,0.5-0.8
		c-0.7-0.2-1.8-0.9-2.6-0.8c-0.8,0.1-1.1-0.1-1.6-0.2c-0.8-0.1-0.5,0.2-0.2,0.3L77,119.3L77,119.3L77,119.3z M73.3,119.2
		c0.2,0.3,0.7,0.4,1,0.5c0.4,0.3,0.7,1,0.8,1c0.3,0.1,1.2,0.1,1.6,0c0.6-0.1,1.3,0.3,1.8,0c0.4-0.2-1.2-0.5-1.3-0.5
		c-1.7-0.7-1.5-1.3-3-1.3C73.9,119,72.8,118.7,73.3,119.2L73.3,119.2L73.3,119.2z M72.1,120.8l2.4,0.1c0.1-0.5-0.6-0.4-1.1-0.7
		c-0.4-0.4-0.6-0.7-1.1-1c-0.2-0.2-1-0.2-1.3-0.2c-0.4,0-0.9-0.1-1.3-0.1c0,0.1,0,0.2,0,0.2c0.1,0,0.4,0.2,0.6,0.4
		c0.1,0.1,0.2,0.2,0.4,0.4c0.2,0.3,0.1,0.8,0.4,0.8C71.2,120.8,71.8,120.8,72.1,120.8L72.1,120.8L72.1,120.8z M67.9,119.1
		c0.2,0.4,0.3,0.8,0.3,1c0,0.3-0.3,0.8,0.1,0.8c0.7-0.1,1.3,0,2.1,0c0.3-0.2-0.6-0.8-0.8-1.1c-0.1-0.3-0.4-0.8-0.7-0.8
		C68.5,118.9,67.8,118.8,67.9,119.1L67.9,119.1L67.9,119.1z M65.9,119.4c-0.2,1.1-0.9,1-0.9,1.2c-0.1,0.3,0.8,0.2,1.4,0.1
		c0.4,0,1.4,0.3,1.2-0.4c-0.2-0.5,0.1-1.4-0.3-1.4C66.3,119,65.9,118.8,65.9,119.4L65.9,119.4z M61.6,120.9c0.3,0.1,0.6,0.1,0.9,0
		c0.6-0.1,1.2-0.1,1.8-0.1c0.2,0,0.3-0.4,0.6-1c0,0,0.2-0.2,0.4-0.5c0.3-0.5,0-0.4-0.4-0.4c-0.3,0.1-0.7,0.1-0.8,0.1
		c-0.3,0-0.8,0-1,0.4c-0.1,0.2-0.2,0.3-0.4,0.6c-0.4,0.3-0.8,0.4-1.1,0.6C61.6,120.6,61.5,120.9,61.6,120.9L61.6,120.9L61.6,120.9z
		 M57.4,120.8h2.8c0.2,0,0.5,0,0.7-0.1c0.3-0.3,0.7-0.7,1.1-1c0.2-0.1,0.6-0.4,0.8-0.6c0.5-0.5-0.7-0.1-0.8-0.1l-1.4,0
		c0,0-0.2,0.1-0.2,0.1c-0.4,0.3-0.9,0.9-1.5,1.1c-0.2,0.1-0.5,0.2-0.8,0.2C57.2,120.6,57.5,120.8,57.4,120.8L57.4,120.8L57.4,120.8z
		"/>
	<path fill-rule="evenodd" clip-rule="evenodd" fill="#FFFFFF" d="M60.9,127.7h14.3c0,1.8,0,3.5,0,5.3c0,2.7-4.3,1.9-7.1,4.6
		c-3-2.6-7.2-1.8-7.1-4.6V127.7L60.9,127.7z"/>
	<path fill-rule="evenodd" clip-rule="evenodd" fill="#ECC446" d="M73.4,129.2c0.2,0.1,0.2,1,0.1,1.3c0,0.5,0,1,0,1.4
		c0,0,0,0.5,0,0.5c0,0.1,0,0.2,0,0.3c-0.1,0.1-0.2,0.1-0.4,0c0-0.1,0-0.2,0-0.3c0,0-0.1-0.4-0.1-0.5c-0.1-0.4-0.2-1.3-0.2-1.7
		c0-0.2-0.3-0.6-0.4-0.7c-0.1-0.1-0.1-0.3-0.1-0.3C72.5,129.1,73.2,129.1,73.4,129.2L73.4,129.2z M68.3,134.8
		c-0.2-0.1-0.5-0.1-0.7-0.1c-0.1-0.2-0.4-0.5-0.5-0.2c0,0.2-0.5,0.4-0.4,0.6c0.1,0.1,0.2,0.1,0.3,0.1c0.4,0,0.5,0.3,1,0.1
		c0.2-0.1,0.2-0.3,0.3-0.4c0.1,0.2,0.6,0.1,0.7,0c0.2-0.2,0.1-0.4,0.1-0.6c-0.1-0.1-0.7-0.8-0.7-0.8c-0.1-0.2-0.2-0.4-0.1-0.6
		c0,0,0.3-0.1,0.5,0.1c0.3,0.2,0.4,0.7,0.5,1.2c0,0.2,0.3,0.3,0.5,0.3c0.4,0,0.4-0.4,0.3-0.6c-0.2-0.2-0.3-0.4-0.5-0.6
		c-0.2-0.1-0.3-0.3-0.4-0.4c-0.1-0.2-0.2-0.7,0.2-0.5c0.3,0.1,0.7,0.5,0.7,0.9c0,0.2,0,0.4,0.1,0.5c0.1,0.2,0.6,0.1,0.6-0.1
		c0.1,0,0.1-0.4,0-0.5c-0.2-0.2-0.2-0.4-0.4-0.5c-0.3-0.4-0.5-0.5-0.6-0.7c-0.1-0.2-0.2-0.5-0.3-0.5c-0.3-0.4-0.8,0-1.4-0.3
		c-0.3-0.1-0.6-0.5-0.8-0.5c-0.1,1.1-1.4,1.1-1.3,1c0,0-0.1,0.1,0,0.2c0.1,0.1,0.3,0.2,0.5,0.4c0.1,0.1,0.3,0.4,0.4,0.6
		c0.4,0.5,0,0.8,0.3,0.8c0,0,0.2,0,0.3,0c0.5,0,0.7,0.4,0.7,0.9C68.3,134.6,68.3,134.7,68.3,134.8L68.3,134.8L68.3,134.8z
		 M66.1,134.3c-0.5,0.3-0.2,0.8,0.2,0.6c0.2-0.1,0.3-0.4,0.7-0.7c0.4-0.4-0.1-0.8-0.4-0.3C66.3,134.1,66.2,134.2,66.1,134.3
		L66.1,134.3L66.1,134.3z M65.3,133.8c-0.5,0.3-0.2,0.8,0.2,0.6c0.2-0.1,0.5-0.7,0.9-0.9c0.4-0.4-0.1-0.8-0.4-0.3
		C65.8,133.3,65.4,133.7,65.3,133.8L65.3,133.8L65.3,133.8z M64.8,133.1c-0.5,0.3-0.3,0.8,0.2,0.6c0.2-0.1,0.5-0.7,0.8-0.9
		c0.4-0.3-0.1-0.8-0.4-0.4C65.3,132.6,65,133,64.8,133.1L64.8,133.1L64.8,133.1z M65.7,128.7c-0.6,0-1-0.1-1,0.4
		c0,0.1-0.1,0.2-0.1,0.1c-0.3,0-0.8-0.1-0.8,0.2c0,0.1,0,0.4,0.1,0.6c0.1,0.2-0.1,0.3-0.1,0.4c-0.2,0.2-0.2,1-0.3,1.1
		c0,0-0.3,0.5-0.3,0.5c0,0.1-0.4,0.4-0.4,0.5h0c-0.1,0.1-0.2,0.3-0.1,0.5c0.1,0.1,0.2,0.2,0.4,0.1c0.3-0.1,0.6-0.2,0.9-0.2
		c0.7,0,0.6-0.6,1.2-0.9c0,0,0.6-0.4,0.4-0.6c0,0-0.5,0-0.5-0.3c0.1-0.5,0.6-0.6,1.1-1.1c0.5-0.6,1.4-1,1-1.2
		C66.6,128.7,66.1,128.7,65.7,128.7L65.7,128.7L65.7,128.7z M62.3,129.3c-0.2,0.1-0.1,0.9-0.1,1.2c0,0.5-0.1,1-0.2,1.4
		c0,0-0.1,0.6-0.2,0.8c0.1,0.1,0.2,0.1,0.4,0.1c0-0.1,0.1-0.2,0.1-0.3c0,0,0.1-0.4,0.1-0.5c0.2-0.4,0.3-1.2,0.4-1.7
		c0.1-0.3,0.2-0.4,0.3-0.6c0.1-0.1,0.2-0.3,0.1-0.4C63.2,129.1,62.5,129.2,62.3,129.3L62.3,129.3z M66.4,130.9
		c0.2-0.1,0.3-0.2,0.6-0.5c0.3-0.3,0.5-0.5,0.7-0.5c0.1,0,0.4,0,0.6,0.2c0.1,0.1,0.4,0.4,0.6,0.4c0.3,0,0.6,0,0.8,0
		c0.6-0.1,0.5,0.6,1,1.1c0.1,0.1,0.5,0.9,0.7,1.3c0.1,0.3,0.8,0.2,1.1,0.2c0.3,0,0.7-0.1,0.3-0.4c-0.3-0.3-0.5-1.2-0.6-1.6
		c-0.1-0.5-0.4-1.4-0.5-1.7c-0.3-0.1-1,0-1.1-0.1c-0.3-0.1-0.1-0.7-0.6-0.7c-0.7,0.1-2.1-0.2-2.3,0.2c-0.1,0.3-0.6,0.8-0.9,1.1
		c-0.3,0.3-0.9,0.8-1.1,0.9C65.4,131.2,66,131.2,66.4,130.9L66.4,130.9L66.4,130.9z"/>
	<path fill="#ECC446" d="M14.2,85.1C14.2,85.1,14.2,85.1,14.2,85.1C14.2,85.1,14.2,85.1,14.2,85.1L14.2,85.1L14.2,85.1z M13.4,85.4
		C13.4,85.4,13.4,85.4,13.4,85.4C13.4,85.4,13.4,85.4,13.4,85.4L13.4,85.4z M13.4,85.4C13.4,85.4,13.4,85.4,13.4,85.4l-0.2-0.5
		l0.5-0.1c1.6-0.3,2.2-0.4,3.8-0.7c0.9-0.2,2.1-0.4,3.7-0.7l0.3-0.1l0.1,0.3C26,94.4,34,103.3,44.1,108.8c2,1.1,4,2,6.1,2.8
		c2.1,0.8,4.3,1.5,6.5,2v0l0,0l0.7,0.2l-0.5,0.5c-0.3,0.3-0.6,0.6-0.8,0.8c-0.2,0.2-0.3,0.4-0.4,0.4l0,0l0,0
		c-0.1,0.1-0.2,0.2-0.4,0.4c-0.2,0.2-0.5,0.5-0.7,0.7l0,0c-0.1,0.1-0.5,0.5-0.8,0.8c-0.1,0.1-0.1,0.1-0.1,0.2c0,0.1-0.1,0.1-0.1,0.2
		l0,0l0,0l-0.4,0.8l-0.3-0.8c-0.1-0.2-0.1-0.3-0.3-0.4c-0.1-0.1-0.3-0.2-0.6-0.3c-0.3-0.1-0.6-0.1-0.8,0c-0.3,0.1-0.5,0.3-0.6,0.5
		c-0.2,0.2-0.3,0.5-0.4,0.8c-0.1,0.5-0.1,1,0.1,1.4l0.3,0.8l-0.8-0.3c-12.1-4-22.4-11.8-29.6-22.1c-1.4-2-2.7-4.1-3.8-6.2
		C15.3,89.9,14.3,87.7,13.4,85.4L13.4,85.4L13.4,85.4z M14.3,85.5c0.8,2.1,1.7,4.2,2.8,6.2c1.1,2.1,2.4,4.2,3.7,6.1
		c6.9,9.9,16.8,17.5,28.5,21.5c0-0.4,0-0.8,0.1-1.1c0.1-0.4,0.3-0.8,0.5-1.2c0.3-0.3,0.6-0.6,1-0.8c0.4-0.1,0.8-0.2,1.3-0.1
		c0.4,0.1,0.7,0.3,1,0.5c0,0,0.1,0.1,0.1,0.1c0.3-0.4,0.7-0.8,0.9-0.9l0,0c0.2-0.1,0.4-0.3,0.6-0.6c0.1-0.1,0.2-0.3,0.4-0.4
		c0.1-0.1,0.2-0.3,0.4-0.5c0.1-0.1,0.2-0.2,0.3-0.3c-2-0.5-4-1.1-5.9-1.9c-2.1-0.8-4.2-1.8-6.2-2.9C33.6,104,25.5,95,21,84.2
		c-1.7,0.3-2.6,0.5-3.4,0.7C16.3,85.2,15.6,85.3,14.3,85.5L14.3,85.5L14.3,85.5z M86.5,120.3L86.5,120.3l-0.8,0.3l0.3-0.8
		c0,0,0-0.1,0-0.1l0,0c0,0,0-0.1,0-0.1l0-0.1c0,0,0-0.1,0-0.1l0,0c0-0.2,0-0.4,0-0.5c0,0,0,0,0,0c0-0.1,0-0.2-0.1-0.3
		c-0.1-0.4-0.2-0.8-0.5-1c-0.2-0.2-0.6-0.4-1.1-0.3c-0.1,0-0.2,0-0.3,0c-0.1,0-0.3,0.1-0.4,0.1c0,0,0,0-0.1,0v0c0,0,0,0-0.1,0l0,0
		c0,0,0,0,0,0l-0.3,0.2l-0.2-0.3c-0.1-0.1-0.3-0.3-0.5-0.4c-0.3-0.2-0.5-0.5-0.7-0.7l0,0c0,0,0,0,0,0l0,0c0,0,0,0,0,0
		c-0.4-0.5-1.2-1.5-1.7-2l0,0l0,0l-0.5-0.5l0.7-0.2c11.1-2.8,20.8-9.4,27.6-18.4c1.3-1.7,2.5-3.6,3.6-5.5c1.1-1.9,2.1-3.9,2.9-5.9
		l0,0l0.1-0.3l0.3,0.1c4.6,0.8,5.2,0.9,7,1.2c0.1,0,0.2,0,0.3,0.1l0.5,0.1l-0.2,0.5c-4.5,11.7-12.6,21.8-23,28.6
		c-2,1.3-4.1,2.5-6.3,3.6C91.1,118.6,88.9,119.5,86.5,120.3L86.5,120.3L86.5,120.3L86.5,120.3z M86.9,119.3c2.1-0.7,4.1-1.6,6-2.5
		c2.2-1.1,4.2-2.2,6.2-3.5c10.1-6.6,18.1-16.4,22.6-27.7c-1.6-0.3-2.3-0.4-6.5-1.2c-0.8,2-1.8,3.9-2.8,5.7c-1.1,1.9-2.3,3.8-3.7,5.5
		c-6.7,8.9-16.3,15.5-27.4,18.5c0.4,0.5,0.9,1.1,1.2,1.5c0,0,0,0,0.1,0.1l0,0c0,0,0,0,0,0c0,0,0,0,0,0c0,0,0,0,0,0c0,0,0,0,0,0l0,0
		c0,0,0,0,0,0l0,0c0.1,0.2,0.4,0.4,0.6,0.6c0.1,0.1,0.2,0.2,0.3,0.3c0.1-0.1,0.3-0.1,0.5-0.1c0.1,0,0.2,0,0.4-0.1
		c0.8-0.1,1.4,0.1,1.8,0.5c0.4,0.4,0.6,0.9,0.7,1.4c0,0.2,0.1,0.3,0.1,0.4c0,0,0,0,0,0C86.9,118.9,86.9,119.1,86.9,119.3L86.9,119.3
		L86.9,119.3z M82.5,115.5C82.5,115.5,82.5,115.5,82.5,115.5C82.5,115.5,82.5,115.5,82.5,115.5L82.5,115.5z M82.5,115.5
		C82.5,115.5,82.5,115.5,82.5,115.5C82.5,115.5,82.5,115.5,82.5,115.5L82.5,115.5z M82.5,115.5C82.5,115.5,82.5,115.5,82.5,115.5
		C82.5,115.5,82.5,115.5,82.5,115.5L82.5,115.5z M82.5,115.5C82.6,115.5,82.6,115.5,82.5,115.5L82.5,115.5
		C82.6,115.6,82.6,115.6,82.5,115.5C82.6,115.6,82.6,115.6,82.5,115.5C82.6,115.6,82.6,115.6,82.5,115.5
		C82.6,115.6,82.6,115.6,82.5,115.5L82.5,115.5L82.5,115.5z M82.6,115.6C82.6,115.6,82.6,115.6,82.6,115.6
		C82.6,115.6,82.6,115.6,82.6,115.6L82.6,115.6z M82.6,115.6C82.6,115.6,82.6,115.6,82.6,115.6C82.6,115.6,82.6,115.6,82.6,115.6
		L82.6,115.6z M82.6,115.6C82.6,115.6,82.6,115.6,82.6,115.6C82.6,115.6,82.6,115.6,82.6,115.6L82.6,115.6z M82.6,115.6
		C82.6,115.6,82.6,115.6,82.6,115.6C82.6,115.6,82.6,115.6,82.6,115.6L82.6,115.6z M82.6,115.6C82.6,115.6,82.6,115.6,82.6,115.6
		C82.6,115.6,82.6,115.6,82.6,115.6L82.6,115.6z M82.6,115.6C82.6,115.6,82.6,115.6,82.6,115.6C82.6,115.6,82.6,115.6,82.6,115.6
		L82.6,115.6z M82.6,115.6C82.6,115.6,82.6,115.6,82.6,115.6C82.6,115.6,82.6,115.6,82.6,115.6L82.6,115.6z M81.9,116.1
		C81.8,116,81.9,116.1,81.9,116.1L81.9,116.1L81.9,116.1z M83.7,117.4C83.7,117.4,83.7,117.4,83.7,117.4L83.7,117.4
		C83.7,117.4,83.7,117.4,83.7,117.4L83.7,117.4L83.7,117.4L83.7,117.4z"/>
	<path fill-rule="evenodd" clip-rule="evenodd" fill="#4E8A5C" d="M13.8,85.2c6.1,16.4,19.5,29.3,36.1,34.8
		c-0.5-1.5,0.3-3.7,2.2-3.3c0.7,0.2,1,0.5,1.1,1c0.2-0.4,0.9-1.2,1.1-1.3c0.3-0.2,0.7-0.7,1-1c0.1-0.1,0.6-0.7,1.2-1.3
		c-16-3.8-29.2-15.3-35.3-30.3C16.4,84.7,16.3,84.8,13.8,85.2L13.8,85.2L13.8,85.2z M86.4,119.9c16.5-5.6,29.7-18.6,35.9-34.8
		c-2.1-0.4-2.4-0.5-7.3-1.3c-6,14.7-18.8,26-34.4,30c0.5,0.5,1.4,1.6,1.7,2c0.3,0.4,0.8,0.8,1.1,1.1c0.2-0.1,0.4-0.2,0.6-0.3
		c1.7-0.4,2.3,0.9,2.5,2c0,0.3,0,0.6,0,0.9l0,0C86.5,119.7,86.4,119.8,86.4,119.9L86.4,119.9L86.4,119.9z"/>
	<path fill-rule="evenodd" clip-rule="evenodd" fill="#ECC446" d="M68.1,0c34.9,0,63.7,28.3,64.7,62.9c-1,0.2-1.8,0.1-2.7-0.1
		c-1.1-33.1-28.6-60.1-62-60.1c-33.3,0-60.9,27-62,60c-0.9,0.2-1.8,0.3-2.7,0.1C4.4,28.3,33.2,0,68.1,0L68.1,0L68.1,0z"/>
	<path fill-rule="evenodd" clip-rule="evenodd" fill="#FFFFFF" d="M20,89.1c-0.2,0.1-0.3,0.1-0.5,0.1c-0.2,0-0.3,0-0.5-0.1
		c-0.2-0.1-0.4-0.2-0.5-0.3c-0.2-0.1-0.3-0.3-0.4-0.6l-0.3-0.6l-1.2,0.5l-0.4-0.9l3.6-1.6l0.7,1.5c0.1,0.2,0.2,0.4,0.2,0.6
		c0,0.2,0,0.3,0,0.5c0,0.2-0.1,0.3-0.2,0.5C20.3,88.9,20.2,89,20,89.1L20,89.1L20,89.1z M19.5,88.2c0.1,0,0.2-0.1,0.2-0.2
		c0-0.1,0.1-0.2,0.1-0.3c0-0.1,0-0.2-0.1-0.3c0-0.1-0.1-0.2-0.2-0.4l-0.1-0.2l-1.1,0.5l0.1,0.3c0.1,0.2,0.1,0.3,0.2,0.4
		c0.1,0.1,0.1,0.2,0.2,0.2c0.1,0,0.2,0.1,0.2,0C19.3,88.2,19.4,88.2,19.5,88.2L19.5,88.2L19.5,88.2z M19.5,93.8l-1.4-2.5l3.4-1.9
		l1.4,2.5l-0.7,0.4l-0.9-1.6L20.8,91l0.8,1.5L21,92.8l-0.8-1.5l-0.8,0.5l0.9,1.6L19.5,93.8L19.5,93.8L19.5,93.8z M21.2,96.5
		c-0.2-0.2-0.3-0.5-0.3-0.8c-0.1-0.3-0.1-0.5,0-0.7c0.1-0.2,0.2-0.5,0.3-0.7c0.2-0.2,0.4-0.4,0.7-0.6c0.3-0.2,0.5-0.3,0.8-0.3
		c0.3-0.1,0.5-0.1,0.8,0c0.2,0.1,0.5,0.2,0.7,0.3c0.2,0.2,0.4,0.4,0.6,0.6c0.1,0.1,0.2,0.3,0.2,0.4c0.1,0.1,0.1,0.2,0.1,0.3
		c0,0.1,0.1,0.2,0.1,0.3c0,0.1,0,0.2,0,0.3l-0.8,0.5l-0.1-0.1c0-0.1,0-0.1,0-0.2c0-0.1,0-0.2,0-0.3c0-0.1,0-0.2,0-0.3
		c0-0.1-0.1-0.2-0.1-0.3c-0.1-0.1-0.2-0.2-0.3-0.3c-0.1-0.1-0.2-0.1-0.4-0.2c-0.1,0-0.3,0-0.5,0c-0.2,0-0.4,0.1-0.6,0.2
		c-0.2,0.1-0.4,0.3-0.5,0.4c-0.1,0.1-0.2,0.3-0.2,0.4c0,0.1,0,0.3,0,0.4c0,0.1,0.1,0.3,0.2,0.4c0.1,0.1,0.1,0.2,0.2,0.3
		c0.1,0.1,0.2,0.1,0.3,0.2c0.1,0,0.2,0.1,0.3,0.1c0.1,0,0.2,0.1,0.2,0.1L23,97l-0.8,0.5c-0.1-0.1-0.2-0.1-0.3-0.2
		c-0.1-0.1-0.2-0.1-0.2-0.2c-0.1-0.1-0.2-0.2-0.3-0.3C21.4,96.8,21.3,96.7,21.2,96.5L21.2,96.5L21.2,96.5z M25,101.4l-0.6-0.8
		l2.5-1.9l-0.9-1.2l-2.5,1.9l-0.6-0.8l3.1-2.4l2.2,2.8L25,101.4L25,101.4L25,101.4z M31.2,102.4l-3.3,1.1c-0.2,0.1-0.4,0.1-0.5,0.1
		c-0.2,0-0.3,0-0.4-0.1c-0.1,0-0.2-0.1-0.3-0.2c-0.1-0.1-0.2-0.1-0.2-0.2c-0.1-0.1-0.2-0.2-0.3-0.3c-0.1-0.1-0.2-0.2-0.2-0.3
		l0.6-0.6l0,0c0,0,0.1,0.1,0.1,0.2c0.1,0.1,0.1,0.1,0.2,0.2c0.1,0.1,0.2,0.2,0.3,0.3c0.1,0.1,0.2,0.1,0.2,0.1l1.1-3.2l0.7,0.8
		l-0.7,2l1.9-0.7L31.2,102.4L31.2,102.4L31.2,102.4z M32.5,107c-0.1,0.1-0.3,0.3-0.4,0.3c-0.2,0.1-0.3,0.1-0.5,0.1
		c-0.2,0-0.4-0.1-0.5-0.1c-0.2-0.1-0.3-0.2-0.5-0.4l-1.4-1.2l2.6-3l2.3,2l-0.5,0.6l-1.5-1.3l-0.5,0.5l0.6,0.5
		c0.2,0.2,0.4,0.3,0.5,0.5c0.1,0.1,0.2,0.3,0.2,0.5c0,0.2,0,0.3,0,0.5C32.7,106.7,32.6,106.9,32.5,107L32.5,107L32.5,107z
		 M31.6,106.4c0,0,0.1-0.1,0.1-0.2c0-0.1,0-0.1,0-0.2c0-0.1,0-0.1-0.1-0.2c0-0.1-0.1-0.2-0.2-0.3l-0.5-0.4l-0.7,0.8l0.5,0.4
		c0.1,0.1,0.2,0.1,0.3,0.2c0.1,0,0.2,0.1,0.2,0.1c0.1,0,0.1,0,0.2,0C31.5,106.5,31.6,106.4,31.6,106.4L31.6,106.4z M35.4,111
		l-0.8-0.6l2-2.5l-0.9-0.7c-0.1,0.1-0.2,0.2-0.3,0.3c-0.1,0.1-0.2,0.2-0.3,0.3c-0.2,0.3-0.5,0.5-0.6,0.6c-0.2,0.2-0.4,0.3-0.5,0.4
		c-0.1,0.1-0.3,0.1-0.4,0.2c-0.1,0-0.2,0.1-0.3,0.1c-0.1,0-0.2,0-0.4,0c-0.1,0-0.3-0.1-0.4-0.2c-0.1-0.1-0.1-0.1-0.2-0.2
		c-0.1-0.1-0.1-0.1-0.1-0.1l0.6-0.7l0,0c0,0,0,0,0,0c0,0,0,0,0.1,0c0.1,0.1,0.1,0.1,0.2,0.1c0,0,0.1,0,0.1,0c0.2,0,0.4-0.1,0.6-0.3
		c0.2-0.2,0.5-0.4,0.8-0.8c0.1-0.1,0.3-0.3,0.4-0.4c0.1-0.2,0.3-0.4,0.5-0.6l2.4,1.9L35.4,111L35.4,111L35.4,111z M39.7,113.8
		l-0.8-0.5l1.4-2.2l-2.8,1.3l-0.8-0.5l2.1-3.3l0.8,0.5l-1.3,2l2.5-1.2l0.9,0.6L39.7,113.8L39.7,113.8L39.7,113.8z M44.3,116.2
		l-1.1-0.6l-0.3-1.9l-0.2-0.1l-0.7,1.4l-0.9-0.5l1.8-3.5l0.9,0.5l-0.7,1.4c0.1,0,0.1,0.1,0.2,0.1c0.1,0,0.1,0,0.2,0
		c0.1,0,0.1,0,0.2-0.1c0.1,0,0.2-0.1,0.3-0.1c0.1,0,0.1-0.1,0.2-0.1c0.1-0.1,0.1-0.1,0.2-0.1c0.2-0.1,0.4-0.2,0.6-0.2
		c0.2,0,0.4,0,0.7,0.2c0.1,0,0.1,0.1,0.2,0.1c0.1,0,0.1,0.1,0.1,0.1l-0.4,0.7l-0.3-0.1c-0.1-0.1-0.2-0.1-0.3-0.1
		c-0.1,0-0.2,0.1-0.4,0.2c-0.2,0.1-0.3,0.2-0.4,0.2c-0.1,0-0.2,0.1-0.2,0.1L44.3,116.2L44.3,116.2L44.3,116.2z M48.6,118l-1-0.4
		l0-0.8l-1.3-0.5l-0.5,0.6l-0.9-0.4l2.8-3.1l1.1,0.4L48.6,118L48.6,118z M47.7,116l0.1-1.5l-1,1.1L47.7,116L47.7,116L47.7,116z"/>
	<path fill-rule="evenodd" clip-rule="evenodd" fill="#FFFFFF" d="M93.2,116.6l-0.8,0.4l-0.4-0.8l-2.2,1l0.4,0.8l-0.8,0.4l-0.7-1.5
		l0.3-0.1c0-0.5-0.1-1-0.2-1.5c-0.1-0.5-0.3-1.1-0.6-1.6l2.6-1.2l1.3,2.9l0.4-0.2L93.2,116.6L93.2,116.6L93.2,116.6z M91.2,115.6
		l-1-2.2l-0.9,0.4c0.2,0.4,0.3,0.9,0.4,1.3c0.1,0.4,0.1,0.8,0.1,1.1L91.2,115.6L91.2,115.6z M98,112.9l-0.9,0.5l-0.6-0.5l-1.3,0.7
		l0.2,0.8l-0.9,0.5l-0.7-4.1l1-0.6L98,112.9L98,112.9z M95.9,112.4l-1.1-1l0.3,1.5L95.9,112.4L95.9,112.4L95.9,112.4z M100.3,107.4
		l-1.5,1.1l1.9,2.6l-0.8,0.6l-2.3-3.2l2.3-1.7L100.3,107.4L100.3,107.4L100.3,107.4z M106.1,106.7l-2.1,1.9l-2.6-3l2.1-1.9l0.5,0.6
		l-1.4,1.2l0.4,0.5l1.3-1.1l0.5,0.6l-1.3,1.1l0.6,0.7l1.4-1.2L106.1,106.7L106.1,106.7z M109.2,103.8c-0.2,0.2-0.4,0.4-0.6,0.5
		c-0.2,0.1-0.5,0.2-0.7,0.2c-0.2,0-0.5,0-0.7-0.1c-0.3-0.1-0.5-0.3-0.7-0.5c-0.2-0.2-0.4-0.4-0.5-0.7c-0.1-0.2-0.2-0.5-0.2-0.7
		c0-0.2,0-0.5,0.1-0.7c0.1-0.2,0.3-0.5,0.5-0.7c0.1-0.1,0.2-0.2,0.3-0.3c0.1-0.1,0.2-0.2,0.3-0.2c0.1-0.1,0.2-0.1,0.3-0.2
		c0.1,0,0.2-0.1,0.3-0.1l0.7,0.6L108,101c-0.1,0-0.1,0-0.2,0c-0.1,0-0.2,0-0.3,0.1c-0.1,0-0.2,0.1-0.3,0.1c-0.1,0.1-0.2,0.1-0.3,0.2
		c-0.1,0.1-0.2,0.2-0.2,0.3c-0.1,0.1-0.1,0.3-0.1,0.4c0,0.1,0,0.3,0.1,0.5c0.1,0.2,0.2,0.3,0.4,0.5c0.2,0.2,0.4,0.3,0.5,0.3
		c0.2,0.1,0.3,0.1,0.5,0.1c0.1,0,0.3-0.1,0.4-0.1c0.1-0.1,0.2-0.1,0.3-0.2c0.1-0.1,0.2-0.2,0.2-0.3c0.1-0.1,0.1-0.2,0.1-0.3
		c0-0.1,0-0.2,0-0.3c0-0.1,0-0.2,0-0.2l0.1-0.1l0.7,0.6c0,0.1-0.1,0.2-0.1,0.3c0,0.1-0.1,0.2-0.1,0.3c-0.1,0.1-0.1,0.2-0.2,0.3
		C109.4,103.5,109.3,103.7,109.2,103.8L109.2,103.8L109.2,103.8z M111,96.6l-0.8,1l2.5,1.9l-0.6,0.8l-2.5-1.9l-0.8,1l-0.6-0.5
		l2.1-2.7L111,96.6L111,96.6L111,96.6z M116.8,93.6l-0.6,0.9l-0.8-0.2l-0.8,1.2l0.5,0.6l-0.5,0.9l-2.5-3.3l0.6-1L116.8,93.6
		L116.8,93.6L116.8,93.6z M114.7,94.2l-1.4-0.3l0.9,1.2L114.7,94.2L114.7,94.2L114.7,94.2z M119.5,88.6l-0.5,0.9l-1.5-0.8l-0.7,1.3
		l1.5,0.8l-0.5,0.9l-3.5-1.8l0.5-0.9l1.3,0.7l0.7-1.3l-1.3-0.6l0.5-0.9L119.5,88.6L119.5,88.6z"/>
	<path fill-rule="evenodd" clip-rule="evenodd" fill="#ECC446" d="M80.4,44.2c-0.4,0.1-0.8,0.2-1.1,0.2c-0.8-0.1-2.9-1.4-4.6-1.4
		c-1.9,0-2.3,0.3-2.8,0.4c-0.5,0-1-0.2-1.5-0.1c-0.4,0.1-0.6,0.4-0.7,0.8c-0.2,0-0.4-0.1-0.6,0c-0.2,0-0.6,0.3-0.8,0.4
		c-0.3,0.1-1.5,0.1-2,1c-0.3,0.6-0.3,1.9,0.3,2.2c0-1,0.5-1.3,1.1-1.5c1-0.2,1.7,0.4,2.5,0.5c0.9,0.1,1.8,0.1,2.6,0.4
		c0.3,0.1,0.7,0.3,0.7,0.5c0,0.3-0.9,0.2-1.4,0.1c-0.9-0.2-1.8-0.6-2.7-0.8c-0.7-0.2-2-0.5-2.3,0.2c1.6-0.1,4.6,0.7,4.7,2.9
		c0,1.4-0.8,2.3-1.1,3.9c0.1,0.4,0.3,0.8,0.8,0.9c0.6,0.1,1.2-0.4,1.8-0.8c0.1,0.5,0.2,1.5,0.8,1.7c0.5,0.1,1.3-0.6,1.6-0.9
		c0,0.5,0.2,1.6,0.9,1.7c0.6,0.1,1.4-0.5,1.6-1.1c0.1,0.5,0.1,1.5,0.9,1.7c0.5,0.1,1-0.4,1.4-0.8c0,0.7,0.2,1.6,0.7,1.6
		c-0.3-1.9,0.1-9.2-1.1-11.7c-0.6,0-1,0-1.7-0.1c-0.7-0.1-2.3-0.6-3.8-0.5c0.1,0.9-0.3,1.2-0.8,1.1c-0.6,0-1.2-0.6-1.3-1.3
		c-0.2,0-0.4,0.1-0.6,0c-0.2-0.1-0.5-0.4-0.4-0.6c0-0.2,0.3-0.2,0.5-0.2c0.3,0,0.5,0.4,1,0.4c1,0,2.2-0.3,3.2-0.2
		c1.3,0.1,2.6,0.6,3.2,0.6C80,45.2,80.3,44.8,80.4,44.2L80.4,44.2L80.4,44.2z M69.4,45.3c0.5,0.4,1.2,0.6,1.9,0.8
		c-0.4-0.5-0.9-0.9-1.1-1.4c-0.1-0.3-0.2-0.9,0.2-0.9c0.6,0,0.3,0.6,0.4,0.9c0.3,0.7,0.8,1.4,1.6,2c-0.6,0.1-2.3-0.2-3.2-0.7
		c-0.3-0.2-0.7-0.5-0.7-0.9c0-0.3,0.4-0.5,0.7-0.5c0.2,0,0.4,0.1,0.5,0.3C69.9,45,69.7,45.2,69.4,45.3L69.4,45.3L69.4,45.3z
		 M72.7,55.1c0.1,0.5,0.3,0.8,0.9,1c-0.1,0.6-0.8,0.9-1.3,0.8c-0.5-0.1-0.8-0.7-0.8-1.3C71.9,55.7,72.4,55.5,72.7,55.1L72.7,55.1
		L72.7,55.1z M75.2,55.8c0.1,0.5,0.3,0.8,0.9,1c-0.1,0.6-0.8,0.9-1.3,0.8c-0.5-0.1-0.8-0.7-0.8-1.3C74.5,56.4,74.9,56.2,75.2,55.8
		L75.2,55.8L75.2,55.8z M77.7,56.5c0.1,0.5,0.3,0.8,0.9,1c-0.1,0.6-0.8,0.9-1.3,0.8c-0.5-0.1-0.8-0.7-0.8-1.3
		C76.9,57.1,77.4,56.9,77.7,56.5L77.7,56.5L77.7,56.5z M80,57.4c0.1,0.5,0.3,0.8,0.9,1c-0.1,0.6-0.8,0.9-1.3,0.8
		c-0.5-0.1-0.8-0.7-0.8-1.3C79.3,57.9,79.7,57.7,80,57.4L80,57.4L80,57.4z M78.4,58.6c0.1,0.5,0.3,0.8,0.9,1
		c-0.1,0.6-0.8,0.9-1.3,0.8c-0.5-0.1-0.8-0.7-0.8-1.3C77.7,59.1,78.1,58.9,78.4,58.6L78.4,58.6L78.4,58.6z M76,57.7
		c0.1,0.5,0.3,0.8,0.9,1c-0.1,0.6-0.8,0.9-1.3,0.8c-0.5-0.1-0.8-0.7-0.8-1.3C75.2,58.2,75.7,58,76,57.7L76,57.7L76,57.7z M73.5,57
		c0.1,0.5,0.3,0.8,0.9,1c-0.1,0.6-0.8,0.9-1.3,0.8c-0.5-0.1-0.8-0.7-0.8-1.3C72.8,57.5,73.2,57.3,73.5,57L73.5,57L73.5,57z
		 M70.9,56.2c0.1,0.5,0.3,0.8,0.9,1c-0.1,0.6-0.8,0.9-1.3,0.8c-0.5-0.1-0.8-0.7-0.8-1.3C70.2,56.7,70.6,56.5,70.9,56.2L70.9,56.2
		L70.9,56.2z M71.8,58.1c0.1,0.5,0.3,0.8,0.9,1c-0.1,0.6-0.8,0.9-1.3,0.8c-0.5-0.1-0.8-0.7-0.8-1.3C71.1,58.7,71.5,58.5,71.8,58.1
		L71.8,58.1L71.8,58.1z M74.4,59c0.1,0.5,0.3,0.8,0.9,1c-0.1,0.6-0.8,0.9-1.3,0.8c-0.5-0.1-0.8-0.7-0.8-1.3
		C73.6,59.5,74.1,59.3,74.4,59L74.4,59L74.4,59z M76.8,59.8c0.1,0.5,0.3,0.8,0.9,1c-0.1,0.6-0.8,0.9-1.3,0.8
		c-0.5-0.1-0.8-0.7-0.8-1.3C76,60.3,76.5,60.1,76.8,59.8L76.8,59.8L76.8,59.8z M79.3,60.4c0.1,0.5,0.3,0.8,0.9,1
		c-0.1,0.6-0.8,0.9-1.3,0.8c-0.5-0.1-0.8-0.7-0.8-1.3C78.5,61,79,60.8,79.3,60.4L79.3,60.4L79.3,60.4z M81,59c0,0.5-0.1,1.3,0.1,1.7
		c-0.5,0.4-1.3,0.3-1.3-1C80.4,59.7,80.7,59.5,81,59L81,59L81,59z M69.2,56.8c0,0.9,0.2,1.4,0.8,1.6c-0.5,1-1.5,0.9-1.9,0.5
		C68.6,58.4,68.8,57.2,69.2,56.8L69.2,56.8L69.2,56.8z M70.2,54.3c0.1,0.5,0.3,0.8,0.9,1c-0.1,0.6-1.2,0.9-1.6,0.8
		C69.9,55.5,70.1,54.9,70.2,54.3L70.2,54.3z M67.4,60c0.1-0.2,0.3-0.5,0.4-0.7c0.3,0.2,0.6,0.6,0.9,0.6c0.5,0,0.9-0.3,1.4-0.5
		c0.1,0.5,0.4,1.1,1,1.3c0.5,0.1,1.2-0.1,1.5-0.4c0.1,0.6,0.5,1.1,1,1.2c0.4,0.1,1.1,0,1.4-0.3c0.2,0.5,0.4,1,1,1.2
		c0.5,0.1,1.2-0.1,1.6-0.5c0,0.6,0.5,1.2,1,1.3c1,0.2,1.7-0.6,2.3-1.8c-0.5,10.5-4.2,19.1-8.2,24.2c-0.2,0.3-0.5,0.6-0.7,0.9
		c0.2-1.1,0.4-2.3,0.3-3.8c1.8-3.4,2.3-8.4,1.4-12.5C73.2,66.9,70.4,61.6,67.4,60L67.4,60L67.4,60z M81.8,54.4
		c0.5,4.6,0.5,9.4-0.9,14.9c2.2-0.5,4.4-1.2,6.7-2.2c-0.4-1.1-0.1-2.1,1.6-2.7c-0.4-1.9,0.6-2.8,2-3.3c-0.7-1.3,0.3-2.8,2.8-4.4
		C93,54,90.9,51.5,88.8,49C86.6,51.4,84.3,53.3,81.8,54.4L81.8,54.4L81.8,54.4z M90,49.4c0.3,0.4,0.5,0.6,0.7,0.9
		c1.9-2.3,3.7-5.1,4.8-8.2c0.2-0.7-0.7-1.1-0.9-0.5C94,43.9,91.5,47.9,90,49.4L90,49.4L90,49.4z M91.5,50.8c0.3,0.4,0.5,0.6,0.7,0.9
		c1.9-2.3,3.7-5,4.8-8.2c0.2-0.7-0.7-1.2-0.9-0.5C95.4,45.4,93,49.3,91.5,50.8L91.5,50.8L91.5,50.8z M92.6,52.3
		c0.3,0.4,0.3,0.5,0.5,0.8c1.8-2,3.9-5.3,5.3-8.3c0.4-0.8-0.7-1-0.9-0.4C96.6,46.7,94.1,50.9,92.6,52.3L92.6,52.3L92.6,52.3z
		 M93.6,53.8c0.2,0.4,0.4,0.5,0.5,0.8c2.1-2.1,4.3-5.4,5.7-8.4c0.3-0.7-0.6-1.1-0.8-0.5C98.1,48,95.2,52.3,93.6,53.8L93.6,53.8z
		 M94.3,55.2c0.2,0.4,0.2,0.5,0.4,0.8c2.2-2,5.3-5.8,6.5-8.5c0.3-0.7-0.7-0.9-0.9-0.3C99.3,49.4,96,53.9,94.3,55.2L94.3,55.2
		L94.3,55.2z M92.2,59.2c-0.4,0.5-0.5,0.9-0.5,1.3c3.9-2.3,9.5-8.3,10.7-11.4c0.3-0.8-0.6-1-0.8-0.4C100.2,52.1,96.2,56.3,92.2,59.2
		L92.2,59.2z M90.6,62.4c-0.5,0.6-0.6,0.9-0.7,1.4c4.5-2.3,12-9.5,13.6-12.8c0.4-0.8-0.4-1.2-0.8-0.5C101,53.9,95.2,59.5,90.6,62.4
		L90.6,62.4z M99.3,68.8c0.1,0.2,0.1,0.5-0.1,0.9c3-1.5,9.2-5.9,9.9-7.2c0.5-0.8-0.2-1.2-0.6-0.7C107.2,63.5,101.5,67.8,99.3,68.8
		L99.3,68.8z M98.6,67c0.2,0.2,0.4,0.4,0.5,0.9c2.9-1.6,8.6-6.2,9.3-7.5c0.4-0.7-0.5-1.2-0.8-0.6C106.3,61.5,101,66.2,98.6,67
		L98.6,67L98.6,67z M99,64.8c0,0.3-0.2,0.9-0.3,1.3c2.7-1.6,8.2-6.4,8.9-7.8c0.4-0.7-0.5-1.3-0.9-0.7C105.4,59.4,101,63.8,99,64.8
		L99,64.8L99,64.8z M98.6,62.8c-0.5,0.7-0.4,1.2,0.2,1.1c2.4-1.8,7.1-6.3,7.9-7.7c0.4-0.7-0.4-1.1-0.8-0.6
		C104.6,57.4,100.7,61.5,98.6,62.8L98.6,62.8L98.6,62.8z M97.9,61c0.3,0.2,0.3,0.6,0.2,1c2.3-1.8,6.9-6.2,7.7-7.6
		c0.4-0.7-0.3-1-0.7-0.5C103.7,55.7,99.9,59.7,97.9,61L97.9,61L97.9,61z M95.8,60.2c0.5,0.1,1.1,0,1.6,0.4c2.3-1.9,5.7-5.3,7.4-7.8
		c0.5-0.7-0.5-1.1-0.8-0.6c-0.9,1.5-4.1,5.3-6.3,7C96.9,59.7,96.3,60.1,95.8,60.2L95.8,60.2L95.8,60.2z M88.8,65.4
		c-0.4,0.5-0.7,1.2-0.6,1.5c1.8-0.9,4.8-2.4,6.4-4.1c-0.2-0.3-0.3-0.6-0.1-1.4C93.4,63.1,90.1,64.7,88.8,65.4L88.8,65.4z M89.1,48.5
		c4.6-5.3,11-18.9,6.5-29.3c1.5,1,3,2.2,4.4,3.5c0.8,6.5-0.1,13-3,19.3c-0.3-0.1-0.6-0.1-0.8,0c0.1-0.9-0.2-1.2-0.6-1.4
		c-0.5-0.2-1.2,0.1-1.4,0.6c-1,2.5-2.7,5.6-4.7,7.9C89.4,48.7,89.3,48.7,89.1,48.5L89.1,48.5L89.1,48.5z M101.1,23.2
		c1.3,4.3-0.4,15.1-3.4,19.4c0.2,0.2,0.2,0.5,0.1,0.8c0.4-0.1,0.9-0.2,1.3,0.1c0.4,0.3,0.3,0.8,0.1,1.3c0.4,0,0.7,0,0.8,0.2
		c3-4.7,4.6-10.7,4.9-17.9C103.8,25.6,102.3,24.4,101.1,23.2L101.1,23.2z M105.9,27.5c0.5,4.2-2.5,14.5-5.2,17.7
		c0,0.2-0.1,0.5-0.2,0.8c0.4-0.1,1,0,1.3,0.2c0.3,0.3,0.3,1,0.1,1.4c0.4,0,0.7,0,0.8,0.2c2.5-3.8,5.5-10,6.5-16.5
		C108.1,30,107.2,28.8,105.9,27.5L105.9,27.5L105.9,27.5z M110,32.1c0,4.3-3.9,13.1-6.6,16.4c0,0.2,0,0.7-0.1,0.9
		c0.4,0,0.8,0,1.1,0.2c0.3,0.3,0.1,0.9-0.1,1.4c0.4,0,0.6,0.1,0.8,0.3c2.3-2.8,6-8.6,7.6-14.3C112,35.8,111,33.3,110,32.1L110,32.1
		L110,32.1z M113.5,37.8c-0.9,4.2-5,10.9-7.7,14.1c0,0.2-0.1,0.8-0.3,1c0.4,0,0.8,0,1,0.2c0.3,0.3,0.1,1-0.2,1.5
		c0.4,0,0.6,0.1,0.8,0.2c2.1-2.4,6.1-7.5,8.5-12.3C115.2,41.5,114.5,39.1,113.5,37.8L113.5,37.8z M116.2,42.8
		c-0.6,4.1-6.8,10.8-8.6,12.9c0.1,0.2,0.1,0.7-0.2,1.1c0.4,0,1,0.1,1.2,0.3c0.3,0.4,0,1.2-0.4,1.7c0.4,0,0.4,0,0.6,0.2
		c2.4-2.1,6.5-6.1,9.3-10.6C117.7,47.4,117,44.4,116.2,42.8L116.2,42.8L116.2,42.8z M118.5,49.2c-1.4,3.6-6.6,8.9-8.9,10.4
		c0.2,0.3,0,1-0.5,1.3c0.9-0.1,1.1,0.1,1.2,0.4c0.8,1.8-5.2,5.9-11.5,9.3c-0.4,0.3-0.4,0.5-0.2,0.7c10.5-5.6,15.4-10.9,21.2-17.1
		C119.5,53.1,119.2,50.8,118.5,49.2L118.5,49.2L118.5,49.2z M80.8,70.2c6.1-1.6,11.8-3.7,14.3-6.9c0.7,0,1.1-0.1,1.5-0.4
		c0.3-0.2,0.3-0.7,0.1-1c-0.3-0.4-0.7-0.4-1-0.2c-0.2,0.2-0.3,0.7,0.3,0.8c0,0.1,0,0.3-0.1,0.3c-0.3,0-0.6-0.1-0.7-0.3
		c-0.2-0.3-0.2-1,0.2-1.3c0.4-0.4,1.5-0.3,1.9,0.2c0.3,0.4,0.6,1.2,0.1,2.2c-0.6-0.2-1.3-0.1-1.7,0.2c-0.4,0.3-1.4,1.3-0.4,2.1
		c-4.8,4.7-14.3,5.7-14.7,6.2c-0.9,3.6-3.9,9.8-2.3,17.8c0.6,3,2.3,7.5,6.1,7.1c1.2-0.1,2.6-0.7,3.5,0c0.8,0.6,0.2,3.1-1.3,3
		c0.5-0.6,0.6-1.2,0.5-1.9c-0.1-0.6-0.9-0.9-1.3-0.8C84,97.3,82,97.9,80.3,97c-2.2-1.2-2.8-4.2-4-4.9c-1.6-1-2.1-1.1-3.8,0.6
		c0.2-0.5,0.4-1.2,0.5-1.7c0.3-1.4,0.5-2.9,1.1-4.1c1.7-3.4,2.9-5.4,3.9-8.3C79,75.8,79.7,73,80.8,70.2L80.8,70.2L80.8,70.2z
		 M80.9,72.6c6-1,12-3.1,14.7-6c0.7,0,1.2-0.1,1.6-0.4c0.3-0.2,0.3-0.9,0.2-1.3c-0.2-0.5-0.9-0.6-1.3-0.4C96,64.7,95.8,65,96,65.3
		c0.2,0.3,0.4,0,0.6,0.1c0.1,0.1,0.2,0.2,0.1,0.3c-0.4,0.3-1,0.1-1.1-0.2c-0.2-0.3-0.1-1.1,0.3-1.4c0.6-0.4,1.6-0.2,1.9,0.4
		c0.3,0.4,0.5,1.2,0.1,2.2c-0.6-0.1-1.3,0-1.7,0.2c-0.5,0.3-1.2,0.8-0.9,2.1c-5.1,3.6-12.4,5.2-15.1,5.5
		C80.5,73.9,80.7,73.2,80.9,72.6L80.9,72.6L80.9,72.6z M80.2,75.3c6.1-0.8,13.4-3.7,15.7-5.6c0.7,0.4,1.3,0.2,1.7,0
		c0.3-0.2,0.5-1.1,0.4-1.4c-0.3-0.5-0.7-0.6-1.2-0.4c-0.2,0.1-0.3,0.4-0.2,0.7c0.2,0.3,0.3,0.1,0.5,0.1c0.1,0.1,0.2,0.2,0.1,0.3
		c-0.4,0.2-0.9,0-1.1-0.3c-0.3-0.5,0-1.1,0.4-1.3c0.6-0.4,1.6-0.1,1.9,0.6c0.6,1.5-0.4,3.9-4.7,5.3c-0.7-1.2-1.6-1.1-2.1-1
		c-0.5,0.1-1.4,0.7-1.2,2c-3.1,1.1-7.8,2.5-10.8,2.6C79.9,76.4,79.9,75.9,80.2,75.3L80.2,75.3L80.2,75.3z M79.4,78.1
		c6.2-1,8.9-1.8,11.2-2.9c0.7,0.4,1.2,0.3,1.6,0.1c0.3-0.2,0.6-0.9,0.5-1.2c-0.2-0.6-0.6-0.8-1-0.6c-0.2,0.1-0.4,0.4-0.3,0.6
		c0.1,0.3,0.3,0.1,0.5,0.2c0.1,0.1,0.2,0.2,0.1,0.3c-0.5,0.2-0.9-0.2-1-0.4c-0.2-0.4,0.2-1.2,0.7-1.3c0.5-0.2,1.4,0.1,1.6,0.9
		c0.3,1.1-0.2,2.2-1.2,2.9c-3.2,2.2-11,3.1-13.3,3.4C79.2,79.5,79.3,78.6,79.4,78.1L79.4,78.1L79.4,78.1z M74.6,93.8
		c0.3-0.2,0.8-0.2,1,0c1.3,1.2,0.9,3.5-0.1,4.2c1.1-0.2,2.4-0.4,3.2,0.2c0.5,0.4,1,0.9,1,1.6c0,0.3-0.2,0.7-0.6,1
		c0.9,0.1,1.8,0,2.7-0.3c1.1-0.3,1.9-1.2,3-1.2c0.4,0,0.5,0.7,0.4,1.3c0.8-0.2,1.4-2.2,0.6-2.7c-0.7-0.5-1.7,0.1-2.5,0.3
		c-1.1,0.3-2.3,0.4-3.5-0.2c-2.6-1.3-2.9-5.7-5.4-5.5c-0.7,0-1.5,0.6-1.5,1.4c0,0.8,0.6,1.4,1.2,1.4C74.8,95.3,75.1,94.3,74.6,93.8
		L74.6,93.8L74.6,93.8z M55.9,83.1c0.9-4,4.5-6.7,7.3-6.9c3.2-0.2,7.1,2.3,7.9,5.9c1,4.1-0.1,10.6,0.2,12c0.3,1.4,0.8,2.9,1.9,3.8
		c1.5,1.2,5.1-0.2,5.5,2.2c0.2,1-0.7,1.6-2.4,2.1c0.7-0.6,0.8-1.1,0.7-1.8c-0.3-2.4-3.6-1-5-1.4c-2-0.6-2.7-4.8-5.1-4.6
		c-0.5,0-1,0-1.5,0.5c-0.2-0.8-0.3-1.6-0.6-2.4c-0.3-0.6-1.1-1-1.6-1.5c1.5,0.3,3.2,0.1,4.3-0.7c1.7-1.2,2.7-3.7,2.7-6
		c0-3.6-3.1-6.7-6.8-6.6c-1.7,0.1-3.4,0.7-4.9,2.2c2.2-1.3,3.6-1.5,4.8-1.5c2.6,0,5.6,2,5.6,5.7c0,3.1-1.9,5.7-5.3,5.8
		c-1.9,0-3.9-1.2-5-3.9c-1.7,1.6-3.5,1.9-5.4,1.5c-1.2-0.3-2.3-1.7-2.3-2.9c0-0.9,0.7-2,1.8-2c0.7,0,1.6,0.7,1.5,1.5
		c-0.1,0.7-1,1.1-1.7,0.8c-0.1-0.2,0-0.4,0.1-0.5c0.4,0.1,0.8,0,0.9-0.3c0-0.3-0.3-0.6-0.7-0.6c-0.5,0-1.1,0.7-1.1,1.2
		c0,0.8,0.4,1.3,1.3,1.3c2.7-0.1,6.2-5.6,9.7-5.6c3,0,4,2.2,4,3.8c0,1.4-1.4,2.4-2.6,2.5c-1.1,0-2.1-1.1-2.1-2.3
		c0-0.8,0.8-1.6,1.5-1.6c0.5,0,1,0.5,1.1,1c0.1,0.4-0.1,1.2-1.1,1c-0.1-0.1,0.1-0.3-0.1-0.5c0.3-0.1,0.6-0.2,0.7-0.5
		c0-0.2-0.2-0.4-0.5-0.4c-0.4,0-0.9,0.5-0.9,0.9c0,0.6,0.4,1.2,1.4,1c0.8-0.1,1.3-0.5,1.3-1.3c0-1.1-0.9-2-1.9-2
		c-1.3,0-2.3,1.1-2.3,2.3c0,2,1.3,3.1,3,3.2c2,0,3.5-1.5,3.5-3.4c0-2-1.8-4.7-4.6-4.8C60.5,79.2,58.2,80.9,55.9,83.1L55.9,83.1
		L55.9,83.1z M71.9,81.6c2.4-6,1.6-12.4-1.6-17.2c-3.6-5.5-7.4-7.3-15.4-10.1c-0.9-0.3-2-0.8-2.7-1.4c-0.4,0-0.7,0.1-1.1-0.1
		c-0.4-0.3-0.6-1-0.3-1.4c0.1-0.2,0.7-0.3,0.9-0.2c0.3,0.2,0.4,0.4,0.3,0.6c-0.1,0.2-0.4,0.2-0.6,0.3c0.4,0.5,1,0.4,1.2-0.1
		c0.3-0.7,0-1.5-0.6-1.7c-0.6-0.3-1.3-0.1-1.7,0.5C50.1,51.2,50,51.6,50,52c1,0.6,1.5,2.1,0.9,2.5c0.9,0.8,1.8,1.2,2.8,1.6
		c5.5,2,11.1,3.8,14.7,10c2,3.5,3.1,6.7,1.6,12C70.9,79.1,71.5,80.2,71.9,81.6L71.9,81.6L71.9,81.6z M69.5,77.8
		c1-6.6-1-12.1-6.6-16.3c-2.4-1.8-5.4-3.2-9.6-4.8c-0.9-0.3-2.2-1.2-2.9-1.8c-0.4,0.1-0.6,0-0.9-0.3c-0.4-0.3-0.7-0.8-0.5-1.3
		c0.1-0.3,0.6-0.4,0.9-0.3c0.3,0.1,0.4,0.4,0.3,0.6c-0.1,0.2-0.4,0.2-0.7,0.2c0.1,0.7,0.9,0.6,1.1,0.1c0.2-0.4,0-1.1-0.5-1.3
		c-0.3-0.2-1.2-0.2-1.6,0.4c-0.2,0.3-0.2,0.7-0.2,1c1,0.6,1.7,1.8,1.2,2.5c0.9,0.6,1.8,1.2,2.9,1.6c3.1,1.1,6.7,2.7,9.6,4.7
		c4.2,3,6.7,8.1,5.7,13.3C68.4,76.7,68.9,76.9,69.5,77.8L69.5,77.8L69.5,77.8z M67,76.1c0-3.8,0.3-4.8-1.9-8.5
		c-2.5-4.2-5.7-5.6-13.3-8.9c-0.9-0.4-2-1-2.7-1.5c-0.3,0.2-1,0.2-1.3-0.2c-0.3-0.4-0.5-0.9-0.2-1.4c0.2-0.3,0.6-0.4,0.9-0.2
		c0.3,0.1,0.3,0.4,0.2,0.6c-0.1,0.2-0.4,0.2-0.7,0.2c0.1,0.7,1,0.6,1.2,0.1c0.2-0.4,0.2-1.2-0.5-1.4c-0.4-0.2-1.2-0.2-1.6,0.4
		c-1,1.4-0.1,3.1,2.2,4.2c0.6-1,1.7-0.8,2.2-0.6c0.5,0.3,1.2,0.8,0.8,2.1c5.5,2,9.4,4.2,11.4,7.9c0.9,1.7,1.5,3.9,1.3,6.5
		C65.5,75.5,66.2,75.7,67,76.1L67,76.1L67,76.1z M64,75.5c0-3.8-0.5-6-3.5-8.8c-2-1.8-5.5-3.8-7-4.1c-0.7-0.1-1.5-0.6-1.7-0.8
		c-0.5,0.3-1,0.2-1.4,0c-0.5-0.3-0.5-1.2-0.3-1.6c0.2-0.3,0.6-0.4,0.9-0.2c0.2,0.2,0.3,0.4,0.2,0.6c-0.1,0.2-0.5,0.3-0.7,0.2
		c0.1,0.7,0.9,0.6,1.2,0.1c0.3-0.5,0.2-1.1-0.3-1.4c-0.4-0.3-1.3-0.2-1.7,0.4c-1,1.6,0.1,3,3.3,4.4c0.7-1,1.9-1,2.4-0.7
		c0.5,0.3,1.5,1.2,0.9,2.5c3.6,1.3,7.1,5.1,5.7,9.6C62.3,75.5,63.2,75.3,64,75.5L64,75.5L64,75.5z M58.6,77.4c0.5-0.5,0.9-1,2.5-1.5
		c0.6-2.6-0.1-4.2-1.1-5.9c-0.9-1.5-3.1-2.8-4.4-3.5c-0.6,0-1.1,0.1-1.5-0.3c-0.4-0.3-0.4-1-0.2-1.4c0.2-0.3,0.7-0.6,1-0.3
		c0.2,0.1,0.4,0.5,0.3,0.7c-0.1,0.2-0.4,0.2-0.6,0.2c-0.1,0.1-0.1,0.2-0.1,0.4c0.5,0.2,0.9,0,1.1-0.3c0.2-0.4,0.1-1.1-0.4-1.4
		c-0.5-0.4-1.5-0.1-1.8,0.5c-0.4,0.7-0.3,1.9,0.3,2.5c1.6,1.4,3.9,2.3,4.8,4.2C59.3,73.1,59.5,75.4,58.6,77.4L58.6,77.4L58.6,77.4z
		 M46.7,58.8c0.7,0.4,1.5,0.8,2.2,1.2c-0.5,2.2,0.8,3.7,3.6,4.8c-0.1,0.8-0.3,1.8,0.3,2.6c1.1,1.4,3.1,1.9,4.2,3.5
		c1.4,2,1.7,4.2,1.2,6.6c-5.1-0.8-9.6-2.2-14-3.7C44,68.8,43.9,63.9,46.7,58.8L46.7,58.8L46.7,58.8z M49.4,51.8
		c-0.5,0-0.7,0.1-1,0.3c-2.1-1.9-5.6-6.2-6.9-9.3c-0.3-0.7,0.5-1,0.7-0.5C43,44.6,47.6,50.7,49.4,51.8L49.4,51.8L49.4,51.8z
		 M48.1,52.6c-0.2,0.4-0.3,0.8-0.2,1.3c-2-2.1-6.7-6.9-7.9-9.8c-0.3-0.7,0.7-1.2,0.9-0.6C41.7,45.9,46.3,51.4,48.1,52.6L48.1,52.6
		L48.1,52.6z M47.4,54.2c-0.3,0.1-0.7,0.1-0.9,0.4c-2.1-1.6-6.4-6.2-7.9-9.2c-0.4-0.8,0.7-1,0.9-0.4C40.5,47.2,45.6,53.1,47.4,54.2
		L47.4,54.2L47.4,54.2z M46.4,55.2c-0.2,0.4-0.3,0.5-0.4,0.8c-2.5-1.8-7.1-6.4-8.7-9.2c-0.4-0.6,0.6-1.2,0.8-0.6
		C39.1,48.5,44.3,54,46.4,55.2L46.4,55.2L46.4,55.2z M46,56.7c-0.1,0.4,0.1,1.1,0.3,1.6c-2.3-1.9-8.9-7.6-10.1-10.3
		c-0.3-0.7,0.6-1,0.9-0.4C38,49.8,44,55.7,46,56.7L46,56.7L46,56.7z M46,58.7c-0.1,0.2-0.2,0.4-0.4,0.7c-3.1-2.1-8.9-7-10.5-9.9
		c-0.4-0.7,0.4-1,0.7-0.5C37.8,51.9,42,56,46,58.7L46,58.7L46,58.7z M45.3,60c-0.1,0.3-0.2,0.6-0.4,1c-3.8-2.6-8.5-7.1-10.7-9.8
		c-0.6-0.7,0.2-1.2,0.6-0.6C37,53.4,40.9,57,45.3,60L45.3,60z M43.3,71.1c0,0.4,0,0.9,0.1,1.4c-4.2-1.2-13.9-7.6-14.6-9.4
		c-0.4-1,0.3-1.4,0.8-0.8C31.5,64.5,40.4,70.4,43.3,71.1L43.3,71.1L43.3,71.1z M43.4,69.1c0,0.4,0,0.6,0,1.2
		C39,69,30.3,62.2,29.3,60.6c-0.5-0.8,0.6-1.3,1.1-0.8C32.2,61.8,40.1,68.4,43.4,69.1L43.4,69.1z M43.5,67.2c0,0.3-0.1,0.8-0.1,1.3
		c-3.7-1.7-12.1-8.3-13-9.8c-0.6-0.9,0.5-1.5,1-1C33.1,59.6,40.8,66,43.5,67.2L43.5,67.2z M43.8,65.2c-0.1,0.3-0.2,0.9-0.2,1.3
		c-3.5-2-11.5-8.5-12.4-10.1c-0.4-0.8,0.3-1.4,0.8-0.8C33.7,57.7,41,63.7,43.8,65.2L43.8,65.2L43.8,65.2z M44.3,63.3
		c-0.2,0.5-0.4,0.9-0.4,1.2c-3.3-2-10.6-8.4-11.5-10c-0.5-0.8,0.3-1.5,0.8-0.9C34.9,55.8,41.4,61.9,44.3,63.3L44.3,63.3z M44.9,61.6
		c-0.2,0.4-0.3,0.8-0.5,1.1c-3-2.1-8.8-7.2-11.1-10c-0.6-0.8,0.4-1.3,0.8-0.6C35.9,54.7,42.5,60.4,44.9,61.6L44.9,61.6L44.9,61.6z
		 M49.9,50.9c-2.7-2.9-7.5-8.3-9.7-15.6c-1.4-4.7-1.7-10,0.1-16.1c-1.5,1.1-3,2.2-4.4,3.5c-0.7,6.5,0.6,14.9,4,20.1
		c0.3-0.1,0.5,0,0.7,0.1c-0.1-0.9,0-1.2,0.5-1.4c0.5-0.2,1.2,0.2,1.5,0.6c1.4,2.6,4.8,7.3,7,9.4C49.8,51.2,49.8,51.1,49.9,50.9
		L49.9,50.9L49.9,50.9z M34.8,23.1c-0.7,5.2,1.1,16.1,4.5,20.1c-0.1,0.3-0.2,0.5-0.1,0.9c-0.4-0.2-0.5-0.3-0.9,0
		c-0.2,0.1-0.5,1-0.3,1.4c-0.4,0-0.2-0.2-0.4,0c-3.1-4.6-5.8-11.2-6.2-18.5C32.4,25.6,33.5,24.4,34.8,23.1L34.8,23.1L34.8,23.1z
		 M30.3,27.5c0,4.1,3.3,15,6.4,18.2c-0.1,0.2-0.2,0.7-0.1,1.1c-0.4-0.1-0.6-0.1-0.9,0c-0.3,0.2-0.3,0.9-0.3,1.4
		c-0.1-0.1-0.3-0.1-0.4,0c-2.7-3.5-7.2-10.7-8.2-16.5C28,30.3,29.1,28.8,30.3,27.5L30.3,27.5L30.3,27.5z M26,32.3
		c0.4,4.1,5.5,12.9,8.5,15.9c-0.2,0.4-0.2,1-0.1,1.4c-0.4-0.1-0.6-0.1-0.9,0.1c-0.2,0.2-0.3,0.7,0,1c-0.1,0.1-0.1,0.1-0.3,0.2
		c-2.4-2.7-7.6-8.9-9.8-14C24.1,35.9,25.1,33.6,26,32.3L26,32.3L26,32.3z M22.6,37.5c1.3,3.8,7.1,11.1,9.9,13.9
		c-0.1,0.3-0.2,0.8,0.1,1.4c-0.4,0-0.8,0.1-1,0.3c-0.3,0.3-0.1,1,0.2,1.5c-0.1,0-0.5,0-0.7,0.2c-2.7-2.4-7.7-8.5-10.2-12.4
		C21.2,41.4,21.6,38.8,22.6,37.5L22.6,37.5L22.6,37.5z M20,42.7c1.7,3.8,8.2,11.3,10.5,12.7c-0.1,0.3,0.1,1.2,0.4,1.5
		c-0.4,0-1,0-1.3,0.4c-0.3,0.5-0.2,1,0.2,1.5c-0.4,0-0.7,0-0.9,0.2c-2.7-1.7-7.3-6.3-10.2-10.7C18.8,47.4,19.2,44.3,20,42.7L20,42.7
		L20,42.7z M17.9,48.7c1.4,3.5,8.4,9.7,10.7,11.2c-0.2,0.4,0.1,1,0.3,1.4c-0.9,0-1.1,0.4-1.2,0.8c-0.3,1.1,1.3,2.7,3.6,4.5
		c3.4,2.5,8.2,5.3,12.1,6.5c0.3,0.2,0.2,0.6,0.1,0.6c-9-2.9-19.1-10.7-27-19.7C16.7,53,17.2,50.3,17.9,48.7L17.9,48.7L17.9,48.7z
		 M55.2,77.6c0.9,0.2,1.8,0.3,2.8,0.3c-1.8,1.7-2.6,3.7-2.6,5.7c0,0.3-0.5,0.5-0.7,0.6c0-0.3,0.1-0.7,0.1-1c0-0.7-0.7-1.3-1.7-1.4
		c-1.2-0.1-2.9,0.7-3,2.5c-0.1,1.7,1.5,3.5,3.4,4c1.8,0.5,3.8,0.2,5-1.1c0.1,0.8,0.5,1.4,1,1.9c1.2,1.3,3.2,1.8,4.3,3.4
		c0.4,0.6,0.7,1-0.2,2.1C55,92.6,50.5,88.1,47.5,83C50.6,81.3,53,79.5,55.2,77.6L55.2,77.6L55.2,77.6z M32.9,89.6
		c2.4-0.3,7.8-3.1,13.9-6.2c0.3,0.7,0.7,1.2,1.1,1.7c-4.1,2.3-10.6,6.4-12.4,6.4C34.4,91.5,33.5,90.6,32.9,89.6L32.9,89.6L32.9,89.6
		z M35.7,92.3c2.4-0.5,8.1-3.8,12.5-6.6c0.3,0.7,1,1.3,1.4,1.7c-4.1,2.3-9.4,6.1-11.1,6.1C37.3,93.5,36.6,93.1,35.7,92.3L35.7,92.3z
		 M38.6,94.2c2.7-0.5,6.9-3.5,11.3-6.3c0.4,0.6,1.2,1.1,1.7,1.6c-4.1,2.3-8.4,5.8-10.1,6C40.5,95.7,39.5,95.1,38.6,94.2L38.6,94.2z
		 M41.7,96.2c2.7-0.6,6.1-3.5,10.5-6.2c0.5,0.6,1.2,0.9,1.8,1.3c-4.1,2.3-7.3,5.5-9,5.9C44,97.4,42.6,96.9,41.7,96.2L41.7,96.2z
		 M45.1,97.8c2.7-0.6,4.9-3.3,9.3-6.1c0.5,0.4,1.3,0.8,2,1.1c-3.5,2.4-6.5,5.2-7.8,5.8C47.6,99,46,98.5,45.1,97.8L45.1,97.8z
		 M48.7,99.3c3-1.3,4.8-3.7,8.1-6.1c0.6,0.3,1.8,0.7,2.4,1c-3.2,2.4-5.5,4.9-6.7,5.5C51.5,100.1,49.6,100.1,48.7,99.3L48.7,99.3z
		 M52.2,100.6c3-1.3,4.8-3.5,7.7-6.1c0.6,0.3,2.2,0.7,3,0.7c-2.9,2.5-5.6,5.6-6.9,6C55.3,101.5,53.2,101.2,52.2,100.6L52.2,100.6z
		 M66.3,96.2c0.2-0.2,0.7-0.1,0.9,0.1c0.3,0.3,0.6,0.9,0.6,1.3c0,1.3-1.6,2.4-2.8,2.4c-0.9,0-1.8-0.2-2.8-0.2c-0.5,0-1.3,0.5-1.2,1
		c0,0.8,0.5,1.6,1.2,1.8c-0.1-0.4-0.3-0.6,0-0.9c0.2-0.2,3.3,0.4,5.1,0.4c3.6-0.1,5.3-1.2,6.5-1.1c0.4,0,1,0.1,1.1,0.4
		c0.1,0.4-0.3,0.8-0.6,1.1c0.9,0.1,2-0.8,1.9-1.8c0-0.5-0.4-1.1-0.9-1.2c-1.2-0.2-2.5,0.3-3.6,0c-2.3-0.7-2.8-4.2-4.8-4.3
		c-0.6,0-1.5,0.3-1.5,1.5c0,0.5,0.4,0.9,0.9,0.9c0.4,0,0.7-0.4,0.7-0.7C66.8,96.6,66.5,96.3,66.3,96.2L66.3,96.2L66.3,96.2z"/>
</g>
</svg>
