<?xml version="1.0" encoding="utf-8"?>
<!-- Generator: Adobe Illustrator 15.0.0, SVG Export Plug-In . SVG Version: 6.00 Build 0)  -->
<!DOCTYPE svg PUBLIC "-//W3C//DTD SVG 1.1//EN" "http://www.w3.org/Graphics/SVG/1.1/DTD/svg11.dtd">
<svg version="1.1" id="Слой_2" xmlns="http://www.w3.org/2000/svg" xmlns:xlink="http://www.w3.org/1999/xlink" x="0px" y="0px"
	 width="270px" height="54px" viewBox="0 0 270 54" enable-background="new 0 0 270 54" xml:space="preserve">
<g>
	<path fill="#030303" d="M79.522,16.727c-2.432,0-4.338,0.566-5.72,1.699c-1.812,1.484-2.896,5.094-1.516,7.192
		c1.187,1.8,3.192,2.386,4.954,3.399c0.554,0.318,1.018,0.671,1.392,1.058c0.977,1.015,0.792,2.728-0.246,3.584
		c-2.195,1.808-6.583,1.109-8.396,0.373c-5.746-2.334-4.129-11.21-0.583-11.802c-3.146-0.166-4.833,1.724-5.654,4.779
		c-2.485,9.257,8.061,15.289,16.206,11.295c0.758-0.373,1.421-0.877,1.989-1.513c0.565-0.636,1.009-1.396,1.327-2.28
		c0.316-0.885,0.477-1.852,0.477-2.902c0-1.539-1.201-2.629-2.405-3.399c-0.69-0.441-1.443-0.85-2.259-1.223
		c-1.35-0.618-2.836-1.248-3.979-2.217c-0.457-0.386-0.685-0.815-0.685-1.285c0-0.415,0.167-0.739,0.498-0.974
		c1.082-0.767,2.572-0.809,3.854-0.809c2.35,0,3.648,0.705,3.899,2.113c1.014-1.447,2.179-3.503,1.409-5.306
		C83.474,17.087,80.913,16.727,79.522,16.727L79.522,16.727z"/>
	<path fill="#030303" d="M91.03,29.464c-1.578,0.352-2.903,1.285-3.985,2.804c-0.729,0.992-1.095,2.057-1.095,3.196
		c0,0.789,0.17,1.357,0.505,1.708c0.877,0.915,2.743,0.557,3.612-0.175c0.38-0.292,0.745-0.591,1.096-0.898
		c0.35-0.307,0.686-0.649,1.007-1.028c0.538,3.513,2.996,3.223,5.824,2.846c0.875-0.116,1.643-0.328,2.298-0.634
		c1.476-0.688,2.212-1.958,2.212-3.569c-1.043,0.491-2.123,0.914-3.219,1.27c-0.54,0.175-1.05,0.321-1.532,0.438
		c-0.482,0.116-0.898,0.175-1.248,0.175c-0.378,0-0.708-0.015-0.986-0.044c-0.276-0.028-0.502-0.13-0.678-0.306
		c-0.174-0.175-0.309-0.445-0.395-0.81c-0.226-0.95-0.142-1.644,0.045-2.54c0.058-0.277,0.131-0.65,0.218-1.117l-0.177-1.138
		l-1.923,1.357C92.608,29.976,92.083,29.464,91.03,29.464L91.03,29.464z M88.929,35.157c-0.174,0.059-0.336,0.088-0.482,0.088
		c-0.232,0-0.379-0.116-0.437-0.35c0-0.321,0.102-0.664,0.306-1.029c0.204-0.365,0.445-0.708,0.723-1.03
		c0.276-0.32,0.583-0.598,0.921-0.832c0.335-0.233,0.633-0.38,0.897-0.438c0.35-0.146,0.626-0.219,0.831-0.219
		c0.321,0,0.482,0.161,0.482,0.482c0,0.292-0.132,0.627-0.395,1.006C90.753,34.063,89.805,34.837,88.929,35.157L88.929,35.157z"/>
	<path fill="#030303" d="M108.961,29.765c0-0.259-0.095-0.481-0.28-0.669c-0.188-0.187-0.412-0.28-0.67-0.28
		c-0.346,0-0.771,0.071-1.275,0.215c-0.502,0.144-0.799,0.216-0.886,0.216c-0.343,0-0.587-0.115-0.731-0.346
		c-0.145-0.229-0.261-0.705-0.347-1.424c-0.202,0.519-0.382,0.921-0.539,1.208c-0.159,0.288-0.295,0.533-0.412,0.734
		c-0.115,0.202-0.2,0.41-0.259,0.627c-0.058,0.215-0.085,0.511-0.085,0.884c0,0.461,0.158,0.82,0.475,1.08
		c0.143,0.144,0.344,0.216,0.603,0.216l1.295-0.345c0.259,0,0.419,0.093,0.477,0.28c0.18,0.586,0.02,0.88-0.259,1.404
		c-0.23,0.431-0.346,0.892-0.346,1.382c0,0.201,0.028,0.432,0.087,0.69c0.056,0.26,0.128,0.548,0.215,0.864
		c0.171,0.402,0.533,0.72,1.081,0.951c0.544,0.23,1.422,0.345,2.634,0.345c1.209,0,2.171-0.021,2.891-0.065
		c0.721-0.043,1.282-0.093,1.685-0.151c0.405-0.058,0.691-0.123,0.864-0.195c0.172-0.072,0.346-0.136,0.517-0.194
		c1.326-0.519,2.267-1.101,2.828-1.75c0.562-0.647,0.843-1.216,0.843-1.705c-1.295,0.346-2.59,0.648-3.888,0.907
		c-1.294,0.259-2.604,0.389-3.928,0.389h-1.426c-0.228,0-0.459,0-0.689,0c-0.201,0-0.418-0.015-0.647-0.043
		c-0.777-0.172-1.166-0.547-1.166-1.123C107.623,32.764,108.618,30.864,108.961,29.765L108.961,29.765z"/>
	<path fill="#030303" d="M128.326,27.356c-0.515,0.181-0.818,0.529-0.908,1.044c-0.485,2.422-1.136,4.209-1.954,5.359
		c-0.272,0.365-0.544,0.545-0.816,0.545c-0.302,0-0.546-0.257-0.727-0.772c-0.091-0.515-0.212-1.226-0.364-2.134
		c-0.152-0.908-0.333-1.726-0.544-2.453c-0.152-0.575-0.305-0.923-0.456-1.044c-0.151-0.122-0.301-0.182-0.453-0.182h-0.364
		c0.242,0.908,0.364,1.726,0.364,2.452l-0.228,3.134c0,1.06,0.127,1.954,0.385,2.68s0.751,1.09,1.477,1.09
		c0.515,0,1.013-0.182,1.499-0.546c0.484-0.363,0.863-0.757,1.135-1.181c0.181,0.364,0.272,0.773,0.272,1.227
		c0,1.665-0.333,3.021-0.998,4.065c-0.667,1.045-1.832,1.567-3.499,1.567c-1.544,0-2.831-0.652-3.861-1.954
		c0,3.089,1.21,4.633,3.635,4.633c0.757,0,1.384-0.053,1.885-0.158c0.499-0.106,0.923-0.311,1.271-0.614
		c0.348-0.301,0.666-0.741,0.954-1.317c0.289-0.575,0.612-1.316,0.977-2.225c0.301-0.908,0.544-1.809,0.726-2.702
		c0.183-0.893,0.318-1.718,0.408-2.476c0.091-0.756,0.145-1.438,0.161-2.043c0.014-0.606,0.022-1.09,0.022-1.454V27.356
		L128.326,27.356z"/>
	<path fill="#030303" d="M152.544,17.451l-1.225,15.87c0.028,0.536,0.071,1.063,0.126,1.584c0.059,0.52,0.148,0.985,0.274,1.393
		c0.128,0.408,0.306,0.739,0.529,0.991c0.225,0.254,0.521,0.38,0.886,0.38c0.704,0,1.688-0.914,2.956-2.744
		c0.198,0.816,0.443,1.386,0.736,1.709c0.297,0.324,0.501,0.513,0.612,0.57h0.044c0.056,0,0.098,0.015,0.124,0.042
		c0.283,0.112,0.558,0.218,0.825,0.316c0.266,0.1,0.751,0.148,1.457,0.148c0.731,0,1.441-0.092,2.131-0.274
		c0.69-0.184,1.356-0.43,2.006-0.739c0.732-0.535,1.181-0.992,1.35-1.372c0.168-0.38,0.283-0.865,0.337-1.456
		c-0.789,0.563-1.71,0.922-2.764,1.076c-1.056,0.155-2.076,0.232-3.06,0.232c-0.816,0-1.457-0.119-1.922-0.358
		c-0.464-0.239-0.694-0.865-0.694-1.879c0-0.787,0.224-2.222,0.673-4.305c0-0.365-0.071-0.549-0.209-0.549
		c-0.253,0-0.422,0.057-0.509,0.168l-0.715,2.111c-0.143,0.422-0.31,0.894-0.507,1.414c-0.198,0.521-0.422,1.008-0.677,1.457
		c-0.252,0.451-0.54,0.831-0.865,1.14c-0.322,0.309-0.681,0.464-1.074,0.464c-0.368,0-0.566-0.252-0.592-0.759l3.249-17.433
		L152.544,17.451L152.544,17.451z"/>
	<path fill="#030303" d="M169.335,32.436l3.8-15.49l-4.81,2.574l-0.761,17.601c0,0.141,0.097,0.261,0.295,0.359
		c0.196,0.098,0.381,0.147,0.546,0.147h0.172c0.505-0.338,0.872-0.646,1.096-0.928c0.478-0.647,0.874-1.175,1.184-1.583
		c0.309-0.408,0.562-0.738,0.757-0.991c0.198-0.253,0.355-0.437,0.468-0.549c0.111-0.113,0.208-0.197,0.293-0.254
		c0.228,0.086,0.366,0.198,0.422,0.338c0.057,0.14,0.085,0.296,0.085,0.465c0,0.196-0.028,0.43-0.085,0.696
		c-0.056,0.266-0.085,0.569-0.085,0.908c0,0.899,0.142,1.35,0.423,1.35c0.312-0.028,0.718-0.294,1.226-0.802
		c0.252-0.254,0.527-0.556,0.82-0.907c0.298-0.352,0.612-0.74,0.95-1.162c0.368-0.422,0.663-0.746,0.888-0.971
		c0.224-0.225,0.368-0.366,0.422-0.422c0.283,0,0.42,0.169,0.42,0.506c0,0.338-0.019,0.528-0.061,0.571
		c-0.042,0.043-0.064,0.19-0.064,0.443c0,0.646,0.162,1.175,0.486,1.583c0.322,0.408,0.751,0.732,1.286,0.971
		c0.536,0.239,1.153,0.409,1.859,0.506c0.702,0.099,1.433,0.148,2.193,0.148c0.871,0,1.725-0.029,2.553-0.085
		c0.832-0.056,1.598-0.126,2.303-0.211c0.701-0.084,1.335-0.161,1.897-0.232c0.562-0.07,1.011-0.12,1.35-0.147
		c0.845-0.281,1.55-0.752,2.111-1.414c0.563-0.66,0.872-1.442,0.929-2.342c-0.283,0.168-0.507,0.303-0.676,0.401
		c-0.168,0.098-0.332,0.189-0.486,0.273c-0.155,0.085-0.311,0.155-0.464,0.211c-0.157,0.057-0.358,0.113-0.613,0.168
		c-2.814,0.142-5.081,0.26-6.793,0.359c-1.717,0.099-3.14,0.176-4.267,0.232l-0.166-0.042c-0.368-0.085-0.704-0.161-1.014-0.232
		c-0.309-0.071-0.578-0.176-0.803-0.318c-0.195-0.28-0.296-0.619-0.296-1.012c0-0.141,0.022-0.479,0.064-1.014
		c0.043-0.535,0.092-1.266,0.148-2.194c0-0.535-0.099-0.929-0.296-1.182c-0.196-0.253-0.419-0.381-0.674-0.381
		c-0.227,0-0.52,0.198-0.885,0.592c-0.369,0.393-0.741,0.824-1.122,1.288c-0.378,0.465-0.731,0.886-1.055,1.266
		c-0.324,0.38-0.555,0.57-0.695,0.57c-0.085,0-0.155-0.239-0.21-0.717c-0.059-0.479-0.106-1-0.148-1.562
		c-0.042-0.563-0.098-1.084-0.169-1.563c-0.07-0.478-0.164-0.717-0.276-0.717c-0.422,0-0.822,0.205-1.2,0.613
		c-0.383,0.407-0.726,0.878-1.036,1.414c-0.311,0.535-0.607,1.076-0.888,1.625c-0.281,0.547-0.535,0.963-0.759,1.245
		c-0.198,0.281-0.337,0.422-0.422,0.422C169.479,32.857,169.42,32.717,169.335,32.436L169.335,32.436z M184.826,29.777
		c0,0.365,0.126,0.668,0.383,0.907c0.25,0.24,0.575,0.359,0.969,0.359s0.727-0.12,0.992-0.359c0.268-0.238,0.402-0.542,0.402-0.907
		c0-0.338-0.134-0.633-0.402-0.887c-0.265-0.253-0.598-0.379-0.992-0.379s-0.719,0.126-0.969,0.379
		C184.953,29.144,184.826,29.439,184.826,29.777L184.826,29.777z"/>
	<g>
		<g>
			<path fill="#030303" d="M134.036,32.327c0.033-0.543,1.577-14.507,1.75-16.065l-2.008-0.963l-1.563,3.672v17.644
				c0,0.28,0.113,0.421,0.338,0.421c0.198,0,0.38-0.141,0.548-0.421c0.17-0.282,0.333-0.613,0.486-0.992
				c0.157-0.38,0.283-0.74,0.381-1.077c0.098-0.338,0.189-0.577,0.273-0.717c0.006-0.013,0.011-0.025,0.018-0.039
				C134.042,33.644,134.001,32.904,134.036,32.327z"/>
			<path fill="#030303" d="M143.443,30.747c0.169,0.085,0.339,0.127,0.506,0.127c0.196,0,0.407-0.042,0.634-0.127
				c0.109-0.112,0.166-0.295,0.166-0.548v-0.127c0-0.197-0.057-0.352-0.166-0.464c-0.228-0.225-0.438-0.338-0.634-0.338
				c-0.167,0-0.337,0.113-0.506,0.338c-0.168,0.169-0.267,0.338-0.295,0.507c0.029,0.112,0.07,0.218,0.127,0.316
				C143.33,30.529,143.388,30.635,143.443,30.747z"/>
			<path fill="#030303" d="M148.971,31.549c-0.225-0.647-0.338-1.21-0.338-1.688c0-0.365,0.059-0.717,0.169-1.056
				c-0.955,0.845-1.434,1.689-1.434,2.534l0.634,2.152c0,0.309-0.295,0.549-0.886,0.717c-0.593,0.169-1.289,0.303-2.092,0.401
				c-0.8,0.099-1.624,0.162-2.468,0.191c-0.842,0.027-1.505,0.041-1.982,0.041h-2.998c-0.591,0-0.887-0.155-0.887-0.464
				c0-0.113,0.114-0.282,0.338-0.506c0.225-0.225,0.486-0.457,0.782-0.697c0.297-0.239,0.575-0.464,0.843-0.675
				c0.269-0.211,0.459-0.386,0.57-0.527c0.731-0.815,1.098-1.576,1.098-2.279c0-0.394-0.118-0.717-0.359-0.97
				c-0.116-0.124-0.268-0.255-0.441-0.362c-0.58-0.005-1.65-0.094-1.835,0.669c-0.191,0.792,0.526,1.068,0.227,1.934
				c-0.043,0.213-0.134,0.429-0.313,0.649c-0.241,0.296-0.558,0.626-0.951,0.992c-0.706,0.635-1.536,0.984-2.061,1.136
				c-0.131,0.059-0.237,0.094-0.29,0.078c0.282,1.183,1.174,2.091,1.864,2.627c0.692,0.535,1.416,0.801,2.176,0.801
				c0.504,0,1.133-0.014,1.877-0.042c0.745-0.028,1.526-0.085,2.342-0.169c0.815-0.084,1.626-0.211,2.429-0.38
				c0.799-0.169,1.523-0.401,2.172-0.697c0.646-0.296,1.167-0.662,1.561-1.098c0.396-0.437,0.592-0.949,0.592-1.541
				C149.311,32.789,149.197,32.196,148.971,31.549z"/>
		</g>
	</g>
	<g>
		<g>
			<path fill-rule="evenodd" clip-rule="evenodd" fill="#030303" d="M20.951,26.207L20.951,26.207L20.951,26.207
				c0.06,0.197,0.362,0.313,0.843,0.353c0.015,0.001,0.029,0.002,0.044,0.003c0.098,0.007,0.204,0.011,0.315,0.011
				c0.055,0.001,0.112,0,0.17,0c0.163-0.002,0.336-0.011,0.521-0.024c0.263-0.021,0.547-0.051,0.847-0.094
				c0.978-0.14,2.139-0.4,3.361-0.773l0,0v0h0.001v0c1.245-0.379,2.371-0.819,3.269-1.257c0.255-0.124,0.492-0.248,0.708-0.371
				c0.316-0.181,0.588-0.356,0.804-0.52c0.032-0.024,0.062-0.048,0.091-0.071c0.366-0.296,0.546-0.556,0.487-0.75h-0.001l0,0
				l0.001,0c-0.007-0.023-0.017-0.044-0.031-0.066c-0.04-0.011-0.078-0.022-0.12-0.035l-0.04-0.012
				c-0.041,0.134-0.138,0.279-0.285,0.432c-0.243,0.253-0.625,0.527-1.113,0.806c-0.946,0.537-2.303,1.104-3.848,1.576l0,0l-0.001,0
				h0h0c-1.545,0.471-2.989,0.757-4.073,0.838c-0.55,0.041-1.012,0.028-1.354-0.043c-0.213-0.044-0.379-0.11-0.492-0.2
				c-0.038,0.057-0.074,0.117-0.111,0.176C20.947,26.192,20.948,26.2,20.951,26.207z"/>
			<path fill-rule="evenodd" clip-rule="evenodd" fill="#030303" d="M22.845,32.241c1.563-0.032,3.629-0.388,5.827-1.058l0,0l0,0
				l0.001,0v0c2.198-0.67,4.11-1.527,5.426-2.372c1.121-0.72,1.832-1.429,1.874-1.98c-0.002-0.11-0.012-0.244-0.027-0.382
				c0.003,0.032,0.005,0.056,0.008,0.086c-0.239,0.542-0.896,1.158-1.858,1.774c-1.351,0.862-3.31,1.738-5.56,2.424l0.001,0h-0.001
				h-0.001v0c-2.25,0.686-4.364,1.051-5.966,1.088c-0.261,0.006-0.509,0.004-0.743-0.008c-0.878-0.042-1.562-0.228-1.934-0.53
				c0.051,0.121,0.111,0.232,0.178,0.341C20.415,32.058,21.516,32.27,22.845,32.241z"/>
			<path fill-rule="evenodd" clip-rule="evenodd" fill="#030303" d="M20.113,31.692c0.049,0.075,0.101,0.149,0.158,0.227
				C20.214,31.841,20.162,31.767,20.113,31.692z"/>
			<path fill-rule="evenodd" clip-rule="evenodd" fill="#030303" d="M27.021,29.841c-0.097,0.463-0.356,0.768-0.606,1.135
				c0.507-0.527,0.878-1.142,0.905-1.886l0,0l0,0h0c0.003-0.098,0.002-0.198,0.001-0.303c-0.006-0.569-0.015-1.268,0.592-1.509
				l0.188-0.075l-0.075,0.188c-0.083,0.209-0.052,0.373,0.039,0.482c0.048,0.057,0.112,0.101,0.186,0.13
				c0.077,0.03,0.162,0.046,0.25,0.045c0.225-0.002,0.461-0.11,0.586-0.345v0l0,0c0.017-0.033,0.031-0.069,0.041-0.107
				c0.011-0.039,0.019-0.082,0.022-0.125c0.02-0.229-0.054-0.491-0.208-0.637c-0.136-0.131-0.319-0.208-0.515-0.235
				c-0.189-0.027-0.393-0.009-0.581,0.051c-0.187,0.059-0.358,0.158-0.487,0.293c-0.118,0.124-0.2,0.278-0.227,0.458
				c-0.007,0.049-0.012,0.16-0.012,0.161l-0.005,0.14l-0.123-0.065c-0.198-0.105-0.396-0.195-0.6-0.251
				c-0.202-0.055-0.413-0.078-0.639-0.052c-0.051,0.006-0.104,0.014-0.16,0.025c-0.397,0.079-0.893,0.283-1.277,0.567
				c-0.372,0.274-0.636,0.622-0.592,0.995c0.002,0.018,0.005,0.037,0.009,0.057c0.002,0.01,0.003,0.019,0.006,0.027
				c0.028,0.104,0.092,0.175,0.174,0.216c0.088,0.043,0.197,0.053,0.31,0.031c0.014-0.003,0.028-0.006,0.042-0.01
				c0.097-0.026,0.238-0.1,0.384-0.204c0.157-0.113,0.314-0.259,0.422-0.417c0.101-0.148,0.155-0.306,0.116-0.451
				c-0.084-0.314-0.508-0.227-0.753-0.169c0.228-0.129,0.413-0.264,0.664-0.344c0.35-0.109,0.749-0.13,1.076,0.015l0,0
				c0.084,0.038,0.163,0.082,0.238,0.131c0.073,0.05,0.143,0.106,0.206,0.167c0.327,0.313,0.509,0.756,0.481,1.19
				C27.083,29.405,27.066,29.626,27.021,29.841z"/>
			<path fill-rule="evenodd" clip-rule="evenodd" fill="#030303" d="M35.898,26.109c0.003,0.021,0.008,0.049,0.012,0.08
				C35.907,26.162,35.902,26.135,35.898,26.109z"/>
			<path fill-rule="evenodd" clip-rule="evenodd" fill="#030303" d="M35.527,25.245c0.096,0.88-0.768,0.931-1.526,0.844
				c-0.556-0.064-1.265-0.197-1.819-0.069c-0.636,0.148-1.276,0.912-0.724,1.568c0.167,0.2,0.562,0.386,0.831,0.363
				c-0.308-0.153-0.683-0.499-0.713-0.84c-0.043-0.491,0.396-0.843,0.882-0.674c0.868,0.3,0.803,1.616,0.031,1.965
				c-1.12,0.506-1.549-0.434-1.856-1.514c-0.297-1.048-1.354-1.353-2.293-1.447c-0.001,0-0.001,0-0.001,0
				c-0.394,0.141-0.806,0.277-1.231,0.407l0,0l0,0h0v0c-0.211,0.065-0.42,0.126-0.627,0.184c-0.003,0.001-0.006,0.001-0.008,0.002
				c-0.281,0.266-0.602,0.483-0.91,0.717c0,0,0.199-0.063,0.291-0.06c0.276,0.011,0.541,0.085,0.792,0.18l0.194-0.214
				c0.436-0.432,1.003-0.66,1.613-0.686c0.488-0.022,1.1,0.242,1.409,0.612c0.175,0.209,0.254,0.509,0.21,0.779
				c-0.14,0.822-1.262,1.523-2.044,1.171c0.455,0.106,0.918-0.053,1.288-0.321c0.343-0.249,0.583-0.559,0.587-0.99
				c0.002-0.328-0.247-0.652-0.522-0.814c-0.597-0.352-1.178-0.361-1.816-0.095c-0.39,0.163-0.649,0.396-0.897,0.742
				c-0.003,0.002-0.588-0.392-1.228-0.159c-0.124,0.045-0.398,0.158-0.398,0.158l0.496-0.404l0.738-0.563
				c-0.308,0.083-0.609,0.159-0.903,0.227l-1.113,1.029c-0.37,0.341-0.694,0.809-0.887,1.272c-0.146,0.353-0.15,0.733,0.104,1.027
				c0.283,0.328,0.601,0.289,0.98,0.191c0.901-0.232,1.2-0.785,1.115-1.666c0.165,0.542,0.103,1.008-0.342,1.416
				c-0.119,0.108-0.465,0.293-0.724,0.365c-0.425,0.118-0.787,0.157-1.116-0.165c-0.528-0.519-0.176-1.425,0.199-1.898
				c0.488-0.615,1.077-1.099,1.711-1.555c-0.001,0-0.001,0-0.001,0c-0.912,0.208-1.744,0.34-2.436,0.392
				c-0.104,0.008-0.205,0.014-0.303,0.018c-0.046,0.002-0.091,0.003-0.135,0.004c0.661,0.357,0.542,1.001,0.404,1.762
				c-0.123,0.683-0.102,1.317,0.518,1.723c0.653,0.428,1.604-0.053,2.108-0.498c-0.188,0.25-0.401,0.439-0.689,0.563
				c-0.322,0.138-0.709,0.25-1.064,0.217c-0.107-0.011-0.292-0.084-0.362-0.125c-0.745-0.427-0.76-1.199-0.651-1.971
				c0.024-0.169,0.049-0.404,0.049-0.404c0.052-0.664-0.002-0.913-0.464-1.266c-0.109,0-0.214-0.001-0.313-0.007
				c-0.008,0-0.017-0.001-0.025-0.001c0.745,0.964,0.768,2.016,0.167,3.144c-0.109,0.207-0.318,0.515-0.412,0.652
				c-0.239,0.343-0.475,0.634-0.62,1.026c0.233,0.038,0.49,0.064,0.767,0.078c0.229,0.011,0.472,0.014,0.731,0.008
				c0.987-0.023,2.173-0.172,3.466-0.445c0.227-0.235,0.419-0.515,0.585-0.796c0.123-0.205,0.191-0.398,0.234-0.599
				c0.043-0.205,0.06-0.419,0.074-0.661c0.025-0.383-0.137-0.775-0.427-1.052c-0.057-0.054-0.119-0.104-0.184-0.147
				c-0.065-0.044-0.136-0.083-0.21-0.117l0,0c-0.284-0.125-0.639-0.106-0.953-0.008l-0.014,0.004
				c0.048,0.021,0.091,0.056,0.131,0.11c0.042,0.06,0.072,0.123,0.089,0.186c0.054,0.201-0.013,0.407-0.139,0.594
				c-0.121,0.177-0.294,0.339-0.466,0.462c-0.162,0.116-0.324,0.199-0.44,0.23c-0.018,0.005-0.036,0.009-0.053,0.013
				c-0.15,0.03-0.298,0.016-0.42-0.044c-0.127-0.062-0.224-0.171-0.267-0.328c-0.003-0.013-0.006-0.026-0.009-0.039
				c-0.005-0.022-0.008-0.046-0.011-0.07c-0.052-0.447,0.244-0.848,0.662-1.157c0.405-0.299,0.927-0.514,1.346-0.597
				c0.06-0.012,0.118-0.021,0.174-0.028c0.25-0.029,0.483-0.004,0.705,0.057c0.178,0.048,0.349,0.12,0.518,0.204
				c0.001-0.016,0.003-0.031,0.005-0.043c0.031-0.22,0.131-0.406,0.273-0.555c0.149-0.157,0.347-0.271,0.561-0.339
				c0.212-0.067,0.442-0.088,0.658-0.057c0.232,0.033,0.448,0.125,0.612,0.282c0.19,0.182,0.284,0.502,0.26,0.778
				c-0.004,0.054-0.013,0.107-0.026,0.157c-0.015,0.052-0.032,0.101-0.057,0.144v0l0,0c-0.159,0.298-0.457,0.436-0.738,0.439
				c-0.111,0.001-0.22-0.02-0.317-0.059c-0.1-0.04-0.188-0.101-0.254-0.18c-0.096-0.114-0.147-0.265-0.124-0.446
				c-0.322,0.262-0.316,0.798-0.311,1.245c0.001,0.113,0.003,0.22,0,0.311v0v0l0,0c-0.019,0.508-0.148,0.927-0.377,1.286
				c-0.165,0.258-0.384,0.512-0.647,0.719c0.652-0.149,1.325-0.325,2.014-0.535l-0.001,0h0.001c2.233-0.681,4.178-1.549,5.516-2.405
				c0.467-0.298,1.868-1.23,1.892-2.085c-0.024-0.138-0.05-0.255-0.075-0.314c-0.069-0.167-0.229-0.603-0.428-0.941
				C35.462,24.949,35.508,25.07,35.527,25.245z M25.242,31.267c0.313-0.502,0.691-1.061,0.792-1.654
				c0.078-0.464-0.158-0.983-0.319-1.401C26.588,29.368,26.178,30.323,25.242,31.267z M28.424,30.491
				c0.329-0.794-0.124-1.461-0.748-1.862C28.533,28.864,29.131,29.548,28.424,30.491z M30.715,27.625l0.007,0.123
				c-0.064,1.046-0.734,1.594-1.744,1.841C29.75,29.166,30.353,28.536,30.715,27.625z M29.746,29.71c0,0,0.157-0.089,0.251-0.145
				c0.525-0.312,0.811-0.975,0.923-1.545C30.969,28.843,30.649,29.542,29.746,29.71z M34.754,27.266
				c-0.042,0.042-0.104,0.067-0.164,0.061c-0.17-0.019-0.357-0.187-0.489-0.296c-0.071-0.059-0.142-0.117-0.21-0.164
				c-0.273-0.186-0.646-0.437-0.969-0.462c0.501-0.081,1.055-0.119,1.49,0.177c0.189,0.128,0.384,0.33,0.403,0.528
				C34.821,27.168,34.794,27.226,34.754,27.266z"/>
			<path fill-rule="evenodd" clip-rule="evenodd" fill="#030303" d="M34.325,26.717c-0.218-0.151-0.584-0.26-0.839-0.258
				c0.265,0.105,0.507,0.267,0.725,0.448c0.04,0.033,0.389,0.361,0.447,0.233C34.705,27.042,34.479,26.823,34.325,26.717z"/>
			<path fill-rule="evenodd" clip-rule="evenodd" fill="#030303" d="M34.229,29.46c0.823-0.532,1.421-1.058,1.691-1.52
				c0.025-0.449,0.048-0.877,0.053-1.009c-0.001,0.039-0.004,0.103-0.009,0.186c-0.003,0.064-0.007,0.14-0.012,0.225
				c-0.276,0.503-0.891,1.061-1.759,1.618c-1.328,0.852-3.256,1.716-5.469,2.391v0h0l-0.001,0v0
				c-2.214,0.674-4.296,1.033-5.873,1.065c-1.189,0.025-2.097-0.138-2.574-0.492c0.094,0.127,0.198,0.261,0.313,0.416
				c0.039,0.052,0.08,0.104,0.121,0.157c0.509,0.252,1.383,0.374,2.389,0.355c1.547-0.028,3.592-0.376,5.766-1.039v0v0h0.001v0
				C31.037,31.15,32.929,30.3,34.229,29.46z"/>
			<path fill-rule="evenodd" clip-rule="evenodd" fill="#030303" d="M20.741,28.672c-0.272,0.068-0.398,0.603-0.199,0.798
				c0.091,0.108,0.382-0.192,0.424-0.259l0,0c0.221-0.356,0.471-1.275,0.133-1.63c-0.143-0.15-0.37-0.006-0.497,0.09
				c-0.263,0.201-0.522,0.541-0.646,0.78l-0.008,0.016c0.098-0.131,0.203-0.255,0.299-0.335c0.117-0.097,0.263-0.191,0.394-0.232
				c0.078-0.024,0.152-0.031,0.218-0.013c0.074,0.021,0.133,0.071,0.168,0.159c0.028,0.07,0.039,0.164,0.028,0.29l-0.037,0.43
				L20.901,28.7C20.842,28.667,20.789,28.661,20.741,28.672z"/>
			<path fill-rule="evenodd" clip-rule="evenodd" fill="#030303" d="M32.738,26.823c-0.391-0.547-1.189-0.192-0.992,0.391
				c0.125,0.367,0.646,0.684,1.016,0.745C32.967,27.622,33.04,27.245,32.738,26.823z"/>
			<path fill-rule="evenodd" clip-rule="evenodd" fill="#030303" d="M21.36,25.598c0.002-0.003,0.004-0.005,0.006-0.008
				c0.005-0.006,0.01-0.013,0.016-0.02C21.375,25.579,21.367,25.588,21.36,25.598z"/>
			<path fill-rule="evenodd" clip-rule="evenodd" fill="#030303" d="M19.728,29.36c-0.015,0.12-0.026,0.244-0.033,0.367
				c0.049-0.294,0.131-0.58,0.294-0.833c0.164-0.256,0.441-0.826,0.838-0.591c0.022,0.013,0.036,0.031,0.052,0.048l0.002-0.03
				c0.008-0.095,0.001-0.164-0.018-0.209c-0.073-0.189-0.332-0.069-0.539,0.126c-0.174,0.145-0.383,0.428-0.518,0.628
				C19.776,29.025,19.749,29.188,19.728,29.36z"/>
			<path fill-rule="evenodd" clip-rule="evenodd" fill="#030303" d="M21.324,25.974c0.002,0.001,0.004,0.001,0.006,0.003
				c0,0,0,0,0,0c0.302,0.122,0.849,0.154,1.56,0.101c0.389-0.029,0.823-0.085,1.293-0.167c0.828-0.144,1.763-0.366,2.741-0.665v0
				l0.001-0.001l0,0.001c0.747-0.228,1.449-0.478,2.08-0.736c0,0,0,0,0,0c0.665-0.271,1.252-0.552,1.731-0.824
				c0.629-0.357,1.068-0.693,1.246-0.965c0.039-0.059,0.064-0.114,0.078-0.167l-0.089-0.026l-0.14-0.041
				c0,0-0.018-0.006-0.046-0.017c0.004,0.001,0.01,0.004,0.013,0.005c-0.193,0.303-0.634,0.649-1.255,1.002
				c-0.908,0.516-2.212,1.061-3.697,1.514v0h0h0l0,0c-1.485,0.453-2.872,0.727-3.913,0.806c-0.726,0.055-1.291,0.01-1.618-0.14
				c-0.054,0.069-0.108,0.141-0.161,0.215C21.197,25.91,21.253,25.945,21.324,25.974z"/>
			<path fill-rule="evenodd" clip-rule="evenodd" fill="#030303" d="M19.688,29.885l0.003-0.09
				C19.69,29.826,19.688,29.856,19.688,29.885z"/>
			<path fill-rule="evenodd" clip-rule="evenodd" fill="#030303" d="M19.764,30.887c0.136,0.327,0.58,0.545,1.235,0.662
				c0.027-0.181,0.476-0.882,0.511-0.929c0.129-0.176,0.306-0.5,0.402-0.652c0.011-0.018,0.02-0.035,0.03-0.052l-0.433,0.135
				l-0.058,0.003l-0.024-0.047l0.025-0.047l0.456-0.189l0.053-0.042l-0.012-0.051l-0.052-0.027l-0.428-0.046
				c0,0-0.024-0.042-0.035-0.068c-0.012-0.025,0.004-0.056,0.004-0.056l0.122-0.023l0.285,0c0,0,0.042-0.005,0.068-0.024
				c0.027-0.019,0.02-0.053,0.02-0.053l-0.013-0.032l-0.052-0.039l-0.183-0.081l-0.202-0.061c0,0-0.021-0.037-0.019-0.063
				c0.001-0.024,0.011-0.062,0.011-0.062l0.047-0.022c0,0,0.023-0.007,0.064-0.002c0.041,0.006,0.143,0.015,0.143,0.015l0.085,0.012
				c0,0,0.073-0.013,0.08-0.019c0.008-0.006,0.025-0.033,0.025-0.033l-0.001-0.042l-0.021-0.047l-0.075-0.063l-0.18-0.105
				c0,0-0.043-0.025-0.05-0.046c-0.006-0.021,0.003-0.073,0.003-0.073l0.035-0.04l0.049-0.016l0.083,0.012l0.091,0.02l0.105,0.021
				c0,0,0.034,0.006,0.052,0.001c0.018-0.006,0.059-0.033,0.059-0.033l0.008-0.049c0,0-0.016-0.053-0.039-0.071
				c-0.024-0.018-0.078-0.048-0.078-0.048c-0.073-0.036-0.145-0.071-0.216-0.107c0,0-0.03-0.028-0.03-0.046
				c0-0.05-0.003-0.088,0.052-0.106c0.023-0.008,0.048-0.012,0.072-0.007c0.042,0.008,0.083,0.028,0.123,0.043
				c0.036,0.014,0.071,0.03,0.107,0.045c0.018,0.007,0.035,0.014,0.053,0.022c0,0,0.033-0.031,0.033-0.05
				c0-0.02-0.041-0.069-0.041-0.069c-0.08-0.109-0.163-0.215-0.238-0.327c-0.035-0.051,0.045-0.155,0.101-0.106l0.386,0.342
				c-0.101,0.189-0.17,0.358-0.245,0.559c-0.091,0.248-0.123,0.46-0.071,0.721l0.07,0.27c0.47-0.979,0.356-1.935-0.211-2.858
				c-0.005,0-0.009,0-0.014-0.001c-0.541-0.036-0.914-0.159-1.058-0.375c-0.106,0.174-0.213,0.354-0.319,0.542
				c-0.264,0.505-0.458,0.973-0.595,1.473c0.246-0.419,0.895-1.348,1.307-0.915c0.075,0.078,0.135,0.199,0.174,0.37
				c0.101,0.445-0.075,1.071-0.305,1.442l0,0c-0.027,0.043-0.056,0.085-0.087,0.123c-0.135,0.163-0.421,0.401-0.601,0.187l0,0
				c-0.027-0.033-0.046-0.069-0.061-0.105c-0.09-0.228-0.064-0.507,0.054-0.72c0.035-0.062,0.077-0.117,0.125-0.16
				c0.051-0.046,0.11-0.079,0.174-0.095c0.053-0.013,0.109-0.015,0.167-0.002l0.003-0.035c-0.291-0.375-0.675,0.14-0.856,0.506
				c-0.145,0.292-0.232,0.63-0.326,0.943c-0.008,0.264,0,0.509,0.023,0.678C19.725,30.699,19.743,30.796,19.764,30.887z
				 M19.832,29.841l0.032-0.069l0.11-0.127l0.078-0.096l0.077-0.088l0.003,0.004c-0.005-0.034-0.011-0.067-0.01-0.096
				c0.003-0.316,0.082-0.573,0.339-0.769c-0.168,0.172-0.245,0.35-0.279,0.586c-0.021,0.146,0.025,0.442,0.121,0.634l0.033,0.062
				c0.039,0.06,0.085,0.104,0.137,0.116c0.065,0.017,0.162-0.002,0.212-0.046c0.051-0.044,0.245-0.298,0.28-0.345
				c0.385-0.501,0.985-2.015,0.314-2.395c-0.357-0.202-0.708,0.151-0.918,0.402l-0.076,0.092c0.167-0.274,0.323-0.527,0.722-0.62
				c0.183-0.042,0.39,0.028,0.497,0.18c0.416,0.585,0.042,1.632-0.323,2.188c-0.074,0.113-0.189,0.335-0.284,0.437
				c-0.095,0.101-0.113,0.128-0.192,0.173c-0.039,0.022-0.067,0.04-0.097,0.051h0l-0.097,0.188c0,0-0.084,0.174-0.106,0.22
				c-0.021,0.046-0.074,0.206-0.074,0.206l-0.027,0.077l-0.046-0.022c0,0-0.019-0.016,0.008-0.114
				c0.028-0.099,0.086-0.25,0.102-0.294c0.015-0.044,0.08-0.183,0.08-0.183l0.014-0.046l-0.022-0.02l-0.032,0l-0.037,0.057
				l-0.088,0.152c0,0-0.077,0.163-0.097,0.202c-0.021,0.039-0.062,0.151-0.062,0.151s-0.01,0.039-0.022,0.041
				c-0.012,0.001-0.036-0.004-0.036-0.004l-0.018-0.005c0,0,0-0.063,0.006-0.091c0.008-0.027,0.084-0.237,0.084-0.237l0.131-0.251
				c0,0,0.027-0.046,0.025-0.064c-0.002-0.017-0.014-0.028-0.014-0.028l-0.023-0.011c0,0-0.028,0.019-0.05,0.053
				c-0.022,0.034-0.087,0.141-0.087,0.141l-0.043,0.099c0,0-0.04,0.07-0.056,0.1c-0.017,0.03-0.035,0.101-0.035,0.101
				s-0.019,0.045-0.027,0.03c-0.009-0.016-0.038-0.043-0.038-0.043l0.021-0.118c0,0,0.036-0.145,0.057-0.183
				s0.102-0.186,0.102-0.186l0.129-0.151l-0.002-0.007c-0.003-0.008-0.007-0.017-0.01-0.025l-0.014-0.035l-0.049,0.018l-0.092,0.11
				l-0.106,0.123l-0.046,0.061l-0.016-0.088l0.056-0.091l0.061-0.092l0.103-0.119l0.034-0.036l0.019-0.028l-0.006-0.034
				l-0.033-0.016l-0.052,0.046l-0.094,0.072l-0.052,0.057l-0.053,0.059l-0.022,0.027l-0.026-0.017L19.832,29.841z"/>
			<path fill-rule="evenodd" clip-rule="evenodd" fill="#030303" d="M28.197,15.305c0.008,0.028,0.013,0.055,0.016,0.081
				C28.21,15.359,28.205,15.332,28.197,15.305z"/>
			<path fill-rule="evenodd" clip-rule="evenodd" fill="#030303" d="M28.195,15.298c-0.003-0.01-0.004-0.02-0.008-0.03
				c-0.01-0.023-0.02-0.043-0.029-0.062C28.173,15.238,28.186,15.268,28.195,15.298z"/>
			<path fill-rule="evenodd" clip-rule="evenodd" fill="#030303" d="M34.556,25.145c-0.804,0.113-1.776-0.154-2.59-0.285
				c-0.633-0.102-1.313-0.082-1.962-0.091c-0.013,0.006-0.025,0.012-0.038,0.018c-0.412,0.187-0.862,0.372-1.343,0.55
				c0,0-0.001,0-0.001,0c0.925,0.072,1.731,0.412,2.115,1.326c0.24,0.57,0.362,1.715,1.196,1.681
				c0.201-0.007,0.403-0.06,0.572-0.176c-0.358-0.002-0.711-0.088-0.991-0.301c-0.883-0.669-0.321-1.816,0.652-2.025
				c0.636-0.138,1.465,0.044,2.113,0.119c0.957,0.111,1.38-0.377,1.018-1.292c0.025,0.038,0.046,0.072,0.067,0.106
				c-0.006-0.01-0.012-0.021-0.019-0.031c-0.032-0.051-0.067-0.106-0.104-0.163C35.175,24.946,34.908,25.095,34.556,25.145z
				 M29.583,25.367c0.233-0.021,0.501-0.193,0.543-0.439C30.37,25.417,30.063,25.652,29.583,25.367z M30.85,25.601
				c-0.112-0.002-0.222-0.004-0.333-0.007c0.303-0.137,0.598-0.368,0.495-0.713C31.503,25,31.373,25.611,30.85,25.601z
				 M31.683,25.543c0.232-0.027,0.496-0.206,0.531-0.453C32.469,25.574,32.168,25.816,31.683,25.543z M33.094,25.709
				c0.145-0.131,0.237-0.378,0.141-0.563C33.641,25.349,33.555,25.658,33.094,25.709z M34.273,25.784
				c0.1-0.139,0.133-0.369,0.016-0.51C34.677,25.373,34.66,25.655,34.273,25.784z"/>
			<path fill-rule="evenodd" clip-rule="evenodd" fill="#030303" d="M28.212,15.481c0.002-0.026,0.003-0.052,0.002-0.078
				C28.216,15.43,28.215,15.457,28.212,15.481z"/>
			<path fill-rule="evenodd" clip-rule="evenodd" fill="#030303" d="M19.491,18.282l0.664,0.383c1.364,0.704,3.268,2.43,3.455,4.033
				c0.014,0.272-0.039,0.741-0.26,0.922c-0.196,0.16-0.608,0.531-0.608,0.531s-0.21,0.193-0.407,0.383
				c-0.351,0.34-0.639,0.646-0.915,0.989c0.288,0.119,0.814,0.149,1.5,0.098c1.03-0.077,2.403-0.35,3.875-0.798v0h0h0h0.001
				c1.471-0.448,2.763-0.988,3.66-1.499c0.589-0.334,1.004-0.648,1.182-0.906c0,0,0,0,0.001,0c-0.185-0.065-0.45-0.156-0.533-0.176
				c-0.131-0.032-0.785-0.171-0.961-0.204s-0.843-0.096-0.843-0.096l-0.559-0.046c0,0-0.187-0.012-0.246-0.041
				s-0.204-0.089-0.204-0.089l-0.066-0.077l-0.022-0.055c0.019-0.126,0.117-0.243,0.213-0.346c1.211-1.296,2.594-1.186,3.773,0.054
				c0.402,0.424,0.582,0.882,0.801,1.48c-0.146-0.04-0.274-0.077-0.402-0.114c0.042,0.245-0.152,0.541-0.531,0.862
				c-0.067,0.056-0.14,0.113-0.219,0.171c-0.204,0.151-0.448,0.307-0.724,0.464c-0.219,0.124-0.459,0.25-0.718,0.377
				c-0.021,0.01-0.045,0.021-0.066,0.031c0.594,0.003,1.191,0.03,1.777,0.127c0.708,0.118,2.921,0.788,3.076-0.242l0.037,0.056
				c-0.162-0.25-0.366-0.534-0.59-0.655c-0.226-1.064-0.539-2.319-1.203-3.21c-0.61-0.818-1.703-1.686-2.839-1.712
				c-0.927-0.021-1.631,0.28-2.59,0.789c-0.13,0.069-0.219,0.033-0.219,0.033c-0.369-0.09-0.288-0.363-0.305-0.663l-0.026-1.124
				l0.02-0.63c0,0,0.073-0.375,0.132-0.61L27.6,16.78c0,0-0.129,0.046-0.318,0.119c-0.425,0.162-0.934,0.302-1.418,0.385
				c-0.098,0.017-0.191,0.03-0.279,0.041c-0.09,0.012-0.181,0.021-0.27,0.028h0c-0.371,0.027-0.749,0.013-1.125-0.002
				c-0.563-0.022-1.126-0.045-1.653,0.08c-0.342,0.08-0.655,0.193-0.955,0.335c-0.299,0.142-0.587,0.313-0.879,0.508
				c-0.248,0.166-0.468,0.434-0.469,0.434l-0.164-0.091c0,0,0.269-0.311,0.535-0.489c0.299-0.2,0.593-0.375,0.902-0.521
				c0.31-0.146,0.634-0.264,0.989-0.347c0.549-0.128,1.125-0.106,1.7-0.084c0.371,0.015,0.743,0.03,1.104,0.003h0.001
				c0.083-0.006,0.17-0.015,0.261-0.027c0.093-0.012,0.183-0.025,0.271-0.041c0.473-0.081,0.969-0.217,1.386-0.376
				c0.184-0.07,0.445-0.161,0.445-0.162l-0.001,0.004c0.136-0.313,0.508-0.738,0.548-1.091c-0.127,0.847-3.007,1.135-3.633,1.129
				c-0.65-0.006-1.498-0.259-2.073,0.011c-0.201,0.157-0.455,0.287-0.668,0.321c-0.133,0.021-0.351,0.044-0.429,0.025
				c-0.079-0.02-0.323-0.021-0.445-0.008c-0.121,0.012-0.705,0.238-0.882,0.394c-0.178,0.156-0.635,0.722-0.635,0.722l-0.023,0.08
				l0.01,0.064L19.491,18.282z M34.506,24.811c0.083-0.175,0.074-0.439-0.084-0.573C34.874,24.271,34.912,24.588,34.506,24.811z
				 M33.62,24.16c0.442,0.049,0.499,0.408,0.089,0.576c-0.082,0.033-0.165,0.061-0.247,0.091
				C33.646,24.639,33.826,24.396,33.62,24.16z M31.605,24.356c0.396-0.171,0.729-0.333,0.658-0.848
				C32.96,24.013,32.273,24.581,31.605,24.356z M32.761,24.594c-0.112,0.001-0.223-0.005-0.333-0.007
				c0.303-0.137,0.626-0.341,0.495-0.713C33.42,24.134,33.32,24.585,32.761,24.594z M32.034,19.789c0.207,0.185,0,0.418-0.24,0.229
				c-0.873-0.694-1.84-0.862-2.826-0.379C30.008,19.009,31.088,19.067,32.034,19.789z M22.24,18.373
				c0.515,0.228,0.994,0.938,1.27,1.299c1.167,1.528,1.038,2.916,1.006,2.739c-0.271-1.48-1.387-2.754-2.555-3.616
				C21.747,18.578,21.997,18.265,22.24,18.373z"/>
			<path fill-rule="evenodd" clip-rule="evenodd" fill="#030303" d="M24.581,16.439c0.623,0.006,3.952-0.398,3.576-1.234
				c-0.017-0.031-0.037-0.057-0.07-0.082c-0.056-0.042-0.157-0.092-0.27-0.115c-0.53-0.11-1.141-0.076-1.671-0.049
				c-0.378,0.019-0.699,0.055-0.987,0.084c-0.289,0.031-0.786,0.129-0.974,0.191c-0.187,0.062-0.44,0.177-0.515,0.229
				c-0.076,0.051-0.378,0.273-0.515,0.421c-0.137,0.148-0.405,0.498-0.405,0.498c-0.058,0.079-0.139,0.156-0.23,0.229
				C23.212,16.247,23.832,16.432,24.581,16.439z M27.399,15.223c0.256,0.051,0.245,0.409-0.004,0.43l-0.063-0.001
				c-0.556-0.111-1.064-0.396-1.76-0.342C26.128,15.191,26.78,15.1,27.399,15.223z"/>
		</g>
	</g>
	<path fill-rule="evenodd" clip-rule="evenodd" fill="#030303" d="M40.521,24.461c0.071,0,0.142,0.004,0.212,0.011
		c-0.586,0.477-0.961,1.202-0.961,2.016s0.376,1.539,0.961,2.015c-0.07,0.007-0.141,0.011-0.212,0.011
		c-1.12,0-2.027-0.908-2.027-2.026C38.494,25.368,39.401,24.461,40.521,24.461L40.521,24.461z"/>
	<polygon fill-rule="evenodd" clip-rule="evenodd" fill="#030303" points="13.878,24.642 14.179,25.37 14.803,24.889 14.699,25.67 
		15.48,25.566 15,26.191 15.729,26.492 15,26.792 15.48,27.417 14.699,27.313 14.803,28.095 14.179,27.614 13.878,28.342 
		13.576,27.614 12.952,28.095 13.056,27.313 12.275,27.417 12.755,26.792 12.027,26.492 12.755,26.191 12.275,25.566 13.056,25.67 
		12.952,24.889 13.576,25.37 13.878,24.642 	"/>
	<g>
		<path fill="none" d="M22.179,34.25c-0.308-0.365-0.618-0.733-0.933-1.103c0,0-0.168-0.191-0.366-0.435
			c0.51,0.227,1.274,0.333,2.223,0.316c1.561-0.028,3.622-0.38,5.811-1.047l0,0l0.001,0v0c2.19-0.667,4.097-1.525,5.408-2.372
			c0.721-0.467,1.262-0.933,1.579-1.369c-0.029,0.503-0.055,0.957-0.055,0.957l-0.449,4.915l-0.332,2.25c0,0-0.009,0.045-0.033,0.12
			c2.113,0.226,4.263,0.29,6.439,0.119c0.051-0.329,0.132-0.647,0.301-0.936c0.284-0.483,0.756-0.801,1.224-1.116
			c0.496-0.333,0.988-0.664,1.173-1.164c0.187-0.501,0.031-1.072-0.127-1.648c-0.148-0.545-0.299-1.093-0.197-1.644
			c0.101-0.551,0.436-1.011,0.77-1.467c0.351-0.482,0.7-0.961,0.704-1.495c0.002-0.536-0.339-1.019-0.684-1.506
			c-0.326-0.461-0.655-0.926-0.749-1.478c-0.093-0.552,0.065-1.099,0.223-1.641c0.165-0.573,0.329-1.142,0.149-1.646
			c-0.179-0.503-0.666-0.84-1.156-1.179c-0.464-0.322-0.932-0.646-1.209-1.133c-0.276-0.488-0.315-1.055-0.354-1.618
			c-0.041-0.595-0.081-1.186-0.421-1.598c-0.342-0.412-0.914-0.562-1.491-0.713c-0.546-0.143-1.096-0.288-1.522-0.651
			c-0.429-0.365-0.659-0.884-0.888-1.4c-0.241-0.546-0.48-1.087-0.941-1.357c-0.461-0.271-1.05-0.215-1.646-0.161
			c-0.562,0.053-1.128,0.105-1.653-0.091c-0.526-0.195-0.92-0.605-1.312-1.012c-0.414-0.431-0.824-0.857-1.349-0.953
			c-0.525-0.097-1.062,0.156-1.602,0.412c-0.51,0.241-1.023,0.483-1.584,0.479c-0.561-0.004-1.072-0.254-1.578-0.502
			c-0.536-0.262-1.068-0.523-1.596-0.433c-0.527,0.089-0.943,0.509-1.364,0.934c-0.397,0.401-0.797,0.806-1.325,0.994
			c-0.527,0.188-1.093,0.126-1.654,0.067c-0.595-0.063-1.183-0.126-1.648,0.137c-0.464,0.264-0.712,0.801-0.96,1.344
			c-0.237,0.513-0.475,1.031-0.907,1.387c-0.431,0.357-0.983,0.494-1.532,0.629c-0.58,0.144-1.154,0.286-1.501,0.692
			c-0.345,0.406-0.394,0.997-0.442,1.593c-0.047,0.562-0.093,1.128-0.378,1.613c-0.283,0.483-0.755,0.801-1.225,1.116
			c-0.495,0.333-0.987,0.663-1.173,1.164c-0.186,0.501-0.03,1.073,0.127,1.648c0.149,0.545,0.299,1.094,0.198,1.645
			c-0.101,0.551-0.436,1.01-0.769,1.466c-0.352,0.483-0.701,0.961-0.705,1.495c-0.004,0.536,0.338,1.019,0.683,1.506
			c0.326,0.461,0.656,0.926,0.749,1.478c0.093,0.552-0.064,1.099-0.221,1.642c-0.166,0.573-0.33,1.141-0.15,1.646
			c0.179,0.503,0.666,0.84,1.156,1.18c0.148,0.103,0.294,0.208,0.436,0.316C14.945,33.71,18.574,33.771,22.179,34.25z"/>
		<path fill="none" d="M34.534,37.261c-0.001,0-0.002,0-0.003,0c-1.085-0.127-2.169-0.295-3.249-0.489
			c-0.022-0.004-0.045-0.008-0.067-0.012c-0.516-0.093-1.029-0.191-1.542-0.293c-0.032-0.006-0.064-0.013-0.096-0.019
			c-0.527-0.105-1.053-0.215-1.578-0.327c-0.668-0.14-1.34-0.277-2.017-0.407c-0.014-0.002-0.029-0.005-0.043-0.008
			c-0.469-0.09-0.939-0.176-1.413-0.258c-0.036-0.006-0.073-0.012-0.109-0.019c-0.455-0.078-0.911-0.151-1.37-0.22
			c-3.615-0.539-7.342-0.737-11.142-0.066c0.082,0.097,0.158,0.199,0.222,0.311c0.277,0.488,0.316,1.055,0.354,1.619
			c0.041,0.595,0.08,1.185,0.421,1.597c0.341,0.413,0.913,0.563,1.49,0.714c0.546,0.144,1.096,0.288,1.523,0.652
			s0.658,0.883,0.887,1.399c0.242,0.546,0.482,1.088,0.942,1.358c0.46,0.271,1.05,0.215,1.645,0.161
			c0.562-0.052,1.128-0.104,1.654,0.091c0.526,0.195,0.919,0.605,1.311,1.012c0.414,0.43,0.825,0.857,1.351,0.953
			c0.525,0.097,1.061-0.156,1.601-0.412c0.51-0.241,1.023-0.484,1.583-0.48c0.562,0.005,1.072,0.255,1.578,0.503
			c0.537,0.262,1.068,0.522,1.596,0.434s0.944-0.51,1.364-0.934c0.397-0.402,0.797-0.806,1.325-0.994
			c0.527-0.187,1.093-0.127,1.655-0.067c0.594,0.064,1.182,0.127,1.647-0.137c0.465-0.264,0.712-0.801,0.961-1.344
			c0.236-0.513,0.475-1.031,0.906-1.387c0.431-0.357,0.984-0.494,1.532-0.629c0.58-0.144,1.155-0.285,1.5-0.692
			c0.328-0.384,0.388-0.937,0.435-1.5C39.106,37.61,36.816,37.528,34.534,37.261z"/>
		<path fill="#030303" d="M41.473,36.599c-2.176,0.171-4.326,0.107-6.439-0.119c0.024-0.074,0.033-0.12,0.033-0.12l0.332-2.25
			l0.449-4.915c0,0,0.026-0.453,0.055-0.957c-0.317,0.436-0.858,0.902-1.579,1.369c-1.312,0.847-3.218,1.705-5.408,2.372v0l-0.001,0
			l0,0c-2.189,0.667-4.25,1.019-5.811,1.047c-0.948,0.017-1.712-0.089-2.223-0.316c0.198,0.244,0.366,0.435,0.366,0.435
			c0.315,0.37,0.625,0.738,0.933,1.103c-3.605-0.479-7.234-0.54-10.825,0.387c0.201,0.153,0.391,0.316,0.55,0.505
			c3.8-0.671,7.527-0.472,11.142,0.066c0.458,0.068,0.915,0.142,1.37,0.22c0.036,0.006,0.073,0.012,0.109,0.019
			c0.473,0.082,0.943,0.168,1.413,0.258c0.014,0.002,0.029,0.005,0.043,0.008c0.677,0.13,1.349,0.267,2.017,0.407
			c0.525,0.112,1.051,0.222,1.578,0.327c0.032,0.006,0.064,0.013,0.096,0.019c0.513,0.103,1.027,0.201,1.542,0.293
			c0.022,0.004,0.044,0.008,0.067,0.012c1.08,0.194,2.164,0.361,3.249,0.489c0.001,0,0.002,0,0.003,0
			c2.282,0.267,4.572,0.349,6.854,0.108c0.003-0.031,0.006-0.062,0.009-0.093C41.415,37.049,41.438,36.822,41.473,36.599z"/>
		<path fill="#030303" d="M44.935,28.857c0.388-0.534,0.775-1.064,0.78-1.725s-0.375-1.196-0.756-1.736
			c-0.3-0.423-0.602-0.85-0.681-1.315c-0.078-0.465,0.067-0.967,0.211-1.466c0.183-0.635,0.366-1.266,0.144-1.888
			c-0.222-0.624-0.761-0.997-1.305-1.374c-0.427-0.296-0.857-0.594-1.089-1.002c-0.232-0.409-0.268-0.931-0.303-1.45
			c-0.045-0.659-0.09-1.313-0.512-1.823c-0.421-0.509-1.056-0.676-1.696-0.844c-0.502-0.132-1.009-0.265-1.367-0.569
			c-0.357-0.304-0.569-0.783-0.78-1.258c-0.268-0.604-0.533-1.204-1.104-1.539c-0.57-0.334-1.223-0.274-1.88-0.213
			c-0.518,0.048-1.04,0.097-1.48-0.068c-0.44-0.163-0.804-0.541-1.165-0.916c-0.458-0.477-0.912-0.948-1.563-1.068
			c-0.651-0.119-1.244,0.16-1.841,0.442c-0.47,0.223-0.944,0.447-1.414,0.443c-0.471-0.003-0.941-0.234-1.407-0.462
			c-0.594-0.291-1.182-0.58-1.833-0.47c-0.653,0.111-1.114,0.577-1.579,1.046c-0.365,0.369-0.733,0.741-1.176,0.899
			c-0.444,0.158-0.964,0.103-1.481,0.047c-0.657-0.071-1.308-0.14-1.884,0.187c-0.575,0.326-0.849,0.922-1.125,1.523
			c-0.217,0.472-0.435,0.946-0.798,1.247c-0.364,0.3-0.871,0.425-1.375,0.55c-0.642,0.159-1.278,0.316-1.708,0.82
			c-0.429,0.504-0.483,1.158-0.537,1.815c-0.043,0.519-0.086,1.041-0.323,1.446c-0.238,0.405-0.672,0.697-1.104,0.987
			c-0.549,0.369-1.093,0.734-1.324,1.354s-0.057,1.252,0.117,1.889c0.137,0.502,0.275,1.007,0.19,1.47
			c-0.085,0.463-0.394,0.886-0.699,1.306c-0.39,0.534-0.775,1.063-0.781,1.726c-0.004,0.661,0.375,1.196,0.756,1.735
			c0.3,0.423,0.602,0.85,0.681,1.315c0.078,0.465-0.066,0.967-0.21,1.466c-0.184,0.635-0.366,1.265-0.144,1.887
			c0.222,0.624,0.761,0.997,1.305,1.374c0.059,0.041,0.116,0.082,0.174,0.123c0.206,0.145,0.401,0.296,0.573,0.461
			c0.133,0.129,0.255,0.264,0.342,0.418c0.232,0.408,0.268,0.931,0.303,1.449c0.045,0.659,0.09,1.314,0.512,1.824
			c0.421,0.509,1.056,0.675,1.695,0.844c0.502,0.132,1.01,0.265,1.367,0.569c0.357,0.304,0.569,0.783,0.781,1.258
			c0.267,0.605,0.533,1.205,1.104,1.539c0.571,0.334,1.223,0.274,1.88,0.213c0.519-0.048,1.04-0.096,1.481,0.068
			c0.44,0.164,0.803,0.541,1.164,0.916c0.458,0.476,0.912,0.949,1.563,1.068c0.651,0.12,1.244-0.16,1.841-0.442
			c0.47-0.222,0.944-0.446,1.415-0.443c0.47,0.003,0.939,0.234,1.407,0.462c0.594,0.291,1.182,0.58,1.834,0.47
			s1.114-0.576,1.579-1.046c0.365-0.369,0.733-0.741,1.177-0.899c0.443-0.158,0.963-0.103,1.479-0.047
			c0.658,0.071,1.31,0.141,1.885-0.187c0.574-0.326,0.849-0.922,1.125-1.522c0.217-0.472,0.436-0.947,0.799-1.247
			c0.362-0.3,0.87-0.426,1.375-0.551c0.642-0.159,1.277-0.316,1.707-0.82c0.426-0.501,0.482-1.148,0.536-1.8
			c0-0.005,0.001-0.01,0.001-0.015c0.021-0.253,0.042-0.506,0.086-0.746c0.045-0.253,0.116-0.492,0.237-0.7
			c0.238-0.405,0.672-0.697,1.104-0.987c0.548-0.368,1.092-0.734,1.323-1.354c0.231-0.621,0.058-1.252-0.117-1.89
			c-0.137-0.501-0.274-1.005-0.19-1.469C44.32,29.7,44.629,29.277,44.935,28.857z M44.044,31.736
			c0.158,0.576,0.314,1.147,0.127,1.648c-0.186,0.5-0.678,0.831-1.173,1.164c-0.468,0.315-0.94,0.632-1.224,1.116
			c-0.169,0.289-0.25,0.607-0.301,0.936c-0.035,0.223-0.058,0.45-0.076,0.677c-0.002,0.031-0.006,0.062-0.009,0.093
			c-0.047,0.563-0.107,1.116-0.435,1.5c-0.346,0.407-0.92,0.548-1.5,0.692c-0.548,0.136-1.101,0.272-1.532,0.629
			c-0.431,0.356-0.669,0.874-0.906,1.387c-0.25,0.542-0.497,1.08-0.961,1.344c-0.465,0.264-1.053,0.201-1.647,0.137
			c-0.562-0.06-1.127-0.12-1.655,0.067c-0.528,0.188-0.928,0.592-1.325,0.994c-0.419,0.424-0.836,0.845-1.364,0.934
			s-1.059-0.171-1.596-0.434c-0.506-0.249-1.017-0.499-1.578-0.503c-0.561-0.004-1.073,0.239-1.583,0.48
			c-0.541,0.255-1.076,0.508-1.601,0.412c-0.526-0.096-0.937-0.523-1.351-0.953c-0.391-0.407-0.785-0.817-1.311-1.012
			c-0.525-0.195-1.092-0.143-1.654-0.091c-0.595,0.055-1.185,0.11-1.645-0.161c-0.46-0.27-0.7-0.812-0.942-1.358
			c-0.229-0.516-0.459-1.035-0.887-1.399s-0.977-0.508-1.523-0.652c-0.577-0.151-1.149-0.301-1.49-0.714
			c-0.341-0.412-0.38-1.001-0.421-1.597c-0.039-0.564-0.078-1.131-0.354-1.619c-0.064-0.112-0.14-0.214-0.222-0.311
			c-0.16-0.189-0.349-0.353-0.55-0.505c-0.142-0.108-0.288-0.213-0.436-0.316c-0.491-0.34-0.977-0.677-1.156-1.18
			c-0.18-0.505-0.016-1.073,0.15-1.646c0.157-0.543,0.314-1.09,0.221-1.642c-0.093-0.552-0.422-1.017-0.749-1.478
			c-0.345-0.487-0.687-0.97-0.683-1.506c0.004-0.534,0.353-1.012,0.705-1.495c0.333-0.456,0.668-0.916,0.769-1.466
			c0.101-0.551-0.049-1.1-0.198-1.645c-0.158-0.575-0.313-1.147-0.127-1.648c0.186-0.5,0.678-0.831,1.173-1.164
			c0.469-0.314,0.941-0.632,1.225-1.116c0.285-0.485,0.331-1.051,0.378-1.613c0.048-0.596,0.098-1.187,0.442-1.593
			c0.347-0.406,0.921-0.548,1.501-0.692c0.549-0.136,1.101-0.272,1.532-0.629c0.432-0.356,0.67-0.874,0.907-1.387
			c0.249-0.542,0.496-1.08,0.96-1.344c0.465-0.264,1.053-0.201,1.648-0.137c0.561,0.06,1.126,0.121,1.654-0.067
			c0.528-0.188,0.928-0.593,1.325-0.994c0.42-0.425,0.837-0.845,1.364-0.934c0.527-0.09,1.06,0.171,1.596,0.433
			c0.506,0.248,1.017,0.498,1.578,0.502c0.561,0.004,1.074-0.239,1.584-0.479c0.54-0.255,1.076-0.508,1.602-0.412
			c0.524,0.096,0.935,0.522,1.349,0.953c0.392,0.407,0.786,0.816,1.312,1.012c0.524,0.196,1.091,0.144,1.653,0.091
			c0.596-0.054,1.185-0.109,1.646,0.161c0.46,0.27,0.7,0.811,0.941,1.357c0.229,0.516,0.459,1.035,0.888,1.4
			c0.427,0.363,0.976,0.508,1.522,0.651c0.577,0.151,1.149,0.302,1.491,0.713c0.34,0.412,0.38,1.003,0.421,1.598
			c0.038,0.563,0.077,1.13,0.354,1.618c0.277,0.487,0.745,0.812,1.209,1.133c0.49,0.339,0.978,0.676,1.156,1.179
			c0.179,0.504,0.015,1.073-0.149,1.646c-0.157,0.542-0.315,1.089-0.223,1.641c0.094,0.552,0.423,1.017,0.749,1.478
			c0.345,0.487,0.687,0.97,0.684,1.506c-0.004,0.534-0.354,1.013-0.704,1.495c-0.333,0.456-0.669,0.916-0.77,1.467
			C43.746,30.643,43.896,31.191,44.044,31.736z"/>
	</g>
	<path fill="#030303" d="M27.011,8.286c0.661,0,1.194,0.383,1.731,0.769c0.422,0.304,0.846,0.608,1.311,0.69s0.968-0.06,1.468-0.2
		c0.636-0.179,1.268-0.357,1.89-0.13c0.623,0.227,0.993,0.769,1.365,1.314c0.293,0.429,0.588,0.862,0.996,1.098
		c0.406,0.235,0.929,0.274,1.447,0.313c0.66,0.05,1.313,0.099,1.82,0.525c0.507,0.425,0.67,1.061,0.833,1.701
		c0.129,0.504,0.258,1.012,0.56,1.372s0.78,0.576,1.254,0.79c0.602,0.272,1.2,0.542,1.531,1.115v0
		c0.331,0.574,0.266,1.226,0.2,1.883c-0.051,0.518-0.104,1.039,0.058,1.482c0.161,0.441,0.535,0.807,0.907,1.171
		c0.474,0.462,0.943,0.92,1.058,1.571c0.115,0.651-0.169,1.243-0.457,1.839C44.758,26.058,44.53,26.53,44.53,27
		c0,0.469,0.228,0.942,0.453,1.41c0.287,0.597,0.572,1.188,0.457,1.838c-0.115,0.652-0.584,1.111-1.058,1.572
		c-0.372,0.363-0.746,0.729-0.907,1.171c-0.161,0.442-0.109,0.963-0.058,1.481c0.065,0.658,0.131,1.31-0.2,1.883
		c-0.332,0.574-0.929,0.844-1.531,1.116c-0.474,0.214-0.952,0.429-1.254,0.79s-0.431,0.869-0.56,1.373
		c-0.163,0.64-0.326,1.276-0.833,1.701c-0.507,0.426-1.161,0.475-1.82,0.525c-0.519,0.039-1.04,0.078-1.447,0.313
		c-0.408,0.235-0.703,0.668-0.996,1.098c-0.372,0.545-0.742,1.087-1.365,1.314c-0.622,0.226-1.253,0.049-1.89-0.129
		c-0.5-0.141-1.004-0.283-1.468-0.201c-0.464,0.083-0.888,0.388-1.311,0.69c-0.538,0.386-1.071,0.769-1.731,0.769
		c-0.661,0-1.194-0.383-1.731-0.769c-0.422-0.303-0.847-0.608-1.312-0.69c-0.464-0.082-0.968,0.06-1.468,0.201
		c-0.636,0.178-1.267,0.355-1.889,0.129c-0.623-0.227-0.993-0.769-1.365-1.314c-0.293-0.43-0.588-0.863-0.996-1.098
		c-0.407-0.235-0.929-0.274-1.448-0.313c-0.659-0.05-1.313-0.099-1.821-0.525c-0.507-0.425-0.669-1.062-0.833-1.701
		c-0.128-0.504-0.257-1.012-0.56-1.373c-0.302-0.36-0.779-0.576-1.253-0.79c-0.603-0.272-1.201-0.542-1.532-1.115v0
		c-0.33-0.573-0.266-1.225-0.2-1.883c0.052-0.518,0.104-1.039-0.058-1.481c-0.16-0.442-0.535-0.809-0.907-1.171
		c-0.474-0.461-0.943-0.92-1.058-1.572c-0.114-0.65,0.17-1.242,0.457-1.838C9.264,27.942,9.491,27.47,9.491,27
		c0-0.47-0.227-0.942-0.453-1.411c-0.287-0.596-0.571-1.188-0.457-1.839c0.115-0.651,0.584-1.109,1.058-1.571
		c0.372-0.364,0.747-0.729,0.907-1.171c0.162-0.443,0.11-0.964,0.058-1.482c-0.066-0.657-0.13-1.309,0.2-1.883v0
		c0.331-0.573,0.929-0.843,1.532-1.115c0.474-0.214,0.951-0.43,1.253-0.79c0.303-0.36,0.432-0.868,0.56-1.372
		c0.164-0.64,0.326-1.276,0.833-1.701c0.508-0.426,1.162-0.475,1.821-0.525c0.519-0.039,1.041-0.078,1.448-0.313
		c0.408-0.235,0.703-0.668,0.996-1.098c0.372-0.546,0.742-1.088,1.365-1.314c0.622-0.227,1.253-0.049,1.889,0.13
		c0.5,0.141,1.004,0.282,1.468,0.2c0.465-0.082,0.889-0.387,1.312-0.69C25.816,8.669,26.35,8.286,27.011,8.286L27.011,8.286z
		 M28.511,9.376c-0.484-0.348-0.965-0.693-1.5-0.693c-0.536,0-1.017,0.345-1.501,0.693c-0.459,0.33-0.922,0.663-1.474,0.76
		c-0.551,0.097-1.099-0.057-1.643-0.209c-0.575-0.162-1.146-0.323-1.648-0.14s-0.835,0.672-1.172,1.166
		c-0.318,0.466-0.639,0.937-1.125,1.216c-0.486,0.281-1.053,0.324-1.617,0.366c-0.595,0.044-1.186,0.089-1.596,0.433
		c-0.408,0.343-0.555,0.917-0.702,1.496c-0.14,0.548-0.28,1.099-0.642,1.529c-0.359,0.43-0.878,0.664-1.394,0.896
		c-0.544,0.246-1.084,0.49-1.352,0.953v0c-0.267,0.463-0.208,1.053-0.149,1.647c0.056,0.563,0.113,1.128-0.079,1.655
		c-0.192,0.527-0.6,0.925-1.003,1.319c-0.427,0.417-0.851,0.831-0.944,1.356c-0.093,0.528,0.165,1.062,0.423,1.599
		C9.639,25.926,9.885,26.438,9.885,27c0,0.561-0.247,1.074-0.491,1.583c-0.258,0.537-0.516,1.071-0.423,1.598
		c0.093,0.527,0.517,0.94,0.944,1.357c0.404,0.394,0.812,0.792,1.003,1.319s0.135,1.093,0.079,1.655
		c-0.059,0.594-0.118,1.184,0.149,1.647l0,0c0.267,0.463,0.807,0.707,1.352,0.953c0.515,0.232,1.034,0.466,1.394,0.896
		c0.362,0.43,0.502,0.981,0.642,1.528c0.147,0.579,0.294,1.153,0.702,1.496c0.41,0.344,1.001,0.388,1.596,0.433
		c0.563,0.042,1.13,0.085,1.617,0.366c0.485,0.28,0.807,0.75,1.125,1.217c0.337,0.493,0.67,0.983,1.172,1.166
		s1.073,0.022,1.648-0.14c0.544-0.152,1.091-0.306,1.643-0.209c0.552,0.098,1.015,0.43,1.474,0.76
		c0.484,0.348,0.965,0.693,1.501,0.693c0.536,0,1.016-0.345,1.5-0.693c0.459-0.33,0.922-0.662,1.474-0.76
		c0.551-0.097,1.099,0.058,1.643,0.209c0.576,0.162,1.146,0.322,1.648,0.14s0.836-0.672,1.173-1.166
		c0.318-0.467,0.639-0.937,1.125-1.217c0.486-0.281,1.053-0.323,1.617-0.366c0.595-0.045,1.186-0.089,1.596-0.433
		c0.409-0.343,0.555-0.917,0.702-1.496c0.14-0.547,0.281-1.098,0.64-1.528c0.362-0.43,0.88-0.664,1.396-0.896
		c0.545-0.246,1.084-0.491,1.352-0.952c0.267-0.462,0.208-1.053,0.149-1.647c-0.057-0.562-0.113-1.128,0.079-1.655
		c0.191-0.527,0.599-0.925,1.003-1.319c0.427-0.417,0.851-0.83,0.944-1.357c0.092-0.527-0.165-1.061-0.424-1.598
		c-0.245-0.509-0.491-1.022-0.491-1.583c0-0.562,0.247-1.074,0.491-1.583c0.259-0.538,0.516-1.071,0.424-1.599
		c-0.094-0.526-0.517-0.939-0.944-1.356c-0.404-0.395-0.812-0.792-1.003-1.319c-0.192-0.526-0.136-1.092-0.079-1.655
		c0.059-0.594,0.118-1.184-0.149-1.647l0,0c-0.268-0.462-0.807-0.707-1.352-0.953c-0.515-0.233-1.034-0.467-1.396-0.896
		c-0.359-0.43-0.5-0.981-0.64-1.529c-0.147-0.578-0.293-1.152-0.702-1.496c-0.41-0.343-1-0.388-1.596-0.433
		c-0.563-0.042-1.131-0.085-1.617-0.366c-0.486-0.28-0.806-0.75-1.125-1.216c-0.337-0.494-0.67-0.983-1.173-1.166
		s-1.073-0.022-1.648,0.14c-0.543,0.152-1.091,0.307-1.643,0.209S28.971,9.706,28.511,9.376L28.511,9.376z"/>
	<g>
		<path d="M208.823,37.593c-0.132,0-0.199-0.066-0.199-0.199v-3.106h-3.252v3.106c0,0.132-0.066,0.199-0.199,0.199h-0.523
			c-0.132,0-0.199-0.066-0.199-0.199v-6.651c0-0.132,0.066-0.199,0.199-0.199h0.523c0.132,0,0.199,0.066,0.199,0.199v2.75h3.252
			v-2.75c0-0.132,0.066-0.199,0.199-0.199h0.523c0.132,0,0.199,0.066,0.199,0.199v6.651c0,0.132-0.066,0.199-0.199,0.199H208.823z"
			/>
		<path d="M214.198,37.708c-0.467,0-0.896-0.085-1.286-0.256c-0.391-0.171-0.725-0.413-1.004-0.727
			c-0.279-0.313-0.495-0.69-0.648-1.129c-0.153-0.439-0.23-0.927-0.23-1.464c0-0.558,0.082-1.065,0.246-1.521
			c0.164-0.457,0.391-0.847,0.68-1.171c0.29-0.324,0.633-0.574,1.03-0.748c0.397-0.174,0.833-0.261,1.307-0.261
			c0.481,0,0.918,0.087,1.313,0.261c0.394,0.174,0.728,0.42,1.004,0.737c0.275,0.317,0.488,0.694,0.638,1.129
			c0.15,0.436,0.225,0.915,0.225,1.438c0,0.606-0.086,1.14-0.256,1.6c-0.171,0.46-0.404,0.847-0.701,1.161
			c-0.296,0.313-0.643,0.551-1.041,0.711s-0.819,0.241-1.265,0.241H214.198z M214.25,36.966c0.362,0,0.683-0.077,0.962-0.23
			c0.278-0.153,0.514-0.364,0.706-0.633c0.192-0.268,0.338-0.58,0.439-0.936c0.101-0.355,0.151-0.732,0.151-1.129
			c0-0.348-0.045-0.693-0.136-1.035c-0.091-0.341-0.23-0.648-0.418-0.92c-0.188-0.272-0.423-0.492-0.706-0.659
			c-0.283-0.167-0.612-0.251-0.988-0.251s-0.708,0.082-0.994,0.246c-0.286,0.164-0.523,0.381-0.711,0.653
			c-0.188,0.272-0.33,0.584-0.424,0.936c-0.094,0.352-0.141,0.72-0.141,1.103c0,0.37,0.051,0.727,0.152,1.072
			c0.101,0.345,0.248,0.65,0.439,0.915c0.192,0.265,0.427,0.476,0.706,0.633s0.596,0.235,0.952,0.235H214.25z"/>
		<path d="M217.691,31.309c-0.133,0-0.199-0.065-0.199-0.196v-0.371c0-0.131,0.066-0.196,0.199-0.196h4.883
			c0.104,0,0.157,0.055,0.157,0.165c0,0.007,0,0.021,0,0.042c0,0.014-0.003,0.035-0.01,0.062l-0.052,0.31
			c-0.014,0.055-0.037,0.1-0.068,0.134c-0.032,0.035-0.075,0.052-0.131,0.052h-1.914v6.085c0,0.133-0.066,0.199-0.199,0.199h-0.523
			c-0.132,0-0.199-0.066-0.199-0.199v-6.085H217.691z"/>
		<path d="M224.718,34.289v2.542h2.698c0.132,0,0.199,0.066,0.199,0.199v0.366c0,0.132-0.066,0.199-0.199,0.199h-3.419
			c-0.132,0-0.199-0.066-0.199-0.199v-6.651c0-0.132,0.066-0.199,0.199-0.199h3.482c0.056,0,0.096,0.018,0.12,0.053
			c0.024,0.035,0.037,0.066,0.037,0.094c0,0.014-0.002,0.028-0.005,0.042s-0.005,0.028-0.005,0.042v0.063l-0.032,0.272
			c-0.007,0.056-0.028,0.103-0.063,0.141c-0.035,0.039-0.08,0.058-0.136,0.058h-2.677v2.217h2.437c0.056,0,0.096,0.018,0.12,0.053
			s0.037,0.067,0.037,0.095c0,0.014-0.002,0.028-0.005,0.042s-0.005,0.028-0.005,0.042v0.063l-0.031,0.276
			c-0.007,0.056-0.028,0.103-0.063,0.138c-0.035,0.035-0.08,0.053-0.136,0.053H224.718z"/>
		<path d="M229.319,37.593c-0.132,0-0.199-0.066-0.199-0.199v-6.651c0-0.132,0.066-0.199,0.199-0.199h0.523
			c0.132,0,0.199,0.066,0.199,0.199v6.086h2.907c0.104,0,0.157,0.052,0.157,0.157c0,0.014-0.002,0.03-0.005,0.047
			c-0.003,0.018-0.005,0.033-0.005,0.047v0.052l-0.031,0.272c-0.007,0.056-0.028,0.101-0.063,0.136
			c-0.035,0.035-0.081,0.052-0.136,0.052H229.319z"/>
		<path d="M240.456,30.89c0,0.021-0.007,0.052-0.021,0.094l-0.157,0.418c-0.014,0.035-0.035,0.052-0.063,0.052
			c-0.021,0-0.049-0.009-0.083-0.026c-0.035-0.017-0.066-0.033-0.094-0.047c-0.125-0.063-0.284-0.122-0.476-0.178
			c-0.192-0.056-0.413-0.084-0.664-0.084c-0.293,0-0.533,0.093-0.722,0.277c-0.188,0.185-0.282,0.413-0.282,0.685
			c0,0.125,0.01,0.24,0.031,0.345c0.021,0.105,0.063,0.216,0.125,0.335c0.063,0.119,0.146,0.249,0.251,0.392
			s0.241,0.309,0.408,0.497l1.893,2.123c0.146-0.223,0.279-0.492,0.397-0.805c0.118-0.314,0.206-0.666,0.261-1.057
			c0.007-0.111,0.073-0.167,0.199-0.167h0.512c0.084,0,0.125,0.031,0.125,0.094c0,0.014-0.001,0.042-0.005,0.083
			c-0.004,0.042-0.009,0.073-0.016,0.094c-0.098,0.481-0.225,0.918-0.382,1.312c-0.157,0.394-0.354,0.73-0.591,1.009l1.119,1.119
			c0.014,0.014,0.03,0.031,0.047,0.052c0.017,0.021,0.026,0.038,0.026,0.052c0,0.021-0.028,0.031-0.083,0.031h-0.878
			c-0.077,0-0.134-0.012-0.172-0.037c-0.039-0.024-0.065-0.043-0.079-0.058l-0.544-0.606c-0.592,0.544-1.286,0.816-2.081,0.816
			c-0.341,0-0.647-0.054-0.917-0.162c-0.271-0.108-0.498-0.253-0.684-0.434s-0.328-0.391-0.426-0.627
			c-0.099-0.237-0.147-0.488-0.147-0.753c0-0.481,0.129-0.889,0.387-1.224c0.258-0.334,0.589-0.613,0.994-0.836v-0.031
			c-0.182-0.23-0.331-0.471-0.45-0.722s-0.178-0.502-0.178-0.753c0-0.216,0.044-0.427,0.132-0.633
			c0.088-0.206,0.215-0.39,0.381-0.554c0.166-0.164,0.366-0.296,0.6-0.397c0.234-0.101,0.498-0.151,0.791-0.151
			c0.292,0,0.55,0.028,0.773,0.083c0.223,0.056,0.415,0.115,0.575,0.178c0.035,0.014,0.072,0.037,0.11,0.068
			C240.437,30.791,240.456,30.834,240.456,30.89z M238.083,34.163c-0.098,0.063-0.201,0.138-0.309,0.225
			c-0.108,0.087-0.206,0.188-0.293,0.303c-0.087,0.115-0.161,0.248-0.22,0.397s-0.089,0.319-0.089,0.507
			c0,0.203,0.035,0.391,0.104,0.565c0.07,0.174,0.167,0.324,0.293,0.45s0.277,0.225,0.455,0.298s0.371,0.11,0.58,0.11h0.011
			c0.307,0,0.582-0.061,0.826-0.183c0.244-0.122,0.45-0.273,0.617-0.455L238.083,34.163z"/>
		<path d="M248.926,31.434c-0.125-0.056-0.282-0.108-0.47-0.157c-0.188-0.049-0.405-0.073-0.648-0.073
			c-0.244,0-0.45,0.033-0.617,0.099c-0.167,0.066-0.303,0.149-0.408,0.25s-0.181,0.214-0.23,0.339
			c-0.049,0.125-0.073,0.247-0.073,0.365c0,0.16,0.028,0.303,0.083,0.428s0.141,0.24,0.256,0.344
			c0.115,0.104,0.26,0.204,0.434,0.298s0.383,0.186,0.627,0.276c0.3,0.119,0.561,0.244,0.784,0.376
			c0.223,0.132,0.41,0.28,0.56,0.444s0.261,0.348,0.334,0.553c0.073,0.206,0.11,0.437,0.11,0.694c0,0.271-0.051,0.529-0.152,0.773
			c-0.101,0.243-0.252,0.458-0.455,0.642c-0.202,0.185-0.457,0.333-0.764,0.444c-0.307,0.111-0.669,0.167-1.087,0.167
			c-0.286,0-0.572-0.033-0.857-0.099c-0.286-0.066-0.53-0.148-0.732-0.246c-0.035-0.014-0.072-0.038-0.11-0.073
			c-0.039-0.035-0.058-0.08-0.058-0.136c0-0.021,0.007-0.052,0.021-0.094l0.146-0.47c0.014-0.035,0.035-0.052,0.063-0.052
			c0.021,0,0.047,0.009,0.079,0.026c0.031,0.018,0.061,0.033,0.089,0.047c0.202,0.091,0.423,0.169,0.664,0.235
			c0.241,0.066,0.493,0.1,0.758,0.1c0.467,0,0.83-0.11,1.087-0.33s0.387-0.507,0.387-0.863c0-0.334-0.101-0.608-0.303-0.821
			c-0.202-0.212-0.543-0.406-1.025-0.58c-0.579-0.202-1.033-0.46-1.364-0.774c-0.332-0.314-0.497-0.718-0.497-1.213
			c0-0.271,0.054-0.524,0.162-0.758c0.108-0.233,0.262-0.436,0.46-0.606s0.439-0.305,0.721-0.403
			c0.283-0.098,0.594-0.146,0.936-0.146c0.293,0,0.551,0.025,0.774,0.074c0.223,0.05,0.415,0.106,0.575,0.17
			c0.035,0.014,0.071,0.037,0.11,0.069c0.038,0.032,0.058,0.076,0.058,0.132c0,0.021-0.007,0.053-0.021,0.096l-0.167,0.474
			c-0.014,0.035-0.035,0.052-0.063,0.052c-0.021,0-0.049-0.009-0.084-0.026C248.985,31.464,248.954,31.448,248.926,31.434z"/>
		<path d="M252.157,37.395c0,0.132-0.067,0.199-0.201,0.199h-0.519c-0.134,0-0.201-0.066-0.201-0.199v-6.441
			c0-0.098,0.028-0.167,0.083-0.209c0.056-0.042,0.111-0.069,0.167-0.083c0.209-0.035,0.432-0.071,0.669-0.11
			c0.237-0.038,0.534-0.058,0.889-0.058c0.362,0,0.699,0.041,1.009,0.121c0.311,0.08,0.579,0.204,0.805,0.371
			s0.404,0.38,0.534,0.638c0.129,0.258,0.193,0.565,0.193,0.92c0,0.391-0.07,0.727-0.208,1.009c-0.139,0.282-0.329,0.516-0.568,0.7
			c-0.24,0.185-0.523,0.321-0.85,0.408c-0.327,0.087-0.678,0.13-1.053,0.13h-0.751V37.395z M252.157,34.09h0.771
			c0.548,0,0.976-0.129,1.281-0.387c0.305-0.258,0.458-0.627,0.458-1.108c0-0.467-0.141-0.814-0.421-1.041
			c-0.281-0.227-0.672-0.34-1.172-0.34c-0.201,0-0.385,0.007-0.552,0.021c-0.167,0.014-0.288,0.031-0.365,0.052V34.09z"/>
		<path d="M261.694,37.499c0,0.063-0.052,0.094-0.157,0.094h-0.596c-0.07,0-0.122-0.017-0.157-0.052
			c-0.035-0.035-0.059-0.07-0.073-0.104l-0.7-2.06h-2.5l-0.68,2.06c-0.014,0.035-0.039,0.07-0.073,0.104
			c-0.035,0.035-0.087,0.052-0.157,0.052h-0.565c-0.104,0-0.157-0.031-0.157-0.094c0-0.028,0.003-0.048,0.011-0.063l2.269-6.682
			c0.049-0.14,0.129-0.209,0.24-0.209h0.785c0.063,0,0.11,0.021,0.141,0.063s0.058,0.091,0.078,0.146l2.28,6.682
			C261.69,37.458,261.694,37.478,261.694,37.499z M258.735,31.35l-0.209,0.795l-0.826,2.52h2.123l-0.847-2.53l-0.209-0.785H258.735z
			"/>
	</g>
</g>
</svg>
