<?xml version="1.0" encoding="utf-8"?>
<!-- Generator: Adobe Illustrator 18.1.0, SVG Export Plug-In . SVG Version: 6.00 Build 0)  -->
<!DOCTYPE svg PUBLIC "-//W3C//DTD SVG 1.1//EN" "http://www.w3.org/Graphics/SVG/1.1/DTD/svg11.dtd">
<svg version="1.1" id="Слой_1" xmlns="http://www.w3.org/2000/svg" xmlns:xlink="http://www.w3.org/1999/xlink" x="0px" y="0px"
	 viewBox="0 173.8 591.6 483.5" enable-background="new 0 173.8 591.6 483.5" xml:space="preserve">
<g>
	<g>
		<path fill="#FFFFFF" d="M387.3,184.8v85.6v11h11h182.5v183.2H398.3h-11v11v85.9H11V184.8H387.3 M398.3,173.8H0v398.3h398.3v-96.9
			h193.2V270.4H398.3V173.8L398.3,173.8z"/>
	</g>
	<g enable-background="new    ">
		<path fill="#FFFFFF" d="M76,404.4H65.2v-56.7H45.8v-9.2h49.6v9.2H76V404.4z"/>
		<path fill="#FFFFFF" d="M142.8,404.4h-37.3v-65.9h37.3v9.1h-26.5v17.9h24.8v9h-24.8v20.7h26.5V404.4z"/>
		<path fill="#FFFFFF" d="M205.6,404.4h-12.4l-16.5-27l-16.6,27h-11.5l21.9-34.2L150,338.5h12l15.2,24.9l15.2-24.9H204l-20.6,31.9
			L205.6,404.4z"/>
		<path fill="#FFFFFF" d="M214.5,338.5H234c9.1,0,15.6,1.3,19.7,4c4,2.6,6.1,6.8,6.1,12.5c0,3.8-1,7.1-3,9.6c-2,2.6-4.8,4.2-8.6,4.8
			v0.5c4.6,0.9,8,2.6,10.2,5.2c2.2,2.6,3.3,6.1,3.3,10.4c0,5.9-2.1,10.6-6.2,13.9c-4.1,3.4-9.9,5-17.2,5h-23.8L214.5,338.5
			L214.5,338.5z M225.2,365.7h10.4c4.5,0,7.8-0.7,9.9-2.1c2.1-1.4,3.1-3.9,3.1-7.3c0-3.1-1.1-5.3-3.4-6.7c-2.2-1.4-5.8-2.1-10.7-2.1
			h-9.3V365.7z M225.2,374.5v20.9h11.5c4.5,0,7.9-0.9,10.2-2.6s3.4-4.5,3.4-8.2c0-3.4-1.2-6-3.5-7.6c-2.3-1.7-5.9-2.5-10.7-2.5
			L225.2,374.5L225.2,374.5z"/>
		<path fill="#FFFFFF" d="M325.6,338.5l-20.8,46.9c-2.6,5.7-4.9,9.9-7,12.5c-2.1,2.6-4.6,4.5-7.4,5.7c-2.8,1.2-6.2,1.8-10.2,1.8
			c-3.5,0-6.7-0.5-9.7-1.4v-9.7c2.9,1.2,6,1.8,9.2,1.8c2.7,0,5-0.7,6.9-2c1.8-1.3,3.5-3.8,5-7.2l-24.3-48.3h11.6l16.1,33.1
			c1.4,3.1,2.3,5.2,2.7,6.3h0.5c0.2-0.8,0.6-2,1.4-3.7l14.8-35.6h11.2V338.5z"/>
		<path fill="#FFFFFF" d="M376.1,353.9c0,4.3-1.4,7.8-4.3,10.6c-2.8,2.7-6.8,4.5-11.8,5.2v0.3c5.8,0.7,10.2,2.4,13.2,5.1
			c3,2.7,4.5,6.3,4.5,10.7c0,6.1-2.4,10.9-7.2,14.4c-4.8,3.5-11.4,5.2-19.9,5.2c-8.8,0-15.8-1.2-21.1-3.6v-9.4
			c2.9,1.4,6.2,2.5,9.8,3.2c3.6,0.8,6.9,1.1,9.9,1.1c11.6,0,17.4-3.8,17.4-11.4c0-3.5-1.7-6.1-5.2-8c-3.5-1.8-8.6-2.8-15.4-2.8h-7.9
			v-8.7h7.4c13.1,0,19.7-3.5,19.7-10.5c0-2.8-1.1-5-3.4-6.6c-2.2-1.6-5.4-2.4-9.4-2.4c-3.2,0-6.2,0.4-9.1,1.3
			c-2.9,0.8-5.9,2.3-9,4.3l-4.9-7.3c6.8-4.7,14.7-7,23.9-7c7,0,12.5,1.5,16.5,4.5C374.1,345,376.1,348.9,376.1,353.9z"/>
		<path fill="#FFFFFF" d="M388.3,398.8c0-2.2,0.6-3.9,1.7-5.1s2.8-1.8,5-1.8c2.2,0,3.9,0.6,5,1.8c1.1,1.2,1.7,2.9,1.7,5
			c0,2.1-0.6,3.8-1.7,5.1c-1.2,1.2-2.8,1.9-5,1.9c-2.2,0-3.8-0.6-5-1.8S388.3,400.9,388.3,398.8z"/>
		<path fill="#FFFFFF" d="M460,358.4c0,6.9-2.3,12.2-6.8,15.8c-4.5,3.7-10.9,5.5-19.3,5.5H427v24.7h-10.8v-65.9h19
			c8.2,0,14.4,1.7,18.5,5.1C458,346.9,460,351.8,460,358.4z M427.1,370.7h5.7c5.5,0,9.6-1,12.2-2.9c2.6-1.9,3.9-4.9,3.9-9
			c0-3.8-1.2-6.6-3.5-8.5c-2.3-1.9-5.9-2.8-10.8-2.8h-7.5L427.1,370.7L427.1,370.7z"/>
		<path fill="#FFFFFF" d="M497.6,405.3v-10.1h-1.5c-5.4,0-10.1-1-14.2-3c-4.1-2-7.3-4.9-9.6-8.9c-2.3-3.9-3.5-8.3-3.5-13.1
			c0-4.7,1.1-8.9,3.2-12.6s5.1-6.7,9.1-8.8c3.9-2.1,8.6-3.2,13.8-3.2h2.7v-8.1h10.2v8.1h2.8c5.3,0,9.9,1.1,13.9,3.2
			c3.9,2.1,6.9,5,9,8.7s3.1,7.9,3.1,12.7c0,4.9-1.2,9.3-3.5,13.2c-2.3,3.9-5.5,6.8-9.5,8.8c-4,2-8.8,2.9-14.2,2.9H508v10.1
			L497.6,405.3L497.6,405.3z M497.6,354.4h-2.2c-5,0-8.9,1.4-11.7,4.3c-2.8,2.8-4.2,6.7-4.2,11.4c0,5.1,1.5,9.1,4.6,12.1
			c3,2.9,7.3,4.4,12.8,4.4h0.8L497.6,354.4L497.6,354.4z M507.8,386.6h0.9c5.4,0,9.6-1.5,12.7-4.4s4.6-6.9,4.6-12.1
			c0-4.8-1.4-8.6-4.3-11.5c-2.8-2.8-6.7-4.2-11.7-4.2h-2.2L507.8,386.6L507.8,386.6z"/>
	</g>
	<g enable-background="new    ">
		<path fill="#FFFFFF" d="M29.5,642.2c0,4.7-1.2,8.4-3.5,11c-2.4,2.6-5.7,3.9-10,3.9c-4.4,0-7.7-1.3-10.1-3.9
			c-2.4-2.6-3.5-6.3-3.5-11.1c0-4.8,1.2-8.5,3.5-11c2.4-2.6,5.7-3.8,10.1-3.8c4.3,0,7.6,1.3,10,3.9
			C28.4,633.8,29.5,637.5,29.5,642.2z M7.4,642.2c0,3.6,0.7,6.3,2.2,8.1s3.6,2.8,6.4,2.8s4.9-0.9,6.4-2.7c1.4-1.8,2.1-4.5,2.1-8.1
			s-0.7-6.2-2.1-8.1c-1.4-1.9-3.5-2.8-6.4-2.8c-2.8,0-5,0.9-6.4,2.8C8.2,636,7.4,638.7,7.4,642.2z"/>
		<path fill="#FFFFFF" d="M55.4,648c0,5.8-3.7,8.7-11.2,8.7h-8.4v-29h17.7v4.1h-13v7.7h3.4C51.6,639.6,55.4,642.4,55.4,648z
			 M40.5,652.8h3.4c2.3,0,3.9-0.4,5-1.1c1.1-0.7,1.6-2,1.6-3.6s-0.5-2.8-1.6-3.5c-1.1-0.7-2.9-1.1-5.6-1.1h-2.8
			C40.5,643.5,40.5,652.8,40.5,652.8z"/>
		<path fill="#FFFFFF" d="M80.3,636.5c0,3-1,5.3-3,7c-2,1.7-4.8,2.4-8.5,2.4h-3v10.8h-4.7v-29h8.3c3.6,0,6.3,0.7,8.1,2.2
			S80.3,633.7,80.3,636.5z M65.9,641.9h2.5c2.4,0,4.2-0.4,5.4-1.3c1.1-0.8,1.7-2.2,1.7-4c0-1.7-0.5-2.9-1.5-3.7
			c-1-0.8-2.6-1.2-4.8-1.2h-3.3C65.9,631.7,65.9,641.9,65.9,641.9z"/>
		<path fill="#FFFFFF" d="M104.1,656.8l-2.9-8H90.1l-2.8,8h-5l10.8-29.1h5.2l10.8,29.1H104.1z M99.9,644.6l-2.7-7.9
			c-0.2-0.5-0.5-1.4-0.8-2.5c-0.4-1.1-0.6-2-0.7-2.5c-0.4,1.6-0.9,3.4-1.6,5.3l-2.6,7.5h8.4V644.6z"/>
		<path fill="#FFFFFF" d="M131.3,634.6c0,1.9-0.6,3.4-1.9,4.6c-1.2,1.2-3,2-5.2,2.3v0.1c2.5,0.3,4.5,1.1,5.8,2.2
			c1.3,1.1,2,2.8,2,4.7c0,2.7-1.1,4.8-3.2,6.3c-2.1,1.5-5,2.3-8.7,2.3c-3.9,0-6.9-0.5-9.3-1.6v-4.1c1.3,0.6,2.7,1.1,4.3,1.4
			c1.6,0.3,3,0.5,4.4,0.5c5.1,0,7.6-1.7,7.6-5c0-1.5-0.8-2.7-2.3-3.5c-1.5-0.8-3.8-1.2-6.8-1.2h-3.5v-3.8h3.3c5.8,0,8.7-1.5,8.7-4.6
			c0-1.2-0.5-2.2-1.5-2.9c-1-0.7-2.4-1.1-4.1-1.1c-1.4,0-2.7,0.2-4,0.6c-1.3,0.4-2.6,1-3.9,1.9l-2.2-3.2c3-2.1,6.5-3.1,10.5-3.1
			c3.1,0,5.5,0.7,7.3,2C130.4,630.7,131.3,632.4,131.3,634.6z"/>
		<path fill="#FFFFFF" d="M163.6,642.2c0,4.7-1.2,8.4-3.5,11c-2.4,2.6-5.7,3.9-10,3.9c-4.4,0-7.7-1.3-10.1-3.9
			c-2.4-2.6-3.5-6.3-3.5-11.1c0-4.8,1.2-8.5,3.5-11c2.4-2.6,5.7-3.8,10.1-3.8c4.3,0,7.6,1.3,10,3.9
			C162.4,633.8,163.6,637.5,163.6,642.2z M141.4,642.2c0,3.6,0.7,6.3,2.2,8.1c1.5,1.8,3.6,2.8,6.4,2.8c2.8,0,4.9-0.9,6.4-2.7
			c1.4-1.8,2.1-4.5,2.1-8.1s-0.7-6.2-2.1-8.1s-3.5-2.8-6.4-2.8c-2.8,0-5,0.9-6.4,2.8C142.2,636,141.4,638.7,141.4,642.2z"/>
		<path fill="#FFFFFF" d="M169.8,627.8h8.6c4,0,6.9,0.6,8.6,1.7c1.8,1.2,2.7,3,2.7,5.5c0,1.7-0.4,3.1-1.3,4.2
			c-0.9,1.1-2.1,1.8-3.8,2.1v0.2c2,0.4,3.5,1.1,4.5,2.3c1,1.1,1.4,2.7,1.4,4.6c0,2.6-0.9,4.6-2.7,6.1c-1.8,1.5-4.3,2.2-7.6,2.2
			h-10.5v-28.9H169.8z M174.5,639.8h4.6c2,0,3.4-0.3,4.3-0.9c0.9-0.6,1.4-1.7,1.4-3.2c0-1.4-0.5-2.3-1.5-3c-1-0.6-2.5-0.9-4.7-0.9
			h-4.1V639.8z M174.5,643.6v9.2h5c2,0,3.5-0.4,4.5-1.1s1.5-2,1.5-3.6c0-1.5-0.5-2.6-1.5-3.3c-1-0.7-2.6-1.1-4.7-1.1h-4.8V643.6z"/>
		<path fill="#FFFFFF" d="M214.5,656.8l-2.9-8h-11.1l-2.8,8h-5l10.8-29.1h5.2l10.8,29.1H214.5z M210.4,644.6l-2.7-7.9
			c-0.2-0.5-0.5-1.4-0.8-2.5c-0.4-1.1-0.6-2-0.7-2.5c-0.4,1.6-0.9,3.4-1.6,5.3l-2.6,7.5h8.4V644.6z"/>
		<path fill="#FFFFFF" d="M233.4,656.8h-4.7v-24.9h-8.5v-4.1H242v4.1h-8.5L233.4,656.8L233.4,656.8z"/>
		<path fill="#FFFFFF" d="M262.7,656.8h-16.4v-29h16.4v4H251v7.9h11v4h-10.9v9.1h11.7v4H262.7z"/>
		<path fill="#FFFFFF" d="M290.7,656.8H286v-24.9h-8.2c-1,8.5-1.9,14.2-2.5,17.3c-0.6,3.1-1.5,5.2-2.6,6.4c-1.1,1.2-2.6,1.8-4.5,1.7
			c-1,0-1.9-0.2-2.8-0.5v-3.9c0.8,0.3,1.5,0.5,2.2,0.5c1,0,1.7-0.6,2.2-1.7c0.5-1.1,1.1-3.7,1.8-7.6s1.4-9.3,2.3-16.2h16.9
			L290.7,656.8L290.7,656.8z"/>
		<path fill="#FFFFFF" d="M318.6,648c0,2.8-1,5-2.9,6.5c-1.9,1.5-4.7,2.2-8.3,2.2h-9v-29h4.7v11.8h4.1c3.7,0,6.5,0.7,8.4,2.2
			C317.5,643.2,318.6,645.3,318.6,648z M303.1,652.8h4c2.1,0,3.8-0.4,4.9-1.1c1.1-0.7,1.7-2,1.7-3.6s-0.5-2.7-1.6-3.4
			c-1.1-0.7-2.9-1.1-5.5-1.1h-3.4v9.2H303.1z"/>
		<path fill="#FFFFFF" d="M347.2,656.8h-4.8v-13.1H329v13.1h-4.7v-29h4.7v11.8h13.4v-11.8h4.8V656.8z"/>
		<path fill="#FFFFFF" d="M374.1,648c0,2.9-0.9,5-2.8,6.5c-1.9,1.5-4.6,2.2-8.2,2.2h-8.3v-29h4.7v11.8h3.4c3.6,0,6.4,0.7,8.3,2.2
			C373.1,643.2,374.1,645.3,374.1,648z M359.6,652.8h3.2c2.1,0,3.7-0.4,4.8-1.1c1.1-0.7,1.6-2,1.6-3.6s-0.5-2.7-1.6-3.4
			c-1-0.7-2.8-1.1-5.3-1.1h-2.8L359.6,652.8L359.6,652.8z M382.9,656.8h-4.8v-29h4.8V656.8z"/>
		<path fill="#FFFFFF" d="M390.5,627.8h4.3v15.1c0,1.6,0,3.2-0.1,4.8s-0.1,2.7-0.2,3.3h0.2l14.8-23.1h5.5v29h-4.4V642
			c0-2.3,0.1-5.1,0.4-8.3h-0.2L395.9,657h-5.5v-29.2H390.5z M402.9,625.5c-2.8,0-4.9-0.5-6.2-1.5c-1.3-1-2-2.7-2.2-5.1h4.2
			c0.1,1,0.3,1.7,0.5,2.2c0.2,0.5,0.7,0.9,1.2,1.1c0.5,0.2,1.4,0.3,2.4,0.3c1.3,0,2.3-0.3,3-0.9c0.7-0.6,1.1-1.5,1.2-2.8h4.3
			c-0.2,2.3-1,3.9-2.4,5C407.7,624.9,405.7,625.5,402.9,625.5z"/>
		<path fill="#FFFFFF" d="M455.5,656.8h-4.8v-24.9h-12.8v24.9h-4.7v-29h22.3V656.8z"/>
		<path fill="#FFFFFF" d="M488.8,642.2c0,4.7-1.2,8.4-3.5,11c-2.4,2.6-5.7,3.9-10,3.9c-4.4,0-7.7-1.3-10.1-3.9
			c-2.3-2.6-3.5-6.3-3.5-11.1c0-4.8,1.2-8.5,3.5-11c2.4-2.6,5.7-3.8,10.1-3.8c4.3,0,7.6,1.3,10,3.9
			C487.7,633.8,488.8,637.5,488.8,642.2z M466.7,642.2c0,3.6,0.7,6.3,2.2,8.1c1.4,1.8,3.6,2.8,6.4,2.8s4.9-0.9,6.4-2.7
			c1.4-1.8,2.1-4.5,2.1-8.1s-0.7-6.2-2.1-8.1c-1.4-1.9-3.5-2.8-6.4-2.8c-2.8,0-5,0.9-6.4,2.8C467.5,636.1,466.7,638.7,466.7,642.2z"
			/>
		<path fill="#FFFFFF" d="M514.2,636.5c0,3-1,5.3-3,7c-2,1.7-4.8,2.4-8.5,2.4h-3v10.8H495v-29h8.3c3.6,0,6.3,0.7,8.1,2.2
			C513.3,631.5,514.2,633.7,514.2,636.5z M499.8,641.9h2.5c2.4,0,4.2-0.4,5.4-1.3c1.1-0.8,1.7-2.2,1.7-4c0-1.7-0.5-2.9-1.5-3.7
			c-1-0.8-2.6-1.2-4.8-1.2h-3.3L499.8,641.9L499.8,641.9z"/>
		<path fill="#FFFFFF" d="M530,656.8h-4.7v-24.9h-8.5v-4.1h21.8v4.1H530V656.8z"/>
		<path fill="#FFFFFF" d="M560.9,656.8l-2.9-8h-11l-2.8,8h-5l10.8-29.1h5.2l10.8,29.1H560.9z M556.8,644.6l-2.7-7.9
			c-0.2-0.5-0.5-1.4-0.8-2.5c-0.4-1.1-0.6-2-0.7-2.5c-0.4,1.6-0.9,3.4-1.6,5.3l-2.6,7.5h8.4V644.6z"/>
		<path fill="#FFFFFF" d="M591.5,656.8h-4.7v-24.9h-8.2c-1,8.5-1.9,14.2-2.5,17.3c-0.6,3.1-1.5,5.2-2.6,6.4
			c-1.1,1.2-2.6,1.8-4.5,1.7c-1,0-1.9-0.2-2.8-0.5v-3.9c0.8,0.3,1.5,0.5,2.2,0.5c1,0,1.7-0.6,2.2-1.7s1.1-3.7,1.8-7.6
			c0.7-3.9,1.4-9.3,2.3-16.2h16.9v28.9H591.5z"/>
	</g>
</g>
</svg>
