<?xml version="1.0" encoding="utf-8"?>
<!-- Generator: Adobe Illustrator 18.0.0, SVG Export Plug-In . SVG Version: 6.00 Build 0)  -->
<!DOCTYPE svg PUBLIC "-//W3C//DTD SVG 1.1//EN" "http://www.w3.org/Graphics/SVG/1.1/DTD/svg11.dtd">
<svg version="1.1" id="Слой_1" xmlns="http://www.w3.org/2000/svg" xmlns:xlink="http://www.w3.org/1999/xlink" x="0px" y="0px"
	 viewBox="-190 473.5 608 506.2" enable-background="new -190 473.5 608 506.2" xml:space="preserve">
<g>
	<path fill="#000000" d="M208.2,484.6v88.1v11.1h11.1h187.6v188.1H219.3h-11.1V783v88.4h-386.8V484.6H208.2 M219.3,473.5H-190v409.3
		h409.3v-99.5H418V572.7H219.3L219.3,473.5L219.3,473.5z"/>
	<g enable-background="new    ">
		<path fill="#000000" d="M-111.9,710.4H-123v-58.1h-20v-9.4h51v9.4h-20V710.4z"/>
		<path fill="#000000" d="M-43.2,710.4h-38.5v-67.6h38.5v9.4h-27.4v18.5h25.7v9.4h-25.7v21.4h27.4V710.4z"/>
		<path fill="#000000" d="M21.2,710.4H8.4l-17.1-27.6l-17.1,27.6h-12l22.5-35.1l-21.1-32.8h12.3l15.7,25.7l15.7-25.7h12l-21.1,32.8
			L21.2,710.4z"/>
		<path fill="#000000" d="M30.3,642.8h20.2c9.4,0,16,1.4,20.2,4c4.3,2.9,6.3,7.1,6.3,12.8c0,4-1.1,7.1-3.1,10
			c-2,2.6-4.8,4.3-8.8,4.8v0.6c4.8,0.9,8.3,2.6,10.5,5.4c2.3,2.6,3.4,6.3,3.4,10.8c0,6-2,10.8-6.3,14.3c-4.3,3.4-10.3,5.1-17.7,5.1
			H30.6v-67.8H30.3z M41.5,670.7H52c4.6,0,8-0.9,10.3-2.3c2-1.4,3.1-4,3.1-7.4c0-3.1-1.1-5.4-3.4-6.8c-2.3-1.4-6-2-10.8-2h-9.7
			L41.5,670.7L41.5,670.7z M41.5,679.6v21.4h11.7c4.6,0,8.3-0.9,10.5-2.6c2.3-1.7,3.4-4.6,3.4-8.6c0-3.4-1.1-6.3-3.7-7.7
			c-2.3-1.7-6-2.6-11.1-2.6H41.5z"/>
		<path fill="#000000" d="M144.6,642.8L123.3,691c-2.6,6-5.1,10.3-7.1,12.8c-2.3,2.6-4.8,4.6-7.7,5.7c-2.9,1.1-6.3,2-10.5,2
			c-3.7,0-6.8-0.6-10-1.4v-10c3.1,1.1,6.3,1.7,9.4,1.7c2.9,0,5.1-0.6,7.1-2s3.7-4,5.1-7.4l-25.1-49.6h12l16.5,33.9
			c1.4,3.1,2.3,5.4,2.9,6.6h0.6c0.3-0.9,0.6-2,1.4-3.7l15.4-36.5h11.4V642.8z"/>
		<path fill="#000000" d="M196.5,658.5c0,4.6-1.4,8-4.3,10.8c-2.9,2.9-6.8,4.6-12.3,5.4v0.3c6,0.6,10.5,2.6,13.7,5.1
			c3.1,2.9,4.6,6.6,4.6,10.8c0,6.3-2.6,11.1-7.4,14.8s-11.7,5.4-20.5,5.4c-9.1,0-16.2-1.1-21.7-3.7v-9.7c3.1,1.4,6.3,2.6,10,3.4
			c3.7,0.9,7.1,1.1,10.3,1.1c12,0,18-4,18-11.7c0-3.7-1.7-6.3-5.4-8.3c-3.7-2-8.8-2.9-16-2.9h-7.7v-8.8h7.7
			c13.4,0,20.2-3.7,20.2-10.8c0-2.9-1.1-5.1-3.4-6.8c-2.3-1.7-5.4-2.6-9.7-2.6c-3.1,0-6.3,0.6-9.4,1.4c-2.9,0.9-6,2.3-9.1,4.3
			l-5.1-7.4c6.8-4.8,15.1-7.1,24.5-7.1c7.1,0,12.8,1.4,17.1,4.6C194.5,649.4,196.5,653.3,196.5,658.5z"/>
		<path fill="#000000" d="M209.1,704.7c0-2.3,0.6-4,1.7-5.1c1.1-1.1,2.9-1.7,5.1-1.7c2.3,0,4,0.6,5.1,2c1.1,1.4,1.7,2.9,1.7,5.1
			s-0.6,4-1.7,5.1c-1.1,1.1-2.9,2-5.1,2c-2.3,0-4-0.6-5.1-2C209.6,708.6,209.1,706.9,209.1,704.7z"/>
		<path fill="#000000" d="M282.9,663.3c0,7.1-2.3,12.5-6.8,16.2c-4.6,3.7-11.1,5.7-19.7,5.7H249v25.4h-11.1v-67.8h19.4
			c8.6,0,14.8,1.7,19.1,5.1C280.9,651.3,282.9,656.5,282.9,663.3z M249,675.9h6c5.7,0,10-0.9,12.5-2.9c2.6-2,4-5.1,4-9.4
			c0-4-1.1-6.8-3.7-8.8c-2.3-2-6-2.9-11.1-2.9H249V675.9z"/>
		<path fill="#000000" d="M321.7,711.5v-10.5h-1.4c-5.4,0-10.3-1.1-14.5-3.1c-4.3-2-7.4-5.1-10-9.1c-2.3-4-3.7-8.6-3.7-13.4
			c0-4.8,1.1-9.1,3.1-12.8c2.3-3.7,5.1-6.8,9.4-9.1c4-2.3,8.8-3.1,14.3-3.1h2.9v-8.3h10.5v8.3h2.9c5.4,0,10.3,1.1,14.3,3.1
			c4,2,7.1,5.1,9.1,8.8c2,3.7,3.1,8.3,3.1,13.1c0,5.1-1.1,9.7-3.7,13.7c-2.3,4-5.7,7.1-9.7,9.1c-4.3,2-9.1,3.1-14.5,3.1h-1.4v10.5
			h-10.5V711.5z M321.7,659h-2.3c-5.1,0-9.1,1.4-12,4.3c-2.9,2.9-4.3,6.8-4.3,11.7c0,5.1,1.4,9.4,4.6,12.5c3.1,3.1,7.4,4.6,13.1,4.6
			h0.9C321.7,692.1,321.7,659,321.7,659z M331.9,692.1h0.9c5.7,0,10-1.4,13.1-4.6c3.1-2.9,4.8-7.1,4.8-12.5c0-4.8-1.4-8.8-4.3-11.7
			c-2.9-2.9-6.8-4.3-12-4.3h-2.3v33.1H331.9z"/>
	</g>
	<g enable-background="new    ">
		<path fill="#000000" d="M-166.6,958.6c0,3.7-0.9,6.6-2.9,8.6s-4.6,3.1-8,3.1c-2,0-4-0.6-5.7-1.4c-1.7-0.9-2.9-2.3-3.7-4
			c-0.9-1.7-1.4-3.7-1.4-6.3c0-3.7,0.9-6.6,2.9-8.6c2-2,4.6-3.1,8-3.1c3.1,0,5.7,1.1,7.7,3.1C-167.5,952.4-166.6,954.9-166.6,958.6z
			 M-182.9,958.6c0,5.1,2,7.7,5.7,7.7c3.7,0,5.7-2.6,5.7-7.7c0-5.1-2-7.7-5.7-7.7c-2,0-3.4,0.6-4.3,2
			C-182.3,954.4-182.9,956.1-182.9,958.6z"/>
		<path fill="#000000" d="M-162.4,956.4c0-5.1,0.9-8.8,2.6-11.7c1.7-2.6,4.3-4.6,8.3-5.1c2.9-0.6,6-1.1,9.7-1.7l0.6,4.3
			c-4.6,0.6-7.7,1.1-9.7,1.7c-2,0.3-3.7,1.1-4.6,2.6c-0.9,1.4-1.4,3.4-1.7,6.3h0.3c0.9-1.1,1.7-2,3.1-2.6c1.4-0.6,2.6-0.9,4-0.9
			c2.9,0,4.8,0.9,6.6,2.6c1.4,1.7,2.3,4.3,2.3,7.4c0,3.7-0.9,6.6-2.9,8.6s-4.6,2.9-7.7,2.9c-3.4,0-6-1.1-7.7-3.7
			C-161.5,964.3-162.4,960.9-162.4,956.4z M-151.5,966.3c3.4,0,5.4-2.3,5.4-7.1c0-4.6-1.7-6.8-4.8-6.8c-0.9,0-1.7,0.3-2.6,0.6
			c-0.9,0.3-1.7,0.9-2.3,1.4s-1.1,1.1-1.7,2c0,3.1,0.6,5.7,1.4,7.4C-154.9,965.5-153.5,966.3-151.5,966.3z"/>
		<path fill="#000000" d="M-124.2,970.3c-2.9,0-5.1-1.1-6.6-3.1h-0.3c0.3,2,0.3,3.1,0.3,3.4v9.1h-4.8v-32.5h4c0,0.3,0.3,1.4,0.6,3.1
			h0.3c1.4-2.3,3.7-3.4,6.8-3.4c2.9,0,5.1,1.1,6.6,3.1c1.4,2,2.3,4.8,2.3,8.6s-0.9,6.6-2.3,8.6
			C-119.3,969.2-121.6,970.3-124.2,970.3z M-125.3,950.9c-2,0-3.4,0.6-4.3,1.7c-0.9,1.1-1.4,2.9-1.4,5.4v0.9c0,2.9,0.6,4.8,1.4,6
			c0.9,1.1,2.3,1.7,4.3,1.7c1.7,0,2.9-0.6,3.7-2c0.9-1.4,1.4-3.4,1.4-5.7c0-2.6-0.6-4.6-1.4-5.7
			C-122.4,951.5-123.6,950.9-125.3,950.9z"/>
		<path fill="#000000" d="M-95.6,970l-0.9-3.1h-0.3c-1.1,1.4-2.3,2.3-3.4,2.9c-1.1,0.6-2.6,0.9-4.3,0.9c-2.3,0-4-0.6-5.1-1.7
			c-1.1-1.1-2-2.9-2-5.1c0-2.3,0.9-4,2.6-5.1c1.7-1.1,4.3-1.7,8-2h4v-1.1c0-1.4-0.3-2.6-1.1-3.1c-0.6-0.6-1.7-1.1-3.1-1.1
			c-1.1,0-2.3,0.3-3.4,0.6c-1.1,0.3-2,0.9-3.1,1.1l-1.4-3.4c1.1-0.6,2.6-1.1,4-1.4c1.4-0.3,2.9-0.6,4-0.6c2.9,0,5.1,0.6,6.6,2
			s2.3,3.1,2.3,6v15.1h-3.1V970z M-102.8,966.6c1.7,0,3.1-0.6,4.3-1.4c1.1-0.9,1.7-2.3,1.7-4v-2h-2.9c-2.3,0-4,0.6-4.8,1.1
			c-1.1,0.6-1.4,1.7-1.4,3.1c0,1.1,0.3,1.7,0.9,2.3C-104.8,966.3-103.9,966.6-102.8,966.6z"/>
		<path fill="#000000" d="M-80.5,956.4c2.3,0,3.7-0.3,4.8-0.9c1.1-0.6,1.4-1.1,1.4-2.3c0-1.7-1.7-2.9-4.8-2.9
			c-2.3,0-4.3,0.6-6.6,1.4l-1.4-3.7c2.6-1.1,5.4-1.7,8.6-1.7c2.9,0,4.8,0.6,6.6,1.4c1.4,1.1,2.3,2.6,2.3,4.3c0,2.6-1.4,4.3-4.3,4.8
			v0.3c1.7,0.6,3.1,1.1,4,2c0.9,0.9,1.1,2,1.1,3.4c0,2-0.9,3.7-2.9,4.8c-1.7,1.1-4.3,1.7-7.7,1.7s-6.3-0.6-8.3-1.4v-2.9
			c2.6,1.1,5.1,1.7,7.7,1.7c2,0,3.4-0.3,4.6-0.9c1.1-0.6,1.4-1.4,1.4-2.6s-0.6-2-1.7-2.6c-1.1-0.6-2.6-0.9-4.8-0.9h-2.9v-3.4H-80.5z
			"/>
		<path fill="#000000" d="M-43.8,958.6c0,3.7-0.9,6.6-2.9,8.6s-4.6,3.1-8,3.1c-2,0-4-0.6-5.7-1.4c-1.7-0.9-2.9-2.3-3.7-4
			c-0.9-1.7-1.4-3.7-1.4-6.3c0-3.7,0.9-6.6,2.9-8.6c2-2,4.6-3.1,8-3.1c3.1,0,5.7,1.1,7.7,3.1C-44.9,952.4-43.8,954.9-43.8,958.6z
			 M-60.3,958.6c0,5.1,2,7.7,5.7,7.7c3.7,0,5.7-2.6,5.7-7.7c0-5.1-2-7.7-5.7-7.7c-2,0-3.4,0.6-4.3,2
			C-59.7,954.4-60.3,956.1-60.3,958.6z"/>
		<path fill="#000000" d="M-18.7,953.2c0,2.6-1.4,4.3-4.6,4.8v0.3c1.7,0.3,3.1,0.9,4,1.7c0.9,0.9,1.4,2,1.4,3.4c0,2-0.9,3.7-2.6,4.8
			c-1.7,1.1-4,1.7-7.1,1.7h-10.8v-22.5h10.8C-21.8,947.5-18.7,949.2-18.7,953.2z M-23.5,953.5c0-0.9-0.3-1.4-1.1-2
			c-0.6-0.3-1.7-0.6-3.1-0.6h-5.7v5.4h5.1c1.7,0,2.9-0.3,3.7-0.6C-24.1,955.5-23.5,954.6-23.5,953.5z M-23,962.9
			c0-1.1-0.3-2-1.1-2.3c-0.9-0.6-2-0.6-3.7-0.6h-5.4v6.3h5.7C-24.7,966.3-23,965.2-23,962.9z"/>
		<path fill="#000000" d="M1,970l-0.9-3.1h-0.3c-1.1,1.4-2.3,2.3-3.4,2.9c-1.1,0.6-2.6,0.9-4.3,0.9c-2.3,0-4-0.6-5.1-1.7
			s-2-2.9-2-5.1c0-2.3,0.9-4,2.6-5.1c1.7-1.1,4.3-1.7,8-2h4v-1.1c0-1.4-0.3-2.6-1.1-3.1c-0.6-0.6-1.7-1.1-3.1-1.1
			c-1.1,0-2.3,0.3-3.4,0.6s-2,0.9-3.1,1.1l-1.4-3.4c1.1-0.6,2.6-1.1,4-1.4s2.9-0.6,4-0.6c2.9,0,5.1,0.6,6.6,2s2.3,3.1,2.3,6v15.1H1
			V970z M-6.1,966.6c1.7,0,3.1-0.6,4.3-1.4s1.7-2.3,1.7-4v-2H-3c-2.3,0-4,0.6-4.8,1.1c-1.1,0.6-1.4,1.7-1.4,3.1
			c0,1.1,0.3,1.7,0.9,2.3C-8.4,966.3-7.3,966.6-6.1,966.6z"/>
		<path fill="#000000" d="M28.1,947.5v3.7h-7.4V970h-4.8v-18.8H8.4v-3.7H28.1z"/>
		<path fill="#000000" d="M42,970.3c-3.4,0-6.3-1.1-8.3-3.1c-2-2-2.9-4.8-2.9-8.6c0-3.7,0.9-6.6,2.9-8.6c1.7-2,4.3-3.1,7.7-3.1
			c2.9,0,5.4,0.9,7.1,2.9c1.7,1.7,2.6,4.3,2.6,7.4v2.6H36c0,2.3,0.6,4,1.7,5.1c1.1,1.1,2.6,1.7,4.8,1.7c1.4,0,2.6,0,3.7-0.3
			c1.1-0.3,2.3-0.6,3.7-1.1v4c-1.1,0.6-2.3,0.9-3.4,1.1C45.2,970.3,43.7,970.3,42,970.3z M41.2,950.7c-1.4,0-2.9,0.6-3.7,1.4
			c-0.9,0.9-1.4,2.3-1.7,4.3H46c0-2-0.6-3.1-1.4-4.3C44,951.2,42.9,950.7,41.2,950.7z"/>
		<path fill="#000000" d="M74.8,970H70v-18.8h-6.3c-0.3,4.8-0.9,8.6-1.4,11.4c-0.6,2.9-1.4,4.6-2.6,6c-1.1,1.1-2.3,2-4,2
			c-1.1,0-2-0.3-2.6-0.6v-3.7c0.6,0.3,1.1,0.3,1.4,0.3c1.4,0,2.6-1.4,3.1-4.6c0.9-3.1,1.4-8,2-14.3h15.1V970z"/>
		<path fill="#000000" d="M86.5,956.4h5.7c6.3,0,9.4,2.3,9.4,6.6c0,2.3-0.9,4-2.3,5.1c-1.7,1.1-4,1.7-7.1,1.7H81.7v-22.5h4.8V956.4z
			 M96.8,962.9c0-1.1-0.6-2-1.4-2.3c-0.9-0.6-2-0.6-3.7-0.6h-5.1v6.3h5.4c1.7,0,2.9-0.3,3.7-0.9C96.5,964.9,96.8,964,96.8,962.9z"/>
		<path fill="#000000" d="M111.6,947.5v9.1h10.5v-9.1h4.8V970h-4.8v-9.7h-10.5v9.7h-4.8v-22.5H111.6z"/>
		<path fill="#000000" d="M138.7,956.4h4.6c3.1,0,5.4,0.6,7.1,1.7c1.4,1.1,2.3,2.9,2.3,4.8c0,2.3-0.9,4-2.3,5.1
			c-1.4,1.1-4,1.7-6.8,1.7h-9.4v-22.5h4.8v9.1H138.7z M147.8,962.9c0-1.1-0.3-2-1.1-2.3c-0.9-0.3-2-0.6-3.7-0.6h-4.3v6.3h3.7
			c2,0,3.4-0.3,4.3-0.9C147.2,964.9,147.8,964,147.8,962.9z M160.9,970H156v-22.5h4.8V970z"/>
		<path fill="#000000" d="M172.3,947.5v11.7c0,1.4,0,3.4-0.3,6l11.4-17.4h6v22.5h-4.6v-11.4c0-0.6,0-1.7,0-3.1s0-2.3,0.3-3.1
			L173.7,970h-6v-22.5H172.3z M178.3,944.7c-2.9,0-5.1-0.6-6.3-1.4c-1.4-1.1-2-2.9-2.3-5.1h4.3c0,0.9,0.3,1.7,0.6,2.3
			c0.3,0.6,0.6,0.9,1.1,1.1c0.6,0.3,1.4,0.3,2.6,0.3c1.4,0,2.3-0.3,3.1-0.9c0.6-0.6,1.1-1.4,1.1-2.9h4.6c-0.3,2.3-1.1,4-2.6,5.1
			C183.1,944.4,181.1,944.7,178.3,944.7z"/>
		<path fill="#000000" d="M226.5,947.5V970h-4.8v-18.8h-10V970h-4.8v-22.5H226.5z"/>
		<path fill="#000000" d="M253.3,958.6c0,3.7-0.9,6.6-2.9,8.6s-4.6,3.1-8,3.1c-2,0-4-0.6-5.7-1.4c-1.7-0.9-2.9-2.3-3.7-4
			c-0.9-1.7-1.4-3.7-1.4-6.3c0-3.7,0.9-6.6,2.9-8.6c2-2,4.6-3.1,8-3.1c3.1,0,5.7,1.1,7.7,3.1C252.4,952.4,253.3,954.9,253.3,958.6z
			 M237,958.6c0,5.1,2,7.7,5.7,7.7c3.7,0,5.7-2.6,5.7-7.7c0-5.1-2-7.7-5.7-7.7c-2,0-3.4,0.6-4.3,2C237.3,954.4,237,956.1,237,958.6z
			"/>
		<path fill="#000000" d="M270.4,970.3c-2.9,0-5.1-1.1-6.6-3.1h-0.6c0.3,2,0.3,3.1,0.3,3.4v9.1h-4.8v-32.5h4c0,0.3,0.3,1.4,0.6,3.1
			h0.3c1.4-2.3,3.7-3.4,6.8-3.4c2.9,0,5.1,1.1,6.6,3.1c1.4,2,2.3,4.8,2.3,8.6s-0.9,6.6-2.3,8.6C275.2,969.2,272.9,970.3,270.4,970.3
			z M268.9,950.9c-2,0-3.4,0.6-4.3,1.7c-0.9,1.1-1.4,2.9-1.4,5.4v0.9c0,2.9,0.6,4.8,1.4,6c0.9,1.1,2.3,1.7,4.3,1.7
			c1.7,0,2.9-0.6,3.7-2s1.4-3.4,1.4-5.7c0-2.6-0.6-4.6-1.4-5.7C272.1,951.5,270.6,950.9,268.9,950.9z"/>
		<path fill="#000000" d="M301.7,947.5v3.7h-7.4V970h-4.8v-18.8H282v-3.7H301.7z"/>
		<path fill="#000000" d="M320.2,970l-0.9-3.1h-0.3c-1.1,1.4-2.3,2.3-3.4,2.9s-2.6,0.9-4.3,0.9c-2.3,0-4-0.6-5.1-1.7s-2-2.9-2-5.1
			c0-2.3,0.9-4,2.6-5.1c1.7-1.1,4.3-1.7,8-2h4v-1.1c0-1.4-0.3-2.6-1.1-3.1c-0.6-0.6-1.7-1.1-3.1-1.1c-1.1,0-2.3,0.3-3.4,0.6
			s-2,0.9-3.1,1.1l-1.4-3.4c1.1-0.6,2.6-1.1,4-1.4c1.4-0.3,2.9-0.6,4-0.6c2.9,0,5.1,0.6,6.6,2c1.4,1.1,2.3,3.1,2.3,6v15.1h-3.1V970z
			 M313.1,966.6c1.7,0,3.1-0.6,4.3-1.4s1.7-2.3,1.7-4v-2h-2.9c-2.3,0-4,0.6-4.8,1.1c-1.1,0.6-1.4,1.7-1.4,3.1c0,1.1,0.3,1.7,0.9,2.3
			C310.8,966.3,311.7,966.6,313.1,966.6z"/>
		<path fill="#000000" d="M348.7,970h-4.8v-18.8h-6.3c-0.3,4.8-0.9,8.6-1.4,11.4c-0.6,2.9-1.4,4.6-2.6,6c-1.1,1.1-2.3,2-4,2
			c-1.1,0-2-0.3-2.6-0.6v-3.7c0.6,0.3,1.1,0.3,1.4,0.3c1.4,0,2.6-1.4,3.1-4.6c0.9-3.1,1.4-8,2-14.3h15.1V970z"/>
	</g>
</g>
</svg>
